<svg xmlns="http://www.w3.org/2000/svg" xmlns:xlink="http://www.w3.org/1999/xlink" width="1149.565" height="440.674" viewBox="0 0 1149.565 440.674">
  <defs>
    <filter id="Trazado_796773" x="378.916" y="0" width="297" height="89" filterUnits="userSpaceOnUse">
      <feOffset dx="3" dy="3" input="SourceAlpha"/>
      <feGaussianBlur stdDeviation="3" result="blur"/>
      <feFlood flood-opacity="0.161"/>
      <feComposite operator="in" in2="blur"/>
      <feComposite in="SourceGraphic"/>
    </filter>
    <filter id="Trazado_796775" x="45.917" y="158.729" width="233.189" height="89.729" filterUnits="userSpaceOnUse">
      <feOffset dx="3" dy="3" input="SourceAlpha"/>
      <feGaussianBlur stdDeviation="3" result="blur-2"/>
      <feFlood flood-opacity="0.161"/>
      <feComposite operator="in" in2="blur-2"/>
      <feComposite in="SourceGraphic"/>
    </filter>
    <filter id="Trazado_796777" x="692.151" y="158.729" width="233.189" height="89.729" filterUnits="userSpaceOnUse">
      <feOffset dx="3" dy="3" input="SourceAlpha"/>
      <feGaussianBlur stdDeviation="3" result="blur-3"/>
      <feFlood flood-opacity="0.161"/>
      <feComposite operator="in" in2="blur-3"/>
      <feComposite in="SourceGraphic"/>
    </filter>
    <filter id="Trazado_796780" x="0" y="268.806" width="152.987" height="73.729" filterUnits="userSpaceOnUse">
      <feOffset dx="3" dy="3" input="SourceAlpha"/>
      <feGaussianBlur stdDeviation="3" result="blur-4"/>
      <feFlood flood-opacity="0.161"/>
      <feComposite operator="in" in2="blur-4"/>
      <feComposite in="SourceGraphic"/>
    </filter>
    <filter id="Trazado_796781" x="582" y="268.806" width="152.987" height="73.729" filterUnits="userSpaceOnUse">
      <feOffset dx="3" dy="3" input="SourceAlpha"/>
      <feGaussianBlur stdDeviation="3" result="blur-5"/>
      <feFlood flood-opacity="0.161"/>
      <feComposite operator="in" in2="blur-5"/>
      <feComposite in="SourceGraphic"/>
    </filter>
    <filter id="Trazado_796782" x="507.507" y="366.766" width="152.987" height="73.729" filterUnits="userSpaceOnUse">
      <feOffset dx="3" dy="3" input="SourceAlpha"/>
      <feGaussianBlur stdDeviation="3" result="blur-6"/>
      <feFlood flood-opacity="0.161"/>
      <feComposite operator="in" in2="blur-6"/>
      <feComposite in="SourceGraphic"/>
    </filter>
    <filter id="Trazado_796783" x="844.999" y="366.944" width="152.987" height="73.729" filterUnits="userSpaceOnUse">
      <feOffset dx="3" dy="3" input="SourceAlpha"/>
      <feGaussianBlur stdDeviation="3" result="blur-7"/>
      <feFlood flood-opacity="0.161"/>
      <feComposite operator="in" in2="blur-7"/>
      <feComposite in="SourceGraphic"/>
    </filter>
    <filter id="Trazado_796784" x="659.085" y="366.766" width="152.987" height="73.729" filterUnits="userSpaceOnUse">
      <feOffset dx="3" dy="3" input="SourceAlpha"/>
      <feGaussianBlur stdDeviation="3" result="blur-8"/>
      <feFlood flood-opacity="0.161"/>
      <feComposite operator="in" in2="blur-8"/>
      <feComposite in="SourceGraphic"/>
    </filter>
    <filter id="Trazado_796785" x="996.578" y="366.944" width="152.987" height="73.729" filterUnits="userSpaceOnUse">
      <feOffset dx="3" dy="3" input="SourceAlpha"/>
      <feGaussianBlur stdDeviation="3" result="blur-9"/>
      <feFlood flood-opacity="0.161"/>
      <feComposite operator="in" in2="blur-9"/>
      <feComposite in="SourceGraphic"/>
    </filter>
    <filter id="Trazado_796786" x="204" y="268.806" width="152.987" height="73.729" filterUnits="userSpaceOnUse">
      <feOffset dx="3" dy="3" input="SourceAlpha"/>
      <feGaussianBlur stdDeviation="3" result="blur-10"/>
      <feFlood flood-opacity="0.161"/>
      <feComposite operator="in" in2="blur-10"/>
      <feComposite in="SourceGraphic"/>
    </filter>
    <filter id="Trazado_796787" x="889" y="268.806" width="152.987" height="73.729" filterUnits="userSpaceOnUse">
      <feOffset dx="3" dy="3" input="SourceAlpha"/>
      <feGaussianBlur stdDeviation="3" result="blur-11"/>
      <feFlood flood-opacity="0.161"/>
      <feComposite operator="in" in2="blur-11"/>
      <feComposite in="SourceGraphic"/>
    </filter>
  </defs>
  <g id="Grupo_1042356" data-name="Grupo 1042356" transform="translate(-279 -441)">
    <g transform="matrix(1, 0, 0, 1, 279, 441)" filter="url(#Trazado_796773)">
      <g id="Trazado_796773-2" data-name="Trazado 796773" transform="translate(384.92 6)" fill="#373f51">
        <path d="M 273 70 L 6 70 C 3.243000030517578 70 1 67.75700378417969 1 65 L 1 6 C 1 3.243000030517578 3.243000030517578 1 6 1 L 273 1 C 275.7569885253906 1 278 3.243000030517578 278 6 L 278 65 C 278 67.75700378417969 275.7569885253906 70 273 70 Z" stroke="none"/>
        <path d="M 6 2 C 3.794403076171875 2 2 3.794395446777344 2 6 L 2 65 C 2 67.20560455322266 3.794403076171875 69 6 69 L 273 69 C 275.2055969238281 69 277 67.20560455322266 277 65 L 277 6 C 277 3.794395446777344 275.2055969238281 2 273 2 L 6 2 M 6 0 L 273 0 C 276.313720703125 0 279 2.686286926269531 279 6 L 279 65 C 279 68.31371307373047 276.313720703125 71 273 71 L 6 71 C 2.686279296875 71 0 68.31371307373047 0 65 L 0 6 C 0 2.686286926269531 2.686279296875 0 6 0 Z" stroke="none" fill="#fff"/>
      </g>
    </g>
    <path id="Trazado_796774" data-name="Trazado 796774" d="M17.652,13.563a4.068,4.068,0,0,1-1.789,1.176,7.492,7.492,0,0,1-2.562.418,5.076,5.076,0,0,1-2.59-.645,4.3,4.3,0,0,1-1.719-1.871,6.585,6.585,0,0,1-.621-2.883V8.984a6.994,6.994,0,0,1,.574-2.949A4.248,4.248,0,0,1,10.6,4.129a4.771,4.771,0,0,1,2.535-.66,4.751,4.751,0,0,1,3.164.965,4.123,4.123,0,0,1,1.352,2.809H15.371a2.268,2.268,0,0,0-.691-1.43,2.208,2.208,0,0,0-1.473-.453,2.078,2.078,0,0,0-1.82.9,4.724,4.724,0,0,0-.633,2.672v.727a4.5,4.5,0,0,0,.68,2.7,2.327,2.327,0,0,0,1.992.914,2.6,2.6,0,0,0,1.883-.562V10.75H13.176V9.023h4.477Zm5.641,1.594a4.15,4.15,0,0,1-3.027-1.141A4.054,4.054,0,0,1,19.1,10.977v-.219A5.106,5.106,0,0,1,19.59,8.48a3.612,3.612,0,0,1,1.395-1.547,3.914,3.914,0,0,1,2.059-.543,3.508,3.508,0,0,1,2.73,1.094,4.444,4.444,0,0,1,1,3.1v.922H21.387a2.1,2.1,0,0,0,.66,1.328,2,2,0,0,0,1.395.5,2.437,2.437,0,0,0,2.039-.945l1.109,1.242a3.389,3.389,0,0,1-1.375,1.121A4.511,4.511,0,0,1,23.293,15.156Zm-.258-6.945a1.411,1.411,0,0,0-1.09.455,2.357,2.357,0,0,0-.535,1.3h3.141V9.788a1.681,1.681,0,0,0-.406-1.165A1.456,1.456,0,0,0,23.035,8.211Zm9.594,4.453a.727.727,0,0,0-.41-.652,4.659,4.659,0,0,0-1.316-.426q-3.016-.633-3.016-2.562a2.323,2.323,0,0,1,.934-1.879,3.766,3.766,0,0,1,2.441-.754,4.053,4.053,0,0,1,2.574.758A2.388,2.388,0,0,1,34.8,9.117H32.543a1.092,1.092,0,0,0-.312-.8A1.322,1.322,0,0,0,31.254,8a1.351,1.351,0,0,0-.883.258.814.814,0,0,0-.312.656.7.7,0,0,0,.355.605,3.657,3.657,0,0,0,1.2.4,9.8,9.8,0,0,1,1.422.379,2.336,2.336,0,0,1,1.789,2.273,2.2,2.2,0,0,1-.992,1.871,4.28,4.28,0,0,1-2.562.715,4.47,4.47,0,0,1-1.887-.379,3.166,3.166,0,0,1-1.293-1.039,2.414,2.414,0,0,1-.469-1.426h2.141a1.179,1.179,0,0,0,.445.922,1.766,1.766,0,0,0,1.109.32,1.635,1.635,0,0,0,.98-.246A.766.766,0,0,0,32.629,12.664Zm6.352-8.2V6.547h1.445V8.2H38.98v4.219a1.007,1.007,0,0,0,.18.672.9.9,0,0,0,.688.2,3.6,3.6,0,0,0,.664-.055v1.711a4.648,4.648,0,0,1-1.367.2,2.156,2.156,0,0,1-2.422-2.4V8.2H35.488V6.547h1.234V4.469ZM44.066,15H41.8V6.547h2.266Zm-2.4-10.641a1.112,1.112,0,0,1,.34-.836,1.465,1.465,0,0,1,1.848,0,1.105,1.105,0,0,1,.344.836,1.108,1.108,0,0,1-.348.844,1.448,1.448,0,0,1-1.836,0A1.108,1.108,0,0,1,41.668,4.359ZM45.574,10.7a5.013,5.013,0,0,1,.484-2.242A3.546,3.546,0,0,1,47.453,6.93a4.069,4.069,0,0,1,2.113-.539,3.849,3.849,0,0,1,2.793,1.047,4.2,4.2,0,0,1,1.207,2.844l.016.578A4.418,4.418,0,0,1,52.5,13.98a4.209,4.209,0,0,1-5.832,0,4.5,4.5,0,0,1-1.09-3.187Zm2.258.16a3.16,3.16,0,0,0,.453,1.843,1.628,1.628,0,0,0,2.578.008,3.457,3.457,0,0,0,.461-2.015,3.128,3.128,0,0,0-.461-1.831,1.5,1.5,0,0,0-1.3-.649,1.474,1.474,0,0,0-1.281.646A3.516,3.516,0,0,0,47.832,10.856ZM50.012,3h2.461L50.309,5.422H48.473Zm7.039,3.547.07.977a2.951,2.951,0,0,1,2.43-1.133,2.453,2.453,0,0,1,2,.789,3.682,3.682,0,0,1,.672,2.359V15H59.965V9.594a1.465,1.465,0,0,0-.312-1.043,1.4,1.4,0,0,0-1.039-.324,1.553,1.553,0,0,0-1.43.813V15H54.926V6.547Zm10.516,4.164a5.094,5.094,0,0,1,.887-3.148,2.877,2.877,0,0,1,2.426-1.172,2.589,2.589,0,0,1,2.039.922V3h2.266V15H73.145l-.109-.9a2.657,2.657,0,0,1-2.172,1.055,2.869,2.869,0,0,1-2.395-1.176A5.258,5.258,0,0,1,67.566,10.711Zm2.258.168a3.337,3.337,0,0,0,.414,1.823,1.349,1.349,0,0,0,1.2.634,1.511,1.511,0,0,0,1.477-.884V9.111a1.489,1.489,0,0,0-1.461-.884Q69.824,8.227,69.824,10.879Zm11,4.277A4.15,4.15,0,0,1,77.8,14.016a4.054,4.054,0,0,1-1.168-3.039v-.219a5.106,5.106,0,0,1,.492-2.277,3.612,3.612,0,0,1,1.395-1.547,3.914,3.914,0,0,1,2.059-.543A3.508,3.508,0,0,1,83.3,7.484a4.444,4.444,0,0,1,1,3.1v.922H78.918a2.1,2.1,0,0,0,.66,1.328,2,2,0,0,0,1.395.5,2.437,2.437,0,0,0,2.039-.945l1.109,1.242a3.389,3.389,0,0,1-1.375,1.121A4.511,4.511,0,0,1,80.824,15.156Zm-.258-6.945a1.411,1.411,0,0,0-1.09.455,2.357,2.357,0,0,0-.535,1.3h3.141V9.788a1.681,1.681,0,0,0-.406-1.165A1.456,1.456,0,0,0,80.566,8.211Zm12.891,6.945a4.15,4.15,0,0,1-3.027-1.141,4.054,4.054,0,0,1-1.168-3.039v-.219a5.106,5.106,0,0,1,.492-2.277,3.612,3.612,0,0,1,1.395-1.547,3.914,3.914,0,0,1,2.059-.543,3.508,3.508,0,0,1,2.73,1.094,4.444,4.444,0,0,1,1,3.1v.922H91.551a2.1,2.1,0,0,0,.66,1.328,2,2,0,0,0,1.395.5,2.437,2.437,0,0,0,2.039-.945l1.109,1.242a3.389,3.389,0,0,1-1.375,1.121A4.511,4.511,0,0,1,93.457,15.156ZM93.2,8.211a1.411,1.411,0,0,0-1.09.455,2.357,2.357,0,0,0-.535,1.3h3.141V9.788a1.681,1.681,0,0,0-.406-1.165A1.456,1.456,0,0,0,93.2,8.211ZM97.863,10.7a5.053,5.053,0,0,1,.887-3.148,2.9,2.9,0,0,1,2.434-1.156,2.6,2.6,0,0,1,2.164,1.039l.148-.883h1.984v11.7h-2.266V14.273a2.6,2.6,0,0,1-2.047.883,2.878,2.878,0,0,1-2.406-1.172A5.3,5.3,0,0,1,97.863,10.7Zm2.258.16a3.315,3.315,0,0,0,.426,1.847,1.363,1.363,0,0,0,1.2.634,1.518,1.518,0,0,0,1.469-.829v-3.5a1.506,1.506,0,0,0-1.453-.8,1.38,1.38,0,0,0-1.211.634A3.661,3.661,0,0,0,100.121,10.856Zm12.2,3.285A2.831,2.831,0,0,1,110,15.156a2.67,2.67,0,0,1-2.074-.781,3.335,3.335,0,0,1-.73-2.289V6.547h2.258v5.467q0,1.322,1.2,1.322a1.63,1.63,0,0,0,1.578-.8V6.547H114.5V15h-2.125ZM118.59,15h-2.266V6.547h2.266Zm-2.4-10.641a1.112,1.112,0,0,1,.34-.836,1.465,1.465,0,0,1,1.848,0,1.105,1.105,0,0,1,.344.836,1.108,1.108,0,0,1-.348.844,1.448,1.448,0,0,1-1.836,0A1.108,1.108,0,0,1,116.191,4.359Zm11.867,6.492a5.07,5.07,0,0,1-.887,3.129,2.843,2.843,0,0,1-2.395,1.176,2.633,2.633,0,0,1-2.07-.891V18.25h-2.258V6.547h2.094l.078.828a2.654,2.654,0,0,1,2.141-.984,2.862,2.862,0,0,1,2.43,1.156,5.207,5.207,0,0,1,.867,3.188Zm-2.258-.164a3.327,3.327,0,0,0-.418-1.82,1.361,1.361,0,0,0-1.215-.641,1.478,1.478,0,0,0-1.461.813V12.5a1.5,1.5,0,0,0,1.477.836Q125.8,13.336,125.8,10.688Zm3.3.008a5.013,5.013,0,0,1,.484-2.242,3.546,3.546,0,0,1,1.395-1.523,4.069,4.069,0,0,1,2.113-.539,3.849,3.849,0,0,1,2.793,1.047,4.2,4.2,0,0,1,1.207,2.844l.016.578a4.418,4.418,0,0,1-1.086,3.121,4.209,4.209,0,0,1-5.832,0,4.5,4.5,0,0,1-1.09-3.187Zm2.258.16a3.16,3.16,0,0,0,.453,1.843,1.628,1.628,0,0,0,2.578.008,3.457,3.457,0,0,0,.461-2.015,3.128,3.128,0,0,0-.461-1.831,1.5,1.5,0,0,0-1.3-.649,1.474,1.474,0,0,0-1.281.646A3.516,3.516,0,0,0,131.363,10.856Zm11.719,1.808a.727.727,0,0,0-.41-.652,4.659,4.659,0,0,0-1.316-.426q-3.016-.633-3.016-2.562a2.323,2.323,0,0,1,.934-1.879,3.766,3.766,0,0,1,2.441-.754,4.053,4.053,0,0,1,2.574.758,2.388,2.388,0,0,1,.965,1.969H143a1.092,1.092,0,0,0-.312-.8A1.322,1.322,0,0,0,141.707,8a1.351,1.351,0,0,0-.883.258.814.814,0,0,0-.312.656.7.7,0,0,0,.355.605,3.657,3.657,0,0,0,1.2.4,9.8,9.8,0,0,1,1.422.379,2.336,2.336,0,0,1,1.789,2.273,2.205,2.205,0,0,1-.992,1.871,4.28,4.28,0,0,1-2.562.715,4.47,4.47,0,0,1-1.887-.379,3.166,3.166,0,0,1-1.293-1.039,2.414,2.414,0,0,1-.469-1.426h2.141a1.179,1.179,0,0,0,.445.922,1.766,1.766,0,0,0,1.109.32,1.635,1.635,0,0,0,.98-.246A.766.766,0,0,0,143.082,12.664ZM153.1,15h-2.266V6.547H153.1ZM150.7,4.359a1.112,1.112,0,0,1,.34-.836,1.465,1.465,0,0,1,1.848,0,1.105,1.105,0,0,1,.344.836,1.109,1.109,0,0,1-.348.844,1.448,1.448,0,0,1-1.836,0A1.109,1.109,0,0,1,150.7,4.359Zm6.336,2.188.07.977a2.951,2.951,0,0,1,2.43-1.133,2.453,2.453,0,0,1,2,.789,3.682,3.682,0,0,1,.672,2.359V15h-2.258V9.594a1.465,1.465,0,0,0-.312-1.043,1.4,1.4,0,0,0-1.039-.324,1.553,1.553,0,0,0-1.43.813V15H154.91V6.547Zm7.5,8.453V8.2h-1.258V6.547h1.258V5.828a2.918,2.918,0,0,1,.816-2.207,3.162,3.162,0,0,1,2.285-.785,5.278,5.278,0,0,1,1.148.156l-.023,1.75a2.878,2.878,0,0,0-.687-.07q-1.273,0-1.273,1.2v.68h1.68V8.2H166.8V15Zm4.766-4.3a5.013,5.013,0,0,1,.484-2.242A3.546,3.546,0,0,1,171.18,6.93a4.069,4.069,0,0,1,2.113-.539,3.849,3.849,0,0,1,2.793,1.047,4.2,4.2,0,0,1,1.207,2.844l.016.578a4.418,4.418,0,0,1-1.086,3.121,4.209,4.209,0,0,1-5.832,0A4.5,4.5,0,0,1,169.3,10.8Zm2.258.16a3.16,3.16,0,0,0,.453,1.843,1.628,1.628,0,0,0,2.578.008,3.457,3.457,0,0,0,.461-2.015,3.128,3.128,0,0,0-.461-1.831,1.5,1.5,0,0,0-1.3-.649,1.474,1.474,0,0,0-1.281.646A3.516,3.516,0,0,0,171.559,10.856Zm11.891-2.192a6.134,6.134,0,0,0-.812-.062,1.654,1.654,0,0,0-1.68.867V15H178.7V6.547h2.133l.063,1.008a2.092,2.092,0,0,1,1.883-1.164,2.366,2.366,0,0,1,.7.1Zm3.2-2.117.07.945a2.971,2.971,0,0,1,2.43-1.1,2.255,2.255,0,0,1,2.242,1.289,2.9,2.9,0,0,1,2.539-1.289,2.521,2.521,0,0,1,2.047.8,3.681,3.681,0,0,1,.672,2.41V15h-2.266V9.609a1.61,1.61,0,0,0-.281-1.051,1.246,1.246,0,0,0-.992-.332,1.409,1.409,0,0,0-1.406.969l.008,5.8h-2.258V9.617a1.59,1.59,0,0,0-.289-1.062,1.259,1.259,0,0,0-.984-.328,1.463,1.463,0,0,0-1.391.8V15h-2.258V6.547ZM203.285,15a2.507,2.507,0,0,1-.227-.758,2.732,2.732,0,0,1-2.133.914,3,3,0,0,1-2.059-.719,2.312,2.312,0,0,1-.816-1.812,2.389,2.389,0,0,1,1-2.062,4.915,4.915,0,0,1,2.879-.727h1.039V9.352a1.393,1.393,0,0,0-.3-.937,1.183,1.183,0,0,0-.949-.352,1.345,1.345,0,0,0-.895.273.929.929,0,0,0-.324.75h-2.258a2.268,2.268,0,0,1,.453-1.359,3,3,0,0,1,1.281-.98,4.669,4.669,0,0,1,1.859-.355,3.689,3.689,0,0,1,2.48.785,2.747,2.747,0,0,1,.918,2.207v3.664a4.041,4.041,0,0,0,.336,1.82V15Zm-1.867-1.57a1.945,1.945,0,0,0,.922-.223,1.462,1.462,0,0,0,.625-.6V11.156h-.844q-1.7,0-1.8,1.172l-.008.133a.9.9,0,0,0,.3.7A1.153,1.153,0,0,0,201.418,13.43ZM202.277,3h2.461l-2.164,2.422h-1.836Zm7.391,1.469V6.547h1.445V8.2h-1.445v4.219a1.007,1.007,0,0,0,.18.672.9.9,0,0,0,.688.2,3.6,3.6,0,0,0,.664-.055v1.711a4.648,4.648,0,0,1-1.367.2,2.156,2.156,0,0,1-2.422-2.4V8.2h-1.234V6.547h1.234V4.469ZM214.754,15h-2.266V6.547h2.266Zm-2.4-10.641a1.112,1.112,0,0,1,.34-.836,1.465,1.465,0,0,1,1.848,0,1.105,1.105,0,0,1,.344.836,1.109,1.109,0,0,1-.348.844,1.448,1.448,0,0,1-1.836,0A1.109,1.109,0,0,1,212.355,4.359Zm7.773,8.977a1.481,1.481,0,0,0,1.016-.344,1.2,1.2,0,0,0,.406-.914h2.117a2.9,2.9,0,0,1-.469,1.574,3.093,3.093,0,0,1-1.262,1.109,3.949,3.949,0,0,1-1.77.395A3.67,3.67,0,0,1,217.309,14a4.56,4.56,0,0,1-1.047-3.184v-.148A4.508,4.508,0,0,1,217.3,7.555a3.627,3.627,0,0,1,2.852-1.164,3.555,3.555,0,0,1,2.543.9,3.2,3.2,0,0,1,.973,2.4h-2.117a1.551,1.551,0,0,0-.406-1.072,1.51,1.51,0,0,0-2.223.163,3.333,3.333,0,0,0-.4,1.866v.235a3.375,3.375,0,0,0,.4,1.878A1.377,1.377,0,0,0,220.129,13.336Zm4.477-2.641a5.013,5.013,0,0,1,.484-2.242,3.546,3.546,0,0,1,1.395-1.523,4.069,4.069,0,0,1,2.113-.539,3.849,3.849,0,0,1,2.793,1.047,4.2,4.2,0,0,1,1.207,2.844l.016.578a4.418,4.418,0,0,1-1.086,3.121,4.209,4.209,0,0,1-5.832,0,4.5,4.5,0,0,1-1.09-3.187Zm2.258.16a3.16,3.16,0,0,0,.453,1.843,1.628,1.628,0,0,0,2.578.008,3.457,3.457,0,0,0,.461-2.015,3.128,3.128,0,0,0-.461-1.831,1.5,1.5,0,0,0-1.3-.649,1.474,1.474,0,0,0-1.281.646A3.516,3.516,0,0,0,226.863,10.856Zm11.719,1.808a.727.727,0,0,0-.41-.652,4.659,4.659,0,0,0-1.316-.426q-3.016-.633-3.016-2.562a2.323,2.323,0,0,1,.934-1.879,3.766,3.766,0,0,1,2.441-.754,4.053,4.053,0,0,1,2.574.758,2.388,2.388,0,0,1,.965,1.969H238.5a1.092,1.092,0,0,0-.312-.8A1.322,1.322,0,0,0,237.207,8a1.351,1.351,0,0,0-.883.258.814.814,0,0,0-.312.656.7.7,0,0,0,.355.605,3.657,3.657,0,0,0,1.2.4,9.8,9.8,0,0,1,1.422.379,2.336,2.336,0,0,1,1.789,2.273,2.205,2.205,0,0,1-.992,1.871,4.28,4.28,0,0,1-2.562.715,4.47,4.47,0,0,1-1.887-.379,3.166,3.166,0,0,1-1.293-1.039,2.414,2.414,0,0,1-.469-1.426h2.141a1.179,1.179,0,0,0,.445.922,1.766,1.766,0,0,0,1.109.32,1.635,1.635,0,0,0,.98-.246A.766.766,0,0,0,238.582,12.664Z" transform="translate(678.916 472)" fill="#fff"/>
    <path id="Trazado_749860" data-name="Trazado 749860" d="M0,0H24.012" transform="translate(439.005 575.712) rotate(90)" fill="none" stroke="#12263f" stroke-width="2"/>
    <path id="Trazado_765798" data-name="Trazado 765798" d="M0,0H24.012" transform="translate(1084.745 575.712) rotate(90)" fill="none" stroke="#12263f" stroke-width="2"/>
    <path id="Trazado_762470" data-name="Trazado 762470" d="M0,0H24.012" transform="translate(553.876 696.368) rotate(90)" fill="none" stroke="#12263f" stroke-width="2"/>
    <path id="Trazado_796741" data-name="Trazado 796741" d="M0,0H24.012" transform="translate(1235.001 696.368) rotate(90)" fill="none" stroke="#12263f" stroke-width="2"/>
    <path id="Trazado_796745" data-name="Trazado 796745" d="M0,0H24.012" transform="translate(1011.927 789.754) rotate(90)" fill="none" stroke="#12263f" stroke-width="2"/>
    <path id="Trazado_796749" data-name="Trazado 796749" d="M0,0H24.012" transform="translate(1349.42 789.933) rotate(90)" fill="none" stroke="#12263f" stroke-width="2"/>
    <path id="Trazado_762476" data-name="Trazado 762476" d="M0,0H24.012" transform="translate(352.493 696.368) rotate(90)" fill="none" stroke="#12263f" stroke-width="2"/>
    <path id="Trazado_796742" data-name="Trazado 796742" d="M0,0H24.012" transform="translate(933.167 696.402) rotate(90)" fill="none" stroke="#12263f" stroke-width="2"/>
    <path id="Trazado_796748" data-name="Trazado 796748" d="M0,0H24.012" transform="translate(1000 789.754) rotate(90)" fill="none" stroke="#12263f" stroke-width="2"/>
    <path id="Trazado_796750" data-name="Trazado 796750" d="M0,0H24.012" transform="translate(1197.493 789.933) rotate(90)" fill="none" stroke="#12263f" stroke-width="2"/>
    <path id="Trazado_751189" data-name="Trazado 751189" d="M0,0H201.035" transform="translate(553.528 697.368) rotate(180)" fill="none" stroke="#12263f" stroke-width="2"/>
    <path id="Trazado_796743" data-name="Trazado 796743" d="M0,0H300.508" transform="translate(1235 697.368) rotate(180)" fill="none" stroke="#12263f" stroke-width="2"/>
    <path id="Trazado_796746" data-name="Trazado 796746" d="M0,0H151.579" transform="translate(1011.579 790.754) rotate(180)" fill="none" stroke="#12263f" stroke-width="2"/>
    <path id="Trazado_796751" data-name="Trazado 796751" d="M0,0H151.579" transform="translate(1349.072 790.933) rotate(180)" fill="none" stroke="#12263f" stroke-width="2"/>
    <path id="Trazado_749445" data-name="Trazado 749445" d="M0,0H18.253" transform="translate(801.166 518.729) rotate(90)" fill="none" stroke="#12263f" stroke-width="2"/>
    <path id="Trazado_765769" data-name="Trazado 765769" d="M0,0H18.253" transform="translate(439.166 678.149) rotate(90)" fill="none" stroke="#12263f" stroke-width="2"/>
    <path id="Trazado_796744" data-name="Trazado 796744" d="M0,0H18.253" transform="translate(1084.913 678.149) rotate(90)" fill="none" stroke="#12263f" stroke-width="2"/>
    <path id="Trazado_796747" data-name="Trazado 796747" d="M0,0H18.253" transform="translate(933.166 771.535) rotate(90)" fill="none" stroke="#12263f" stroke-width="2"/>
    <path id="Trazado_796752" data-name="Trazado 796752" d="M0,0H18.253" transform="translate(1270.659 771.714) rotate(90)" fill="none" stroke="#12263f" stroke-width="2"/>
    <path id="Trazado_765767" data-name="Trazado 765767" d="M0,0H18.253" transform="translate(801.166 558.729) rotate(90)" fill="none" stroke="#12263f" stroke-width="2"/>
    <path id="Trazado_749859" data-name="Trazado 749859" d="M0,0,3.837,3.768,0,7.535H3.256L7.091,3.768,3.256,0Z" transform="translate(442.772 595.42) rotate(90)" fill="#12263f"/>
    <path id="Trazado_765797" data-name="Trazado 765797" d="M0,0,3.837,3.768,0,7.535H3.256L7.091,3.768,3.256,0Z" transform="translate(1088.513 595.42) rotate(90)" fill="#12263f"/>
    <g transform="matrix(1, 0, 0, 1, 279, 441)" filter="url(#Trazado_796775)">
      <g id="Trazado_796775-2" data-name="Trazado 796775" transform="translate(51.92 164.73)" fill="#5573c6">
        <path d="M 209.1885528564453 70.72945404052734 L 5.999998569488525 70.72945404052734 C 3.242998600006104 70.72945404052734 0.9999986290931702 68.4864501953125 0.9999986290931702 65.72945404052734 L 0.9999986290931702 6.000008583068848 C 0.9999986290931702 3.243008613586426 3.242998600006104 1.000008583068848 5.999998569488525 1.000008583068848 L 209.1885528564453 1.000008583068848 C 211.945556640625 1.000008583068848 214.1885528564453 3.243008613586426 214.1885528564453 6.000008583068848 L 214.1885528564453 65.72945404052734 C 214.1885528564453 68.4864501953125 211.945556640625 70.72945404052734 209.1885528564453 70.72945404052734 Z" stroke="none"/>
        <path d="M 5.999984741210938 1.999992370605469 C 3.794357299804688 1.999992370605469 1.999984741210938 3.794380187988281 1.999984741210938 5.999992370605469 L 1.999984741210938 65.72946929931641 C 1.999984741210938 67.93508148193359 3.794357299804688 69.72946929931641 5.999984741210938 69.72946929931641 L 209.1885375976562 69.72946929931641 C 211.3941650390625 69.72946929931641 213.1885375976562 67.93508148193359 213.1885375976562 65.72946929931641 L 213.1885375976562 5.999992370605469 C 213.1885375976562 3.794380187988281 211.3941650390625 1.999992370605469 209.1885375976562 1.999992370605469 L 5.999984741210938 1.999992370605469 M 5.999984741210938 -7.62939453125e-06 L 209.1885375976562 -7.62939453125e-06 C 212.5022430419922 -7.62939453125e-06 215.1885375976562 2.686286926269531 215.1885375976562 5.999992370605469 L 215.1885375976562 65.72946929931641 C 215.1885375976562 69.04317474365234 212.5022430419922 71.72946929931641 209.1885375976562 71.72946929931641 L 5.999984741210938 71.72946929931641 C 2.686279296875 71.72946929931641 -1.52587890625e-05 69.04317474365234 -1.52587890625e-05 65.72946929931641 L -1.52587890625e-05 5.999992370605469 C -1.52587890625e-05 2.686286926269531 2.686279296875 -7.62939453125e-06 5.999984741210938 -7.62939453125e-06 Z" stroke="none" fill="#fff"/>
      </g>
    </g>
    <path id="Trazado_796776" data-name="Trazado 796776" d="M48.7,3.336l3.486,8.7,3.486-8.7H57.5V14H56.09V9.847l.132-4.482L52.721,14H51.645L48.151,5.387l.139,4.46V14H46.884V3.336ZM64.66,14a2.846,2.846,0,0,1-.19-.835,3.023,3.023,0,0,1-2.256.981,2.8,2.8,0,0,1-1.923-.663A2.145,2.145,0,0,1,59.54,11.8a2.24,2.24,0,0,1,.941-1.923A4.437,4.437,0,0,1,63.129,9.2h1.318V8.573a1.522,1.522,0,0,0-.425-1.132A1.707,1.707,0,0,0,62.77,7.02a1.976,1.976,0,0,0-1.216.366,1.079,1.079,0,0,0-.491.886H59.7a1.87,1.87,0,0,1,.421-1.146,2.874,2.874,0,0,1,1.143-.875,3.844,3.844,0,0,1,1.586-.322A3.133,3.133,0,0,1,65,6.614,2.47,2.47,0,0,1,65.8,8.5v3.647a4.459,4.459,0,0,0,.278,1.736V14Zm-2.249-1.033a2.381,2.381,0,0,0,1.208-.33,1.994,1.994,0,0,0,.828-.857V10.155H63.385q-2.49,0-2.49,1.458a1.234,1.234,0,0,0,.425,1A1.633,1.633,0,0,0,62.411,12.967Zm7.354-8.811V6.075h1.479V7.123H69.765v4.921a1.1,1.1,0,0,0,.2.715.832.832,0,0,0,.674.238,3.281,3.281,0,0,0,.645-.088V14a3.951,3.951,0,0,1-1.04.146,1.687,1.687,0,0,1-1.37-.549,2.36,2.36,0,0,1-.461-1.56V7.123H66.967V6.075H68.41V4.156Zm6.35,9.99a3.463,3.463,0,0,1-2.622-1.058,3.928,3.928,0,0,1-1.011-2.831v-.249a4.756,4.756,0,0,1,.45-2.106,3.514,3.514,0,0,1,1.26-1.45,3.167,3.167,0,0,1,1.754-.524,2.968,2.968,0,0,1,2.4,1.018,4.408,4.408,0,0,1,.857,2.915v.564H73.837a2.817,2.817,0,0,0,.685,1.893,2.153,2.153,0,0,0,1.666.721,2.36,2.36,0,0,0,1.216-.293,3.055,3.055,0,0,0,.872-.776l.828.645A3.328,3.328,0,0,1,76.115,14.146Zm-.168-7.1a1.807,1.807,0,0,0-1.377.6,2.9,2.9,0,0,0-.688,1.674h3.97v-.1a2.581,2.581,0,0,0-.557-1.6A1.7,1.7,0,0,0,75.946,7.042Zm6.108-.967.044,1a2.888,2.888,0,0,1,2.373-1.143q2.512,0,2.534,2.834V14H85.651V8.756a1.824,1.824,0,0,0-.392-1.267,1.57,1.57,0,0,0-1.2-.41A1.956,1.956,0,0,0,82.9,7.43a2.387,2.387,0,0,0-.776.923V14H80.773V6.075ZM90.522,14H89.167V6.075h1.355ZM89.057,3.973a.809.809,0,0,1,.2-.557.756.756,0,0,1,.6-.227.768.768,0,0,1,.6.227.8.8,0,0,1,.205.557.774.774,0,0,1-.205.549.782.782,0,0,1-.6.22.77.77,0,0,1-.6-.22A.782.782,0,0,1,89.057,3.973Zm4.907,2.1L94,6.954a2.927,2.927,0,0,1,2.351-1.025A2.266,2.266,0,0,1,98.615,7.2a3,3,0,0,1,1.029-.923,3.039,3.039,0,0,1,1.5-.352q2.607,0,2.651,2.761V14h-1.355V8.771A1.82,1.82,0,0,0,102.05,7.5a1.71,1.71,0,0,0-1.3-.421,1.8,1.8,0,0,0-1.252.45,1.827,1.827,0,0,0-.579,1.212V14H97.553V8.807a1.512,1.512,0,0,0-1.692-1.729,1.813,1.813,0,0,0-1.824,1.135V14H92.682V6.075ZM107.309,14h-1.355V6.075h1.355ZM105.844,3.973a.809.809,0,0,1,.2-.557.756.756,0,0,1,.6-.227.768.768,0,0,1,.6.227.8.8,0,0,1,.205.557.774.774,0,0,1-.205.549.782.782,0,0,1-.6.22.77.77,0,0,1-.6-.22A.782.782,0,0,1,105.844,3.973Zm6.921,10.173a3.463,3.463,0,0,1-2.622-1.058,3.928,3.928,0,0,1-1.011-2.831v-.249a4.756,4.756,0,0,1,.45-2.106,3.514,3.514,0,0,1,1.26-1.45,3.167,3.167,0,0,1,1.754-.524A2.968,2.968,0,0,1,115,6.947a4.408,4.408,0,0,1,.857,2.915v.564h-5.369a2.817,2.817,0,0,0,.685,1.893,2.153,2.153,0,0,0,1.666.721,2.36,2.36,0,0,0,1.216-.293,3.055,3.055,0,0,0,.872-.776l.828.645A3.328,3.328,0,0,1,112.765,14.146Zm-.168-7.1a1.807,1.807,0,0,0-1.377.6,2.9,2.9,0,0,0-.688,1.674h3.97v-.1a2.581,2.581,0,0,0-.557-1.6A1.7,1.7,0,0,0,112.6,7.042Zm6.108-.967.044,1a2.888,2.888,0,0,1,2.373-1.143q2.512,0,2.534,2.834V14H122.3V8.756a1.824,1.824,0,0,0-.392-1.267,1.57,1.57,0,0,0-1.2-.41,1.956,1.956,0,0,0-1.157.352,2.387,2.387,0,0,0-.776.923V14h-1.355V6.075Zm8.833-1.919V6.075h1.479V7.123h-1.479v4.921a1.1,1.1,0,0,0,.2.715.832.832,0,0,0,.674.238,3.281,3.281,0,0,0,.645-.088V14a3.951,3.951,0,0,1-1.04.146,1.687,1.687,0,0,1-1.37-.549,2.36,2.36,0,0,1-.461-1.56V7.123H124.74V6.075h1.443V4.156Zm2.556,5.808a4.681,4.681,0,0,1,.458-2.095,3.415,3.415,0,0,1,1.274-1.436,3.469,3.469,0,0,1,1.864-.505,3.342,3.342,0,0,1,2.618,1.121,4.311,4.311,0,0,1,1,2.981v.1a4.722,4.722,0,0,1-.443,2.076,3.365,3.365,0,0,1-1.267,1.432,3.509,3.509,0,0,1-1.893.513,3.334,3.334,0,0,1-2.611-1.121,4.29,4.29,0,0,1-1-2.966Zm1.362.161a3.39,3.39,0,0,0,.612,2.117,2.072,2.072,0,0,0,3.278-.011,3.707,3.707,0,0,0,.608-2.267,3.384,3.384,0,0,0-.619-2.113,1.968,1.968,0,0,0-1.644-.809,1.946,1.946,0,0,0-1.619.8A3.68,3.68,0,0,0,131.457,10.125Z" transform="translate(346.458 630.729)" fill="#fff"/>
    <g transform="matrix(1, 0, 0, 1, 279, 441)" filter="url(#Trazado_796777)">
      <g id="Trazado_796777-2" data-name="Trazado 796777" transform="translate(698.15 164.73)" fill="#4adbd1">
        <path d="M 209.1885528564453 70.72945404052734 L 5.999998569488525 70.72945404052734 C 3.242998600006104 70.72945404052734 0.9999986290931702 68.4864501953125 0.9999986290931702 65.72945404052734 L 0.9999986290931702 6.000008583068848 C 0.9999986290931702 3.243008613586426 3.242998600006104 1.000008583068848 5.999998569488525 1.000008583068848 L 209.1885528564453 1.000008583068848 C 211.945556640625 1.000008583068848 214.1885528564453 3.243008613586426 214.1885528564453 6.000008583068848 L 214.1885528564453 65.72945404052734 C 214.1885528564453 68.4864501953125 211.945556640625 70.72945404052734 209.1885528564453 70.72945404052734 Z" stroke="none"/>
        <path d="M 5.999984741210938 1.999992370605469 C 3.794357299804688 1.999992370605469 1.999984741210938 3.794380187988281 1.999984741210938 5.999992370605469 L 1.999984741210938 65.72946929931641 C 1.999984741210938 67.93508148193359 3.794357299804688 69.72946929931641 5.999984741210938 69.72946929931641 L 209.1885375976562 69.72946929931641 C 211.3941650390625 69.72946929931641 213.1885375976562 67.93508148193359 213.1885375976562 65.72946929931641 L 213.1885375976562 5.999992370605469 C 213.1885375976562 3.794380187988281 211.3941650390625 1.999992370605469 209.1885375976562 1.999992370605469 L 5.999984741210938 1.999992370605469 M 5.999984741210938 -7.62939453125e-06 L 209.1885375976562 -7.62939453125e-06 C 212.5022430419922 -7.62939453125e-06 215.1885375976562 2.686286926269531 215.1885375976562 5.999992370605469 L 215.1885375976562 65.72946929931641 C 215.1885375976562 69.04317474365234 212.5022430419922 71.72946929931641 209.1885375976562 71.72946929931641 L 5.999984741210938 71.72946929931641 C 2.686279296875 71.72946929931641 -1.52587890625e-05 69.04317474365234 -1.52587890625e-05 65.72946929931641 L -1.52587890625e-05 5.999992370605469 C -1.52587890625e-05 2.686286926269531 2.686279296875 -7.62939453125e-06 5.999984741210938 -7.62939453125e-06 Z" stroke="none" fill="#fff"/>
      </g>
    </g>
    <path id="Trazado_796778" data-name="Trazado 796778" d="M32.389,16H31.012l.857-4.929H26.662L25.8,16H24.428L26.281,5.336h1.377l-.8,4.585h5.2l.8-4.585h1.384Zm7.126,0a1.775,1.775,0,0,1-.051-.417l.022-.417a3.249,3.249,0,0,1-2.314.981,2.368,2.368,0,0,1-1.7-.663,2.006,2.006,0,0,1-.6-1.622,2.44,2.44,0,0,1,1.1-1.967,4.693,4.693,0,0,1,2.706-.707l1.384.007.088-.63a1.448,1.448,0,0,0-.275-1.124,1.326,1.326,0,0,0-1.044-.428,2.044,2.044,0,0,0-1.2.333,1.418,1.418,0,0,0-.641.919l-1.333.007A2.125,2.125,0,0,1,36.2,9.038,3.153,3.153,0,0,1,37.421,8.2a3.951,3.951,0,0,1,1.545-.282,2.627,2.627,0,0,1,1.926.751,2.328,2.328,0,0,1,.579,1.915l-.645,3.926-.037.564a2.765,2.765,0,0,0,.088.8L40.863,16Zm-2.08-1.025a2.312,2.312,0,0,0,1.2-.3,3.051,3.051,0,0,0,.978-.883l.286-1.633-1-.007a3.8,3.8,0,0,0-1.919.4,1.457,1.457,0,0,0-.754,1.121,1.135,1.135,0,0,0,.26.927A1.238,1.238,0,0,0,37.436,14.975ZM47.587,9.284l-.623-.066a2.268,2.268,0,0,0-2.007,1.15L43.984,16H42.658l1.377-7.925,1.282-.007-.2.923A2.369,2.369,0,0,1,47.1,7.914a2.432,2.432,0,0,1,.63.11Zm.447,2.739A6.166,6.166,0,0,1,48.7,9.84a3.779,3.779,0,0,1,1.282-1.458,2.931,2.931,0,0,1,1.677-.461,2.475,2.475,0,0,1,2.036.967l.762-4.138h1.326L53.835,16H52.626l.139-.85a2.921,2.921,0,0,1-2.314,1,2.189,2.189,0,0,1-1.75-.861,3.75,3.75,0,0,1-.7-2.23A7.123,7.123,0,0,1,48.034,12.023Zm1.274.757a2.746,2.746,0,0,0,.374,1.624A1.347,1.347,0,0,0,50.839,15a2.4,2.4,0,0,0,2.043-1.156l.63-3.658a1.644,1.644,0,0,0-1.6-1.112,2.009,2.009,0,0,0-1.381.472,3.052,3.052,0,0,0-.908,1.383A5.7,5.7,0,0,0,49.308,12.78Zm13.733,1.345,2.527-6.05h1.37L63.327,16H62.25l-.82-5.991L58.573,16H57.5L56.64,8.075h1.267l.483,5.9,2.813-5.9h1.069ZM71.786,16a1.775,1.775,0,0,1-.051-.417l.022-.417a3.249,3.249,0,0,1-2.314.981,2.368,2.368,0,0,1-1.7-.663,2.006,2.006,0,0,1-.6-1.622,2.44,2.44,0,0,1,1.1-1.967,4.693,4.693,0,0,1,2.706-.707l1.384.007.088-.63a1.448,1.448,0,0,0-.275-1.124,1.326,1.326,0,0,0-1.044-.428,2.044,2.044,0,0,0-1.2.333,1.418,1.418,0,0,0-.641.919l-1.333.007a2.125,2.125,0,0,1,.542-1.234A3.153,3.153,0,0,1,69.692,8.2a3.951,3.951,0,0,1,1.545-.282,2.627,2.627,0,0,1,1.926.751,2.328,2.328,0,0,1,.579,1.915L73.1,14.513l-.037.564a2.765,2.765,0,0,0,.088.8L73.134,16Zm-2.08-1.025a2.312,2.312,0,0,0,1.2-.3,3.051,3.051,0,0,0,.978-.883l.286-1.633-1-.007a3.8,3.8,0,0,0-1.919.4,1.457,1.457,0,0,0-.754,1.121,1.135,1.135,0,0,0,.26.927A1.238,1.238,0,0,0,69.706,14.975ZM79.858,9.284l-.623-.066a2.268,2.268,0,0,0-2.007,1.15L76.254,16H74.928l1.377-7.925,1.282-.007-.2.923a2.369,2.369,0,0,1,1.985-1.077,2.432,2.432,0,0,1,.63.11Zm3.494,6.863a2.857,2.857,0,0,1-2.314-1.091,3.756,3.756,0,0,1-.7-2.717l.037-.315a5.273,5.273,0,0,1,.7-2.153,4.068,4.068,0,0,1,1.4-1.469,3.273,3.273,0,0,1,1.787-.472,2.52,2.52,0,0,1,1.919.813,3.343,3.343,0,0,1,.762,2.124,6.207,6.207,0,0,1-.029.952l-.081.608H81.652a2.677,2.677,0,0,0,.355,1.831,1.683,1.683,0,0,0,1.454.784,2.819,2.819,0,0,0,2.168-1.055l.762.645a3.486,3.486,0,0,1-1.285,1.124A3.643,3.643,0,0,1,83.351,16.146Zm.842-7.112a1.937,1.937,0,0,0-1.432.557,3.956,3.956,0,0,0-.97,1.721l3.853.007.029-.117a2.168,2.168,0,0,0-.3-1.534A1.4,1.4,0,0,0,84.194,9.035Zm10.576,4.98,1.846-5.94h1.45L94.88,17.223Q94.14,19.2,92.528,19.2l-.256-.022-.505-.1v-1.1l.366.029a1.8,1.8,0,0,0,1.073-.278,2.014,2.014,0,0,0,.634-1.018l.3-.806L91.313,8.075h1.479Zm12.327-.161q.11-.82-.9-1.157l-1.377-.4q-1.743-.6-1.685-1.992a2.195,2.195,0,0,1,.956-1.718,3.4,3.4,0,0,1,2.128-.656,2.838,2.838,0,0,1,1.952.7,2.216,2.216,0,0,1,.721,1.783l-1.318-.007a1.237,1.237,0,0,0-.374-.967,1.478,1.478,0,0,0-1.033-.388,1.93,1.93,0,0,0-1.187.337,1.234,1.234,0,0,0-.535.864q-.1.688.842,1l.667.183a4.291,4.291,0,0,1,1.934.916,1.748,1.748,0,0,1,.527,1.4,2.222,2.222,0,0,1-.483,1.289,2.764,2.764,0,0,1-1.172.839,3.919,3.919,0,0,1-1.56.267,3.092,3.092,0,0,1-2.08-.736,2.275,2.275,0,0,1-.791-1.857l1.326.007a1.4,1.4,0,0,0,.425,1.069,1.624,1.624,0,0,0,1.165.4,2.284,2.284,0,0,0,1.252-.3A1.169,1.169,0,0,0,107.1,13.854Zm7.068-5.925a2.856,2.856,0,0,1,1.707.542,3.08,3.08,0,0,1,1.051,1.454,4.5,4.5,0,0,1,.231,2.025l-.015.161a5.33,5.33,0,0,1-.688,2.091,4.04,4.04,0,0,1-1.421,1.454,3.465,3.465,0,0,1-1.912.491,2.861,2.861,0,0,1-1.7-.542,3.01,3.01,0,0,1-1.044-1.436,4.623,4.623,0,0,1-.234-2,5.4,5.4,0,0,1,.667-2.212,4.134,4.134,0,0,1,1.432-1.52A3.424,3.424,0,0,1,114.164,7.929Zm-2.7,4.248a4.5,4.5,0,0,0,0,.959,2.35,2.35,0,0,0,.516,1.377,1.55,1.55,0,0,0,1.183.535,2.112,2.112,0,0,0,1.216-.326,2.736,2.736,0,0,0,.938-1.051,4.426,4.426,0,0,0,.491-1.56,7.026,7.026,0,0,0,.022-1.135,2.439,2.439,0,0,0-.535-1.4,1.585,1.585,0,0,0-1.187-.542,2.16,2.16,0,0,0-1.743.806,3.98,3.98,0,0,0-.886,2.168ZM118.778,16l1.2-6.877h-1.223l.183-1.047h1.216l.132-.937a3.111,3.111,0,0,1,.923-1.868,2.744,2.744,0,0,1,1.963-.688,4.579,4.579,0,0,1,.945.125l-.161,1.112a4.347,4.347,0,0,0-.71-.088,1.513,1.513,0,0,0-1.117.427,1.944,1.944,0,0,0-.531,1.135l-.117.781h1.641l-.183,1.047H121.3L120.1,16Zm7.983-9.844-.337,1.919h1.443l-.183,1.047h-1.436l-.828,4.929a1.719,1.719,0,0,0-.007.352.559.559,0,0,0,.623.571,3.8,3.8,0,0,0,.645-.073l-.1,1.106a3.606,3.606,0,0,1-.967.132,1.384,1.384,0,0,1-1.187-.582,2.252,2.252,0,0,1-.308-1.527l.806-4.907h-1.4l.183-1.047h1.4l.337-1.919Zm8.437,7.969,2.527-6.05h1.37L135.485,16h-1.077l-.82-5.991L130.732,16h-1.077L128.8,8.075h1.267l.483,5.9,2.813-5.9h1.069ZM143.945,16a1.775,1.775,0,0,1-.051-.417l.022-.417a3.249,3.249,0,0,1-2.314.981,2.368,2.368,0,0,1-1.7-.663,2.006,2.006,0,0,1-.6-1.622,2.44,2.44,0,0,1,1.1-1.967,4.693,4.693,0,0,1,2.706-.707l1.384.007.088-.63a1.448,1.448,0,0,0-.275-1.124,1.326,1.326,0,0,0-1.044-.428,2.044,2.044,0,0,0-1.2.333,1.418,1.418,0,0,0-.641.919l-1.333.007a2.125,2.125,0,0,1,.542-1.234A3.153,3.153,0,0,1,141.85,8.2a3.951,3.951,0,0,1,1.545-.282,2.627,2.627,0,0,1,1.926.751,2.328,2.328,0,0,1,.579,1.915l-.645,3.926-.037.564a2.765,2.765,0,0,0,.088.8l-.015.125Zm-2.08-1.025a2.312,2.312,0,0,0,1.2-.3,3.051,3.051,0,0,0,.978-.883l.286-1.633-1-.007a3.8,3.8,0,0,0-1.919.4,1.457,1.457,0,0,0-.754,1.121,1.135,1.135,0,0,0,.26.927A1.238,1.238,0,0,0,141.864,14.975Zm10.151-5.691-.623-.066a2.268,2.268,0,0,0-2.007,1.15L148.412,16h-1.326l1.377-7.925,1.282-.007-.2.923a2.369,2.369,0,0,1,1.985-1.077,2.432,2.432,0,0,1,.63.11Zm3.494,6.863a2.857,2.857,0,0,1-2.314-1.091,3.756,3.756,0,0,1-.7-2.717l.037-.315a5.273,5.273,0,0,1,.7-2.153,4.068,4.068,0,0,1,1.4-1.469,3.273,3.273,0,0,1,1.787-.472,2.52,2.52,0,0,1,1.919.813,3.343,3.343,0,0,1,.762,2.124,6.207,6.207,0,0,1-.029.952l-.081.608H153.81a2.677,2.677,0,0,0,.355,1.831,1.683,1.683,0,0,0,1.454.784,2.819,2.819,0,0,0,2.168-1.055l.762.645a3.486,3.486,0,0,1-1.285,1.124A3.643,3.643,0,0,1,155.509,16.146Zm.842-7.112a1.937,1.937,0,0,0-1.432.557,3.956,3.956,0,0,0-.97,1.721l3.853.007.029-.117a2.168,2.168,0,0,0-.3-1.534A1.4,1.4,0,0,0,156.352,9.035Z" transform="translate(992.692 629.729)" fill="#12263f"/>
    <path id="Trazado_749856" data-name="Trazado 749856" d="M0,0H645.393" transform="translate(1084.913 576.982) rotate(180)" fill="none" stroke="#12263f" stroke-width="2"/>
    <path id="Trazado_796779" data-name="Trazado 796779" d="M-19-4.133a5.062,5.062,0,0,1-.883,3.109A2.829,2.829,0,0,1-22.277.156,3.1,3.1,0,0,1-24.7-.82V3.25h-1.445v-11.7h1.32l.07.938A2.977,2.977,0,0,1-22.3-8.609a2.882,2.882,0,0,1,2.41,1.148A5.117,5.117,0,0,1-19-4.266ZM-20.449-4.3a3.735,3.735,0,0,0-.609-2.258,1.963,1.963,0,0,0-1.672-.828A2.125,2.125,0,0,0-24.7-6.219V-2.18a2.129,2.129,0,0,0,1.984,1.156,1.954,1.954,0,0,0,1.652-.824A4.077,4.077,0,0,0-20.449-4.3ZM-13.66.156a3.693,3.693,0,0,1-2.8-1.129,4.19,4.19,0,0,1-1.078-3.02v-.266a5.073,5.073,0,0,1,.48-2.246,3.748,3.748,0,0,1,1.344-1.547,3.378,3.378,0,0,1,1.871-.559,3.166,3.166,0,0,1,2.563,1.086,4.7,4.7,0,0,1,.914,3.109v.6H-16.09a3,3,0,0,0,.73,2.02,2.3,2.3,0,0,0,1.777.77,2.517,2.517,0,0,0,1.3-.312,3.259,3.259,0,0,0,.93-.828l.883.688A3.55,3.55,0,0,1-13.66.156Zm-.18-7.578a1.928,1.928,0,0,0-1.469.637A3.1,3.1,0,0,0-16.043-5h4.234v-.109A2.753,2.753,0,0,0-12.4-6.816,1.815,1.815,0,0,0-13.84-7.422Zm9.234.266a4.331,4.331,0,0,0-.711-.055A1.9,1.9,0,0,0-7.246-6V0H-8.691V-8.453h1.406l.023.977A2.251,2.251,0,0,1-5.246-8.609a1.477,1.477,0,0,1,.641.109Zm2.688-1.3.039.938A3.122,3.122,0,0,1,.629-8.609,2.417,2.417,0,0,1,3.043-7.25a3.2,3.2,0,0,1,1.1-.984,3.242,3.242,0,0,1,1.6-.375q2.781,0,2.828,2.945V0H7.121V-5.578a1.941,1.941,0,0,0-.414-1.355,1.823,1.823,0,0,0-1.391-.449A1.916,1.916,0,0,0,3.98-6.9a1.949,1.949,0,0,0-.617,1.293V0H1.91V-5.539a1.613,1.613,0,0,0-1.8-1.844A1.934,1.934,0,0,0-1.84-6.172V0H-3.285V-8.453ZM12.316,0H10.871V-8.453h1.445ZM10.754-10.7a.863.863,0,0,1,.215-.594.807.807,0,0,1,.637-.242.819.819,0,0,1,.641.242.854.854,0,0,1,.219.594.826.826,0,0,1-.219.586.834.834,0,0,1-.641.234.821.821,0,0,1-.637-.234A.834.834,0,0,1,10.754-10.7Zm5.836.2v2.047h1.578v1.117H16.59v5.249a1.173,1.173,0,0,0,.211.763.888.888,0,0,0,.719.254,3.5,3.5,0,0,0,.688-.094V0A4.215,4.215,0,0,1,17.1.156,1.8,1.8,0,0,1,15.637-.43a2.517,2.517,0,0,1-.492-1.664V-7.336H13.605V-8.453h1.539V-10.5ZM23.363.156a3.693,3.693,0,0,1-2.8-1.129,4.19,4.19,0,0,1-1.078-3.02v-.266a5.073,5.073,0,0,1,.48-2.246,3.748,3.748,0,0,1,1.344-1.547,3.378,3.378,0,0,1,1.871-.559,3.166,3.166,0,0,1,2.563,1.086,4.7,4.7,0,0,1,.914,3.109v.6H20.934a3,3,0,0,0,.73,2.02,2.3,2.3,0,0,0,1.777.77,2.517,2.517,0,0,0,1.3-.312,3.259,3.259,0,0,0,.93-.828l.883.688A3.55,3.55,0,0,1,23.363.156Zm-.18-7.578a1.928,1.928,0,0,0-1.469.637A3.1,3.1,0,0,0,20.98-5h4.234v-.109a2.753,2.753,0,0,0-.594-1.707A1.815,1.815,0,0,0,23.184-7.422Z" transform="translate(800 553.982)" fill="#12263f"/>
    <g transform="matrix(1, 0, 0, 1, 279, 441)" filter="url(#Trazado_796780)">
      <g id="Trazado_796780-2" data-name="Trazado 796780" transform="translate(6 274.81)" fill="#e8e8e8">
        <path d="M 128.9873046875 54.7294921875 L 5.999997615814209 54.7294921875 C 3.242979526519775 54.7294921875 0.9999977946281433 52.48651123046875 0.9999977946281433 49.7294921875 L 0.9999977946281433 6.000000476837158 C 0.9999977946281433 3.242982387542725 3.242979526519775 1.000000596046448 5.999997615814209 1.000000596046448 L 128.9873046875 1.000000596046448 C 131.7443237304688 1.000000596046448 133.9873046875 3.242982387542725 133.9873046875 6.000000476837158 L 133.9873046875 49.7294921875 C 133.9873046875 52.48651123046875 131.7443237304688 54.7294921875 128.9873046875 54.7294921875 Z" stroke="none"/>
        <path d="M 5.999984741210938 2.000007629394531 C 3.794387817382812 2.000007629394531 1.999984741210938 3.794406890869141 1.999984741210938 6.000007629394531 L 1.999984741210938 49.72948455810547 C 1.999984741210938 51.93508529663086 3.794387817382812 53.72948455810547 5.999984741210938 53.72948455810547 L 128.9872894287109 53.72948455810547 C 131.1928863525391 53.72948455810547 132.9872894287109 51.93508529663086 132.9872894287109 49.72948455810547 L 132.9872894287109 6.000007629394531 C 132.9872894287109 3.794406890869141 131.1928863525391 2.000007629394531 128.9872894287109 2.000007629394531 L 5.999984741210938 2.000007629394531 M 5.999984741210938 7.62939453125e-06 L 128.9872894287109 7.62939453125e-06 C 132.3010101318359 7.62939453125e-06 134.9872894287109 2.686286926269531 134.9872894287109 6.000007629394531 L 134.9872894287109 49.72948455810547 C 134.9872894287109 53.04320526123047 132.3010101318359 55.72948455810547 128.9872894287109 55.72948455810547 L 5.999984741210938 55.72948455810547 C 2.686294555664062 55.72948455810547 -1.52587890625e-05 53.04320526123047 -1.52587890625e-05 49.72948455810547 L -1.52587890625e-05 6.000007629394531 C -1.52587890625e-05 2.686286926269531 2.686294555664062 7.62939453125e-06 5.999984741210938 7.62939453125e-06 Z" stroke="none" fill="#fff"/>
      </g>
    </g>
    <g transform="matrix(1, 0, 0, 1, 279, 441)" filter="url(#Trazado_796781)">
      <g id="Trazado_796781-2" data-name="Trazado 796781" transform="translate(588 274.81)" fill="#e8e8e8">
        <path d="M 128.9873046875 54.7294921875 L 5.999997615814209 54.7294921875 C 3.242979526519775 54.7294921875 0.9999977946281433 52.48651123046875 0.9999977946281433 49.7294921875 L 0.9999977946281433 6.000000476837158 C 0.9999977946281433 3.242982387542725 3.242979526519775 1.000000596046448 5.999997615814209 1.000000596046448 L 128.9873046875 1.000000596046448 C 131.7443237304688 1.000000596046448 133.9873046875 3.242982387542725 133.9873046875 6.000000476837158 L 133.9873046875 49.7294921875 C 133.9873046875 52.48651123046875 131.7443237304688 54.7294921875 128.9873046875 54.7294921875 Z" stroke="none"/>
        <path d="M 5.999984741210938 2.000007629394531 C 3.794387817382812 2.000007629394531 1.999984741210938 3.794406890869141 1.999984741210938 6.000007629394531 L 1.999984741210938 49.72948455810547 C 1.999984741210938 51.93508529663086 3.794387817382812 53.72948455810547 5.999984741210938 53.72948455810547 L 128.9872894287109 53.72948455810547 C 131.1928863525391 53.72948455810547 132.9872894287109 51.93508529663086 132.9872894287109 49.72948455810547 L 132.9872894287109 6.000007629394531 C 132.9872894287109 3.794406890869141 131.1928863525391 2.000007629394531 128.9872894287109 2.000007629394531 L 5.999984741210938 2.000007629394531 M 5.999984741210938 7.62939453125e-06 L 128.9872894287109 7.62939453125e-06 C 132.3010101318359 7.62939453125e-06 134.9872894287109 2.686286926269531 134.9872894287109 6.000007629394531 L 134.9872894287109 49.72948455810547 C 134.9872894287109 53.04320526123047 132.3010101318359 55.72948455810547 128.9872894287109 55.72948455810547 L 5.999984741210938 55.72948455810547 C 2.686294555664062 55.72948455810547 -1.52587890625e-05 53.04320526123047 -1.52587890625e-05 49.72948455810547 L -1.52587890625e-05 6.000007629394531 C -1.52587890625e-05 2.686286926269531 2.686294555664062 7.62939453125e-06 5.999984741210938 7.62939453125e-06 Z" stroke="none" fill="#fff"/>
      </g>
    </g>
    <g transform="matrix(1, 0, 0, 1, 279, 441)" filter="url(#Trazado_796782)">
      <g id="Trazado_796782-2" data-name="Trazado 796782" transform="translate(513.51 372.77)" fill="#e8e8e8">
        <path d="M 128.9873046875 54.7294921875 L 5.999997615814209 54.7294921875 C 3.242979526519775 54.7294921875 0.9999977946281433 52.48651123046875 0.9999977946281433 49.7294921875 L 0.9999977946281433 6.000000476837158 C 0.9999977946281433 3.242982387542725 3.242979526519775 1.000000596046448 5.999997615814209 1.000000596046448 L 128.9873046875 1.000000596046448 C 131.7443237304688 1.000000596046448 133.9873046875 3.242982387542725 133.9873046875 6.000000476837158 L 133.9873046875 49.7294921875 C 133.9873046875 52.48651123046875 131.7443237304688 54.7294921875 128.9873046875 54.7294921875 Z" stroke="none"/>
        <path d="M 5.999984741210938 2.000007629394531 C 3.794387817382812 2.000007629394531 1.999984741210938 3.794406890869141 1.999984741210938 6.000007629394531 L 1.999984741210938 49.72948455810547 C 1.999984741210938 51.93508529663086 3.794387817382812 53.72948455810547 5.999984741210938 53.72948455810547 L 128.9872894287109 53.72948455810547 C 131.1928863525391 53.72948455810547 132.9872894287109 51.93508529663086 132.9872894287109 49.72948455810547 L 132.9872894287109 6.000007629394531 C 132.9872894287109 3.794406890869141 131.1928863525391 2.000007629394531 128.9872894287109 2.000007629394531 L 5.999984741210938 2.000007629394531 M 5.999984741210938 7.62939453125e-06 L 128.9872894287109 7.62939453125e-06 C 132.3010101318359 7.62939453125e-06 134.9872894287109 2.686286926269531 134.9872894287109 6.000007629394531 L 134.9872894287109 49.72948455810547 C 134.9872894287109 53.04320526123047 132.3010101318359 55.72948455810547 128.9872894287109 55.72948455810547 L 5.999984741210938 55.72948455810547 C 2.686294555664062 55.72948455810547 -1.52587890625e-05 53.04320526123047 -1.52587890625e-05 49.72948455810547 L -1.52587890625e-05 6.000007629394531 C -1.52587890625e-05 2.686286926269531 2.686294555664062 7.62939453125e-06 5.999984741210938 7.62939453125e-06 Z" stroke="none" fill="#fff"/>
      </g>
    </g>
    <g transform="matrix(1, 0, 0, 1, 279, 441)" filter="url(#Trazado_796783)">
      <g id="Trazado_796783-2" data-name="Trazado 796783" transform="translate(851 372.94)" fill="#e8e8e8">
        <path d="M 128.9873046875 54.7294921875 L 5.999997615814209 54.7294921875 C 3.242979526519775 54.7294921875 0.9999977946281433 52.48651123046875 0.9999977946281433 49.7294921875 L 0.9999977946281433 6.000000476837158 C 0.9999977946281433 3.242982387542725 3.242979526519775 1.000000596046448 5.999997615814209 1.000000596046448 L 128.9873046875 1.000000596046448 C 131.7443237304688 1.000000596046448 133.9873046875 3.242982387542725 133.9873046875 6.000000476837158 L 133.9873046875 49.7294921875 C 133.9873046875 52.48651123046875 131.7443237304688 54.7294921875 128.9873046875 54.7294921875 Z" stroke="none"/>
        <path d="M 5.999984741210938 2.000007629394531 C 3.794387817382812 2.000007629394531 1.999984741210938 3.794406890869141 1.999984741210938 6.000007629394531 L 1.999984741210938 49.72948455810547 C 1.999984741210938 51.93508529663086 3.794387817382812 53.72948455810547 5.999984741210938 53.72948455810547 L 128.9872894287109 53.72948455810547 C 131.1928863525391 53.72948455810547 132.9872894287109 51.93508529663086 132.9872894287109 49.72948455810547 L 132.9872894287109 6.000007629394531 C 132.9872894287109 3.794406890869141 131.1928863525391 2.000007629394531 128.9872894287109 2.000007629394531 L 5.999984741210938 2.000007629394531 M 5.999984741210938 7.62939453125e-06 L 128.9872894287109 7.62939453125e-06 C 132.3010101318359 7.62939453125e-06 134.9872894287109 2.686286926269531 134.9872894287109 6.000007629394531 L 134.9872894287109 49.72948455810547 C 134.9872894287109 53.04320526123047 132.3010101318359 55.72948455810547 128.9872894287109 55.72948455810547 L 5.999984741210938 55.72948455810547 C 2.686294555664062 55.72948455810547 -1.52587890625e-05 53.04320526123047 -1.52587890625e-05 49.72948455810547 L -1.52587890625e-05 6.000007629394531 C -1.52587890625e-05 2.686286926269531 2.686294555664062 7.62939453125e-06 5.999984741210938 7.62939453125e-06 Z" stroke="none" fill="#fff"/>
      </g>
    </g>
    <g transform="matrix(1, 0, 0, 1, 279, 441)" filter="url(#Trazado_796784)">
      <g id="Trazado_796784-2" data-name="Trazado 796784" transform="translate(665.08 372.77)" fill="#e8e8e8">
        <path d="M 128.9873046875 54.7294921875 L 5.999997615814209 54.7294921875 C 3.242979526519775 54.7294921875 0.9999977946281433 52.48651123046875 0.9999977946281433 49.7294921875 L 0.9999977946281433 6.000000476837158 C 0.9999977946281433 3.242982387542725 3.242979526519775 1.000000596046448 5.999997615814209 1.000000596046448 L 128.9873046875 1.000000596046448 C 131.7443237304688 1.000000596046448 133.9873046875 3.242982387542725 133.9873046875 6.000000476837158 L 133.9873046875 49.7294921875 C 133.9873046875 52.48651123046875 131.7443237304688 54.7294921875 128.9873046875 54.7294921875 Z" stroke="none"/>
        <path d="M 5.999984741210938 2.000007629394531 C 3.794387817382812 2.000007629394531 1.999984741210938 3.794406890869141 1.999984741210938 6.000007629394531 L 1.999984741210938 49.72948455810547 C 1.999984741210938 51.93508529663086 3.794387817382812 53.72948455810547 5.999984741210938 53.72948455810547 L 128.9872894287109 53.72948455810547 C 131.1928863525391 53.72948455810547 132.9872894287109 51.93508529663086 132.9872894287109 49.72948455810547 L 132.9872894287109 6.000007629394531 C 132.9872894287109 3.794406890869141 131.1928863525391 2.000007629394531 128.9872894287109 2.000007629394531 L 5.999984741210938 2.000007629394531 M 5.999984741210938 7.62939453125e-06 L 128.9872894287109 7.62939453125e-06 C 132.3010101318359 7.62939453125e-06 134.9872894287109 2.686286926269531 134.9872894287109 6.000007629394531 L 134.9872894287109 49.72948455810547 C 134.9872894287109 53.04320526123047 132.3010101318359 55.72948455810547 128.9872894287109 55.72948455810547 L 5.999984741210938 55.72948455810547 C 2.686294555664062 55.72948455810547 -1.52587890625e-05 53.04320526123047 -1.52587890625e-05 49.72948455810547 L -1.52587890625e-05 6.000007629394531 C -1.52587890625e-05 2.686286926269531 2.686294555664062 7.62939453125e-06 5.999984741210938 7.62939453125e-06 Z" stroke="none" fill="#fff"/>
      </g>
    </g>
    <g transform="matrix(1, 0, 0, 1, 279, 441)" filter="url(#Trazado_796785)">
      <g id="Trazado_796785-2" data-name="Trazado 796785" transform="translate(1002.58 372.94)" fill="#e8e8e8">
        <path d="M 128.9873046875 54.7294921875 L 5.999997615814209 54.7294921875 C 3.242979526519775 54.7294921875 0.9999977946281433 52.48651123046875 0.9999977946281433 49.7294921875 L 0.9999977946281433 6.000000476837158 C 0.9999977946281433 3.242982387542725 3.242979526519775 1.000000596046448 5.999997615814209 1.000000596046448 L 128.9873046875 1.000000596046448 C 131.7443237304688 1.000000596046448 133.9873046875 3.242982387542725 133.9873046875 6.000000476837158 L 133.9873046875 49.7294921875 C 133.9873046875 52.48651123046875 131.7443237304688 54.7294921875 128.9873046875 54.7294921875 Z" stroke="none"/>
        <path d="M 5.999984741210938 2.000007629394531 C 3.794387817382812 2.000007629394531 1.999984741210938 3.794406890869141 1.999984741210938 6.000007629394531 L 1.999984741210938 49.72948455810547 C 1.999984741210938 51.93508529663086 3.794387817382812 53.72948455810547 5.999984741210938 53.72948455810547 L 128.9872894287109 53.72948455810547 C 131.1928863525391 53.72948455810547 132.9872894287109 51.93508529663086 132.9872894287109 49.72948455810547 L 132.9872894287109 6.000007629394531 C 132.9872894287109 3.794406890869141 131.1928863525391 2.000007629394531 128.9872894287109 2.000007629394531 L 5.999984741210938 2.000007629394531 M 5.999984741210938 7.62939453125e-06 L 128.9872894287109 7.62939453125e-06 C 132.3010101318359 7.62939453125e-06 134.9872894287109 2.686286926269531 134.9872894287109 6.000007629394531 L 134.9872894287109 49.72948455810547 C 134.9872894287109 53.04320526123047 132.3010101318359 55.72948455810547 128.9872894287109 55.72948455810547 L 5.999984741210938 55.72948455810547 C 2.686294555664062 55.72948455810547 -1.52587890625e-05 53.04320526123047 -1.52587890625e-05 49.72948455810547 L -1.52587890625e-05 6.000007629394531 C -1.52587890625e-05 2.686286926269531 2.686294555664062 7.62939453125e-06 5.999984741210938 7.62939453125e-06 Z" stroke="none" fill="#fff"/>
      </g>
    </g>
    <g transform="matrix(1, 0, 0, 1, 279, 441)" filter="url(#Trazado_796786)">
      <g id="Trazado_796786-2" data-name="Trazado 796786" transform="translate(210 274.81)" fill="#e8e8e8">
        <path d="M 128.9873046875 54.7294921875 L 5.999997615814209 54.7294921875 C 3.242979526519775 54.7294921875 0.9999977946281433 52.48651123046875 0.9999977946281433 49.7294921875 L 0.9999977946281433 6.000000476837158 C 0.9999977946281433 3.242982387542725 3.242979526519775 1.000000596046448 5.999997615814209 1.000000596046448 L 128.9873046875 1.000000596046448 C 131.7443237304688 1.000000596046448 133.9873046875 3.242982387542725 133.9873046875 6.000000476837158 L 133.9873046875 49.7294921875 C 133.9873046875 52.48651123046875 131.7443237304688 54.7294921875 128.9873046875 54.7294921875 Z" stroke="none"/>
        <path d="M 5.999984741210938 2.000007629394531 C 3.794387817382812 2.000007629394531 1.999984741210938 3.794406890869141 1.999984741210938 6.000007629394531 L 1.999984741210938 49.72948455810547 C 1.999984741210938 51.93508529663086 3.794387817382812 53.72948455810547 5.999984741210938 53.72948455810547 L 128.9872894287109 53.72948455810547 C 131.1928863525391 53.72948455810547 132.9872894287109 51.93508529663086 132.9872894287109 49.72948455810547 L 132.9872894287109 6.000007629394531 C 132.9872894287109 3.794406890869141 131.1928863525391 2.000007629394531 128.9872894287109 2.000007629394531 L 5.999984741210938 2.000007629394531 M 5.999984741210938 7.62939453125e-06 L 128.9872894287109 7.62939453125e-06 C 132.3010101318359 7.62939453125e-06 134.9872894287109 2.686286926269531 134.9872894287109 6.000007629394531 L 134.9872894287109 49.72948455810547 C 134.9872894287109 53.04320526123047 132.3010101318359 55.72948455810547 128.9872894287109 55.72948455810547 L 5.999984741210938 55.72948455810547 C 2.686294555664062 55.72948455810547 -1.52587890625e-05 53.04320526123047 -1.52587890625e-05 49.72948455810547 L -1.52587890625e-05 6.000007629394531 C -1.52587890625e-05 2.686286926269531 2.686294555664062 7.62939453125e-06 5.999984741210938 7.62939453125e-06 Z" stroke="none" fill="#fff"/>
      </g>
    </g>
    <g transform="matrix(1, 0, 0, 1, 279, 441)" filter="url(#Trazado_796787)">
      <g id="Trazado_796787-2" data-name="Trazado 796787" transform="translate(895 274.81)" fill="#e8e8e8">
        <path d="M 128.9873046875 54.7294921875 L 5.999997615814209 54.7294921875 C 3.242979526519775 54.7294921875 0.9999977946281433 52.48651123046875 0.9999977946281433 49.7294921875 L 0.9999977946281433 6.000000476837158 C 0.9999977946281433 3.242982387542725 3.242979526519775 1.000000596046448 5.999997615814209 1.000000596046448 L 128.9873046875 1.000000596046448 C 131.7443237304688 1.000000596046448 133.9873046875 3.242982387542725 133.9873046875 6.000000476837158 L 133.9873046875 49.7294921875 C 133.9873046875 52.48651123046875 131.7443237304688 54.7294921875 128.9873046875 54.7294921875 Z" stroke="none"/>
        <path d="M 5.999984741210938 2.000007629394531 C 3.794387817382812 2.000007629394531 1.999984741210938 3.794406890869141 1.999984741210938 6.000007629394531 L 1.999984741210938 49.72948455810547 C 1.999984741210938 51.93508529663086 3.794387817382812 53.72948455810547 5.999984741210938 53.72948455810547 L 128.9872894287109 53.72948455810547 C 131.1928863525391 53.72948455810547 132.9872894287109 51.93508529663086 132.9872894287109 49.72948455810547 L 132.9872894287109 6.000007629394531 C 132.9872894287109 3.794406890869141 131.1928863525391 2.000007629394531 128.9872894287109 2.000007629394531 L 5.999984741210938 2.000007629394531 M 5.999984741210938 7.62939453125e-06 L 128.9872894287109 7.62939453125e-06 C 132.3010101318359 7.62939453125e-06 134.9872894287109 2.686286926269531 134.9872894287109 6.000007629394531 L 134.9872894287109 49.72948455810547 C 134.9872894287109 53.04320526123047 132.3010101318359 55.72948455810547 128.9872894287109 55.72948455810547 L 5.999984741210938 55.72948455810547 C 2.686294555664062 55.72948455810547 -1.52587890625e-05 53.04320526123047 -1.52587890625e-05 49.72948455810547 L -1.52587890625e-05 6.000007629394531 C -1.52587890625e-05 2.686286926269531 2.686294555664062 7.62939453125e-06 5.999984741210938 7.62939453125e-06 Z" stroke="none" fill="#fff"/>
      </g>
    </g>
    <path id="Trazado_796788" data-name="Trazado 796788" d="M15.729,9.825V14H14.322V3.336h3.933A3.952,3.952,0,0,1,21,4.229,3.029,3.029,0,0,1,21.991,6.6a2.989,2.989,0,0,1-.97,2.391,4.128,4.128,0,0,1-2.78.839Zm0-1.15h2.527a2.526,2.526,0,0,0,1.729-.532,1.945,1.945,0,0,0,.6-1.537,2.009,2.009,0,0,0-.6-1.526,2.367,2.367,0,0,0-1.648-.594H15.729ZM27.4,7.291a4.061,4.061,0,0,0-.667-.051,1.786,1.786,0,0,0-1.809,1.135V14H23.573V6.075h1.318l.022.916A2.11,2.11,0,0,1,26.8,5.929a1.384,1.384,0,0,1,.6.1ZM31.8,14.146a3.463,3.463,0,0,1-2.622-1.058,3.928,3.928,0,0,1-1.011-2.831v-.249a4.756,4.756,0,0,1,.45-2.106,3.514,3.514,0,0,1,1.26-1.45,3.167,3.167,0,0,1,1.754-.524,2.968,2.968,0,0,1,2.4,1.018,4.408,4.408,0,0,1,.857,2.915v.564H29.52a2.817,2.817,0,0,0,.685,1.893,2.153,2.153,0,0,0,1.666.721,2.36,2.36,0,0,0,1.216-.293,3.055,3.055,0,0,0,.872-.776l.828.645A3.328,3.328,0,0,1,31.8,14.146Zm-.168-7.1a1.807,1.807,0,0,0-1.377.6,2.9,2.9,0,0,0-.688,1.674h3.97v-.1a2.581,2.581,0,0,0-.557-1.6A1.7,1.7,0,0,0,31.63,7.042Zm7.346,5.12,1.963-6.086h1.384L39.481,14H38.448L35.577,6.075h1.384Zm7.844,1.985A3.463,3.463,0,0,1,44.2,13.088a3.928,3.928,0,0,1-1.011-2.831v-.249a4.756,4.756,0,0,1,.45-2.106,3.514,3.514,0,0,1,1.26-1.45,3.167,3.167,0,0,1,1.754-.524,2.968,2.968,0,0,1,2.4,1.018,4.408,4.408,0,0,1,.857,2.915v.564H44.542a2.817,2.817,0,0,0,.685,1.893,2.153,2.153,0,0,0,1.666.721,2.36,2.36,0,0,0,1.216-.293,3.055,3.055,0,0,0,.872-.776l.828.645A3.328,3.328,0,0,1,46.82,14.146Zm-.168-7.1a1.807,1.807,0,0,0-1.377.6,2.9,2.9,0,0,0-.688,1.674h3.97v-.1A2.581,2.581,0,0,0,48,7.61,1.7,1.7,0,0,0,46.652,7.042Zm6.108-.967.044,1a2.888,2.888,0,0,1,2.373-1.143q2.512,0,2.534,2.834V14H56.356V8.756a1.824,1.824,0,0,0-.392-1.267,1.57,1.57,0,0,0-1.2-.41,1.956,1.956,0,0,0-1.157.352,2.387,2.387,0,0,0-.776.923V14H51.478V6.075Zm8.833-1.919V6.075h1.479V7.123H61.593v4.921a1.1,1.1,0,0,0,.2.715.832.832,0,0,0,.674.238,3.281,3.281,0,0,0,.645-.088V14a3.951,3.951,0,0,1-1.04.146A1.687,1.687,0,0,1,60.7,13.6a2.36,2.36,0,0,1-.461-1.56V7.123H58.8V6.075h1.443V4.156ZM66.127,14H64.772V6.075h1.355ZM64.662,3.973a.809.809,0,0,1,.2-.557.756.756,0,0,1,.6-.227.768.768,0,0,1,.6.227.8.8,0,0,1,.205.557.774.774,0,0,1-.205.549.782.782,0,0,1-.6.22.77.77,0,0,1-.6-.22A.782.782,0,0,1,64.662,3.973Zm6.248,8.188,1.963-6.086h1.384L71.415,14H70.382L67.511,6.075H68.9Zm4.182-2.2a4.681,4.681,0,0,1,.458-2.095,3.415,3.415,0,0,1,1.274-1.436,3.469,3.469,0,0,1,1.864-.505,3.342,3.342,0,0,1,2.618,1.121,4.311,4.311,0,0,1,1,2.981v.1a4.722,4.722,0,0,1-.443,2.076A3.365,3.365,0,0,1,80.6,13.634a3.509,3.509,0,0,1-1.893.513,3.334,3.334,0,0,1-2.611-1.121,4.29,4.29,0,0,1-1-2.966Zm1.362.161a3.39,3.39,0,0,0,.612,2.117,2.072,2.072,0,0,0,3.278-.011,3.707,3.707,0,0,0,.608-2.267,3.384,3.384,0,0,0-.619-2.113,1.968,1.968,0,0,0-1.644-.809,1.946,1.946,0,0,0-1.619.8A3.68,3.68,0,0,0,76.454,10.125ZM88.619,11.9a1,1,0,0,0-.414-.853,3.983,3.983,0,0,0-1.443-.524,6.822,6.822,0,0,1-1.633-.527,2.324,2.324,0,0,1-.894-.732,1.752,1.752,0,0,1-.289-1.011A2.056,2.056,0,0,1,84.77,6.6a3.218,3.218,0,0,1,2.106-.674,3.311,3.311,0,0,1,2.186.7A2.21,2.21,0,0,1,89.9,8.4H88.539a1.223,1.223,0,0,0-.472-.959,1.77,1.77,0,0,0-1.19-.4,1.852,1.852,0,0,0-1.157.322,1.014,1.014,0,0,0-.417.842.822.822,0,0,0,.388.74,4.776,4.776,0,0,0,1.4.476,7.308,7.308,0,0,1,1.644.542,2.4,2.4,0,0,1,.934.758,1.864,1.864,0,0,1,.3,1.08,2.028,2.028,0,0,1-.85,1.7,3.564,3.564,0,0,1-2.2.641,3.991,3.991,0,0,1-1.685-.337,2.74,2.74,0,0,1-1.146-.941,2.268,2.268,0,0,1-.414-1.307H85.03a1.4,1.4,0,0,0,.546,1.08,2.117,2.117,0,0,0,1.344.4,2.185,2.185,0,0,0,1.234-.311A.956.956,0,0,0,88.619,11.9Z" transform="translate(300.493 732.805)" fill="#12263f"/>
    <path id="Trazado_796789" data-name="Trazado 796789" d="M22.313,3.336l3.486,8.7,3.486-8.7H31.11V14H29.7V9.847l.132-4.482L26.334,14H25.258L21.764,5.387l.139,4.46V14H20.5V3.336ZM38.273,14a2.846,2.846,0,0,1-.19-.835,3.023,3.023,0,0,1-2.256.981,2.8,2.8,0,0,1-1.923-.663,2.145,2.145,0,0,1-.751-1.681,2.24,2.24,0,0,1,.941-1.923A4.437,4.437,0,0,1,36.742,9.2H38.06V8.573a1.522,1.522,0,0,0-.425-1.132,1.707,1.707,0,0,0-1.252-.421,1.976,1.976,0,0,0-1.216.366,1.079,1.079,0,0,0-.491.886H33.314a1.87,1.87,0,0,1,.421-1.146,2.874,2.874,0,0,1,1.143-.875,3.844,3.844,0,0,1,1.586-.322,3.133,3.133,0,0,1,2.146.685A2.47,2.47,0,0,1,39.415,8.5v3.647a4.459,4.459,0,0,0,.278,1.736V14Zm-2.249-1.033a2.381,2.381,0,0,0,1.208-.33,1.994,1.994,0,0,0,.828-.857V10.155H37q-2.49,0-2.49,1.458a1.234,1.234,0,0,0,.425,1A1.633,1.633,0,0,0,36.024,12.967Zm6.8-6.892.044,1a2.888,2.888,0,0,1,2.373-1.143q2.512,0,2.534,2.834V14H46.417V8.756a1.824,1.824,0,0,0-.392-1.267,1.57,1.57,0,0,0-1.2-.41,1.956,1.956,0,0,0-1.157.352,2.387,2.387,0,0,0-.776.923V14H41.539V6.075Zm11.887,7.141a2.878,2.878,0,0,1-2.322.93,2.464,2.464,0,0,1-1.93-.736,3.186,3.186,0,0,1-.67-2.179V6.075h1.355v5.12q0,1.8,1.465,1.8a2.028,2.028,0,0,0,2.065-1.157V6.075h1.355V14H54.738ZM62.977,14a2.846,2.846,0,0,1-.19-.835,3.023,3.023,0,0,1-2.256.981,2.8,2.8,0,0,1-1.923-.663,2.145,2.145,0,0,1-.751-1.681A2.24,2.24,0,0,1,58.8,9.88,4.437,4.437,0,0,1,61.446,9.2h1.318V8.573a1.522,1.522,0,0,0-.425-1.132,1.707,1.707,0,0,0-1.252-.421,1.976,1.976,0,0,0-1.216.366,1.079,1.079,0,0,0-.491.886H58.019a1.87,1.87,0,0,1,.421-1.146,2.874,2.874,0,0,1,1.143-.875,3.844,3.844,0,0,1,1.586-.322,3.133,3.133,0,0,1,2.146.685A2.47,2.47,0,0,1,64.12,8.5v3.647a4.459,4.459,0,0,0,.278,1.736V14Zm-2.249-1.033a2.381,2.381,0,0,0,1.208-.33,1.994,1.994,0,0,0,.828-.857V10.155H61.7q-2.49,0-2.49,1.458a1.234,1.234,0,0,0,.425,1A1.633,1.633,0,0,0,60.729,12.967ZM67.716,14H66.361V2.75h1.355Zm5.457.146a3.463,3.463,0,0,1-2.622-1.058,3.928,3.928,0,0,1-1.011-2.831v-.249A4.756,4.756,0,0,1,69.99,7.9a3.514,3.514,0,0,1,1.26-1.45A3.167,3.167,0,0,1,73,5.929a2.968,2.968,0,0,1,2.4,1.018,4.408,4.408,0,0,1,.857,2.915v.564H70.895a2.817,2.817,0,0,0,.685,1.893,2.153,2.153,0,0,0,1.666.721,2.36,2.36,0,0,0,1.216-.293,3.055,3.055,0,0,0,.872-.776l.828.645A3.328,3.328,0,0,1,73.173,14.146ZM73,7.042a1.807,1.807,0,0,0-1.377.6,2.9,2.9,0,0,0-.688,1.674h3.97v-.1a2.581,2.581,0,0,0-.557-1.6A1.7,1.7,0,0,0,73,7.042ZM82.445,11.9a1,1,0,0,0-.414-.853,3.983,3.983,0,0,0-1.443-.524,6.822,6.822,0,0,1-1.633-.527,2.324,2.324,0,0,1-.894-.732,1.752,1.752,0,0,1-.289-1.011A2.056,2.056,0,0,1,78.6,6.6,3.218,3.218,0,0,1,80.7,5.929a3.311,3.311,0,0,1,2.186.7,2.21,2.21,0,0,1,.839,1.78H82.364a1.223,1.223,0,0,0-.472-.959,1.77,1.77,0,0,0-1.19-.4,1.852,1.852,0,0,0-1.157.322,1.014,1.014,0,0,0-.417.842.822.822,0,0,0,.388.74,4.776,4.776,0,0,0,1.4.476,7.308,7.308,0,0,1,1.644.542,2.4,2.4,0,0,1,.934.758,1.864,1.864,0,0,1,.3,1.08,2.028,2.028,0,0,1-.85,1.7,3.564,3.564,0,0,1-2.2.641,3.991,3.991,0,0,1-1.685-.337,2.74,2.74,0,0,1-1.146-.941,2.268,2.268,0,0,1-.414-1.307h1.355a1.4,1.4,0,0,0,.546,1.08,2.117,2.117,0,0,0,1.344.4,2.185,2.185,0,0,0,1.234-.311A.956.956,0,0,0,82.445,11.9Zm-56.06,9.258v1.919h1.479v1.047H26.385v4.921a1.1,1.1,0,0,0,.2.715.832.832,0,0,0,.674.238,3.281,3.281,0,0,0,.645-.088V31a3.951,3.951,0,0,1-1.04.146,1.687,1.687,0,0,1-1.37-.549,2.36,2.36,0,0,1-.461-1.56V24.123H23.588V23.075H25.03V21.156Zm6.35,9.99a3.463,3.463,0,0,1-2.622-1.058A3.928,3.928,0,0,1,29.1,27.257v-.249a4.756,4.756,0,0,1,.45-2.106,3.514,3.514,0,0,1,1.26-1.45,3.167,3.167,0,0,1,1.754-.524,2.968,2.968,0,0,1,2.4,1.018,4.408,4.408,0,0,1,.857,2.915v.564H30.458a2.817,2.817,0,0,0,.685,1.893,2.153,2.153,0,0,0,1.666.721,2.36,2.36,0,0,0,1.216-.293,3.055,3.055,0,0,0,.872-.776l.828.645A3.328,3.328,0,0,1,32.736,31.146Zm-.168-7.1a1.807,1.807,0,0,0-1.377.6,2.9,2.9,0,0,0-.688,1.674h3.97v-.1a2.581,2.581,0,0,0-.557-1.6A1.7,1.7,0,0,0,32.567,24.042Zm.659-4.292h1.641L32.9,21.9l-1.091,0Zm7.346,10.291A1.952,1.952,0,0,0,41.84,29.6a1.546,1.546,0,0,0,.6-1.1h1.282a2.457,2.457,0,0,1-.469,1.3,3.087,3.087,0,0,1-1.154.981,3.329,3.329,0,0,1-1.527.366A3.265,3.265,0,0,1,38,30.066a4.3,4.3,0,0,1-.956-2.955v-.227a4.771,4.771,0,0,1,.425-2.058,3.236,3.236,0,0,1,1.219-1.4,3.464,3.464,0,0,1,1.879-.5,3.178,3.178,0,0,1,2.216.8,2.853,2.853,0,0,1,.941,2.073H42.44a1.867,1.867,0,0,0-.582-1.263,1.811,1.811,0,0,0-1.293-.494,1.9,1.9,0,0,0-1.6.743,3.491,3.491,0,0,0-.568,2.15v.256a3.422,3.422,0,0,0,.564,2.109A1.906,1.906,0,0,0,40.572,30.041Zm5.955-6.965.044,1a2.888,2.888,0,0,1,2.373-1.143q2.512,0,2.534,2.834V31H50.123V25.756a1.824,1.824,0,0,0-.392-1.267,1.57,1.57,0,0,0-1.2-.41,1.956,1.956,0,0,0-1.157.352,2.387,2.387,0,0,0-.776.923V31H45.245V23.075ZM54.994,31H53.639V23.075h1.355ZM53.529,20.973a.809.809,0,0,1,.2-.557.756.756,0,0,1,.6-.227.768.768,0,0,1,.6.227.8.8,0,0,1,.205.557.774.774,0,0,1-.205.549.782.782,0,0,1-.6.22.77.77,0,0,1-.6-.22A.782.782,0,0,1,53.529,20.973Zm6.812,9.067a1.952,1.952,0,0,0,1.267-.439,1.546,1.546,0,0,0,.6-1.1H63.49a2.457,2.457,0,0,1-.469,1.3,3.087,3.087,0,0,1-1.154.981,3.329,3.329,0,0,1-1.527.366,3.265,3.265,0,0,1-2.574-1.08,4.3,4.3,0,0,1-.956-2.955v-.227a4.771,4.771,0,0,1,.425-2.058,3.236,3.236,0,0,1,1.219-1.4,3.464,3.464,0,0,1,1.879-.5,3.178,3.178,0,0,1,2.216.8A2.853,2.853,0,0,1,63.49,25.8H62.208a1.867,1.867,0,0,0-.582-1.263,1.811,1.811,0,0,0-1.293-.494,1.9,1.9,0,0,0-1.6.743,3.491,3.491,0,0,0-.568,2.15v.256a3.422,3.422,0,0,0,.564,2.109A1.906,1.906,0,0,0,60.341,30.041Zm4.314-3.076a4.681,4.681,0,0,1,.458-2.095,3.415,3.415,0,0,1,1.274-1.436,3.469,3.469,0,0,1,1.864-.505,3.342,3.342,0,0,1,2.618,1.121,4.311,4.311,0,0,1,1,2.981v.1a4.722,4.722,0,0,1-.443,2.076,3.365,3.365,0,0,1-1.267,1.432,3.509,3.509,0,0,1-1.893.513,3.334,3.334,0,0,1-2.611-1.121,4.29,4.29,0,0,1-1-2.966Zm1.362.161a3.39,3.39,0,0,0,.612,2.117,2.072,2.072,0,0,0,3.278-.011,3.707,3.707,0,0,0,.608-2.267,3.384,3.384,0,0,0-.619-2.113,1.968,1.968,0,0,0-1.644-.809,1.946,1.946,0,0,0-1.619.8A3.68,3.68,0,0,0,66.017,27.125ZM78.182,28.9a1,1,0,0,0-.414-.853,3.983,3.983,0,0,0-1.443-.524,6.822,6.822,0,0,1-1.633-.527,2.324,2.324,0,0,1-.894-.732,1.752,1.752,0,0,1-.289-1.011,2.056,2.056,0,0,1,.824-1.648,3.218,3.218,0,0,1,2.106-.674,3.311,3.311,0,0,1,2.186.7,2.21,2.21,0,0,1,.839,1.78H78.1a1.223,1.223,0,0,0-.472-.959,1.77,1.77,0,0,0-1.19-.4,1.852,1.852,0,0,0-1.157.322,1.014,1.014,0,0,0-.417.842.822.822,0,0,0,.388.74,4.776,4.776,0,0,0,1.4.476,7.308,7.308,0,0,1,1.644.542,2.4,2.4,0,0,1,.934.758,1.864,1.864,0,0,1,.3,1.08,2.028,2.028,0,0,1-.85,1.7,3.564,3.564,0,0,1-2.2.641A3.991,3.991,0,0,1,74.8,30.81a2.74,2.74,0,0,1-1.146-.941,2.268,2.268,0,0,1-.414-1.307h1.355a1.4,1.4,0,0,0,.546,1.08,2.117,2.117,0,0,0,1.344.4,2.185,2.185,0,0,0,1.234-.311A.956.956,0,0,0,78.182,28.9Z" transform="translate(882.493 726.805)" fill="#12263f"/>
    <path id="Trazado_796790" data-name="Trazado 796790" d="M12.049,9.071H7.427V12.85H12.8V14H6.021V3.336h6.7v1.15h-5.3V7.921h4.622Zm6.9,2.827a1,1,0,0,0-.414-.853,3.983,3.983,0,0,0-1.443-.524,6.822,6.822,0,0,1-1.633-.527,2.324,2.324,0,0,1-.894-.732,1.752,1.752,0,0,1-.289-1.011A2.056,2.056,0,0,1,15.1,6.6,3.218,3.218,0,0,1,17.2,5.929a3.311,3.311,0,0,1,2.186.7A2.21,2.21,0,0,1,20.23,8.4H18.867a1.223,1.223,0,0,0-.472-.959,1.77,1.77,0,0,0-1.19-.4,1.852,1.852,0,0,0-1.157.322,1.014,1.014,0,0,0-.417.842.822.822,0,0,0,.388.74,4.776,4.776,0,0,0,1.4.476,7.308,7.308,0,0,1,1.644.542,2.4,2.4,0,0,1,.934.758,1.864,1.864,0,0,1,.3,1.08,2.028,2.028,0,0,1-.85,1.7,3.564,3.564,0,0,1-2.2.641,3.991,3.991,0,0,1-1.685-.337,2.74,2.74,0,0,1-1.146-.941A2.268,2.268,0,0,1,14,11.561h1.355a1.4,1.4,0,0,0,.546,1.08,2.117,2.117,0,0,0,1.344.4,2.185,2.185,0,0,0,1.234-.311A.956.956,0,0,0,18.948,11.9Zm9.814-1.772a4.745,4.745,0,0,1-.828,2.915,2.653,2.653,0,0,1-2.241,1.106,2.906,2.906,0,0,1-2.271-.916v3.816H22.068V6.075h1.238l.066.879a2.791,2.791,0,0,1,2.3-1.025,2.7,2.7,0,0,1,2.26,1.077,4.8,4.8,0,0,1,.831,3Zm-1.355-.154a3.5,3.5,0,0,0-.571-2.117,1.84,1.84,0,0,0-1.567-.776A1.992,1.992,0,0,0,23.423,8.17v3.787a2,2,0,0,0,1.86,1.084,1.832,1.832,0,0,0,1.549-.773A3.822,3.822,0,0,0,27.407,9.972Zm6.365,4.175a3.463,3.463,0,0,1-2.622-1.058,3.928,3.928,0,0,1-1.011-2.831v-.249A4.756,4.756,0,0,1,30.59,7.9a3.514,3.514,0,0,1,1.26-1.45A3.167,3.167,0,0,1,33.6,5.929a2.968,2.968,0,0,1,2.4,1.018,4.408,4.408,0,0,1,.857,2.915v.564H31.494a2.817,2.817,0,0,0,.685,1.893,2.153,2.153,0,0,0,1.666.721,2.36,2.36,0,0,0,1.216-.293,3.055,3.055,0,0,0,.872-.776l.828.645A3.328,3.328,0,0,1,33.772,14.146Zm-.168-7.1a1.807,1.807,0,0,0-1.377.6,2.9,2.9,0,0,0-.688,1.674h3.97v-.1a2.581,2.581,0,0,0-.557-1.6A1.7,1.7,0,0,0,33.6,7.042Zm8.005,6a1.952,1.952,0,0,0,1.267-.439,1.546,1.546,0,0,0,.6-1.1h1.282a2.457,2.457,0,0,1-.469,1.3,3.087,3.087,0,0,1-1.154.981,3.329,3.329,0,0,1-1.527.366,3.265,3.265,0,0,1-2.574-1.08,4.3,4.3,0,0,1-.956-2.955V9.884A4.771,4.771,0,0,1,38.5,7.826a3.236,3.236,0,0,1,1.219-1.4,3.464,3.464,0,0,1,1.879-.5,3.178,3.178,0,0,1,2.216.8A2.853,2.853,0,0,1,44.759,8.8H43.477a1.867,1.867,0,0,0-.582-1.263A1.811,1.811,0,0,0,41.6,7.042a1.9,1.9,0,0,0-1.6.743,3.491,3.491,0,0,0-.568,2.15v.256A3.422,3.422,0,0,0,40,12.3,1.906,1.906,0,0,0,41.609,13.041ZM47.754,14H46.4V6.075h1.355ZM46.289,3.973a.809.809,0,0,1,.2-.557.756.756,0,0,1,.6-.227.768.768,0,0,1,.6.227.8.8,0,0,1,.205.557.774.774,0,0,1-.205.549.782.782,0,0,1-.6.22.77.77,0,0,1-.6-.22A.782.782,0,0,1,46.289,3.973ZM50.376,14V7.123H49.124V6.075h1.252V5.4a2.753,2.753,0,0,1,.758-2.065,2.94,2.94,0,0,1,2.142-.74,6.451,6.451,0,0,1,2.073.447l-.227,1.143a4.7,4.7,0,0,0-1.743-.366,1.705,1.705,0,0,0-1.256.392,1.615,1.615,0,0,0-.385,1.176v.688h1.619V7.123H51.739V14Zm5.647,0H54.661V6.075h1.362Zm5.383-.959a1.952,1.952,0,0,0,1.267-.439,1.546,1.546,0,0,0,.6-1.1h1.282a2.457,2.457,0,0,1-.469,1.3,3.087,3.087,0,0,1-1.154.981,3.329,3.329,0,0,1-1.527.366,3.265,3.265,0,0,1-2.574-1.08,4.3,4.3,0,0,1-.956-2.955V9.884A4.771,4.771,0,0,1,58.3,7.826a3.236,3.236,0,0,1,1.219-1.4,3.464,3.464,0,0,1,1.879-.5,3.178,3.178,0,0,1,2.216.8A2.853,2.853,0,0,1,64.556,8.8H63.274a1.867,1.867,0,0,0-.582-1.263A1.811,1.811,0,0,0,61.4,7.042a1.9,1.9,0,0,0-1.6.743,3.491,3.491,0,0,0-.568,2.15v.256A3.422,3.422,0,0,0,59.8,12.3,1.906,1.906,0,0,0,61.406,13.041ZM70.972,14a2.846,2.846,0,0,1-.19-.835,3.023,3.023,0,0,1-2.256.981,2.8,2.8,0,0,1-1.923-.663,2.145,2.145,0,0,1-.751-1.681,2.24,2.24,0,0,1,.941-1.923A4.437,4.437,0,0,1,69.441,9.2H70.76V8.573a1.522,1.522,0,0,0-.425-1.132,1.707,1.707,0,0,0-1.252-.421,1.976,1.976,0,0,0-1.216.366,1.079,1.079,0,0,0-.491.886H66.013a1.87,1.87,0,0,1,.421-1.146,2.874,2.874,0,0,1,1.143-.875,3.844,3.844,0,0,1,1.586-.322,3.133,3.133,0,0,1,2.146.685A2.47,2.47,0,0,1,72.115,8.5v3.647a4.459,4.459,0,0,0,.278,1.736V14Zm-2.249-1.033a2.381,2.381,0,0,0,1.208-.33,1.994,1.994,0,0,0,.828-.857V10.155H69.7q-2.49,0-2.49,1.458a1.234,1.234,0,0,0,.425,1A1.633,1.633,0,0,0,68.723,12.967Zm8.694.073a1.952,1.952,0,0,0,1.267-.439,1.546,1.546,0,0,0,.6-1.1h1.282a2.457,2.457,0,0,1-.469,1.3,3.087,3.087,0,0,1-1.154.981,3.329,3.329,0,0,1-1.527.366,3.265,3.265,0,0,1-2.574-1.08,4.3,4.3,0,0,1-.956-2.955V9.884a4.771,4.771,0,0,1,.425-2.058,3.236,3.236,0,0,1,1.219-1.4,3.464,3.464,0,0,1,1.879-.5,3.178,3.178,0,0,1,2.216.8A2.853,2.853,0,0,1,80.567,8.8H79.285A1.867,1.867,0,0,0,78.7,7.536a1.811,1.811,0,0,0-1.293-.494,1.9,1.9,0,0,0-1.6.743,3.491,3.491,0,0,0-.568,2.15v.256a3.422,3.422,0,0,0,.564,2.109A1.906,1.906,0,0,0,77.417,13.041ZM83.562,14H82.207V6.075h1.355ZM82.1,3.973a.809.809,0,0,1,.2-.557.756.756,0,0,1,.6-.227.768.768,0,0,1,.6.227.8.8,0,0,1,.205.557.774.774,0,0,1-.205.549.782.782,0,0,1-.6.22.77.77,0,0,1-.6-.22A.782.782,0,0,1,82.1,3.973Zm3.274,5.991a4.681,4.681,0,0,1,.458-2.095A3.415,3.415,0,0,1,87.1,6.434a3.469,3.469,0,0,1,1.864-.505,3.342,3.342,0,0,1,2.618,1.121,4.311,4.311,0,0,1,1,2.981v.1a4.722,4.722,0,0,1-.443,2.076,3.365,3.365,0,0,1-1.267,1.432,3.509,3.509,0,0,1-1.893.513,3.334,3.334,0,0,1-2.611-1.121,4.29,4.29,0,0,1-1-2.966Zm1.362.161a3.39,3.39,0,0,0,.612,2.117,2.072,2.072,0,0,0,3.278-.011,3.707,3.707,0,0,0,.608-2.267,3.384,3.384,0,0,0-.619-2.113,1.968,1.968,0,0,0-1.644-.809,1.946,1.946,0,0,0-1.619.8A3.68,3.68,0,0,0,86.734,10.125Zm8.833-4.05.044,1a2.888,2.888,0,0,1,2.373-1.143q2.512,0,2.534,2.834V14H99.163V8.756a1.824,1.824,0,0,0-.392-1.267,1.57,1.57,0,0,0-1.2-.41,1.956,1.956,0,0,0-1.157.352,2.387,2.387,0,0,0-.776.923V14H94.285V6.075Zm10.283,8.071a3.463,3.463,0,0,1-2.622-1.058,3.928,3.928,0,0,1-1.011-2.831v-.249a4.756,4.756,0,0,1,.45-2.106,3.514,3.514,0,0,1,1.26-1.45,3.167,3.167,0,0,1,1.754-.524,2.968,2.968,0,0,1,2.4,1.018,4.408,4.408,0,0,1,.857,2.915v.564h-5.369a2.817,2.817,0,0,0,.685,1.893,2.153,2.153,0,0,0,1.666.721,2.36,2.36,0,0,0,1.216-.293,3.055,3.055,0,0,0,.872-.776l.828.645A3.328,3.328,0,0,1,105.85,14.146Zm-.168-7.1a1.807,1.807,0,0,0-1.377.6,2.9,2.9,0,0,0-.688,1.674h3.97v-.1a2.581,2.581,0,0,0-.557-1.6A1.7,1.7,0,0,0,105.681,7.042Zm9.441,4.856a1,1,0,0,0-.414-.853,3.983,3.983,0,0,0-1.443-.524,6.822,6.822,0,0,1-1.633-.527,2.324,2.324,0,0,1-.894-.732,1.752,1.752,0,0,1-.289-1.011,2.056,2.056,0,0,1,.824-1.648,3.218,3.218,0,0,1,2.106-.674,3.311,3.311,0,0,1,2.186.7A2.21,2.21,0,0,1,116.4,8.4h-1.362a1.223,1.223,0,0,0-.472-.959,1.77,1.77,0,0,0-1.19-.4,1.852,1.852,0,0,0-1.157.322,1.014,1.014,0,0,0-.417.842.822.822,0,0,0,.388.74,4.776,4.776,0,0,0,1.4.476,7.308,7.308,0,0,1,1.644.542,2.4,2.4,0,0,1,.934.758,1.864,1.864,0,0,1,.3,1.08,2.028,2.028,0,0,1-.85,1.7,3.564,3.564,0,0,1-2.2.641,3.991,3.991,0,0,1-1.685-.337,2.74,2.74,0,0,1-1.146-.941,2.268,2.268,0,0,1-.414-1.307h1.355a1.4,1.4,0,0,0,.546,1.08,2.117,2.117,0,0,0,1.344.4,2.185,2.185,0,0,0,1.234-.311A.956.956,0,0,0,115.122,11.9Z" transform="translate(799 831.765)" fill="#12263f"/>
    <path id="Trazado_796791" data-name="Trazado 796791" d="M12.049,9.071H7.427V12.85H12.8V14H6.021V3.336h6.7v1.15h-5.3V7.921h4.622Zm6.9,2.827a1,1,0,0,0-.414-.853,3.983,3.983,0,0,0-1.443-.524,6.822,6.822,0,0,1-1.633-.527,2.324,2.324,0,0,1-.894-.732,1.752,1.752,0,0,1-.289-1.011A2.056,2.056,0,0,1,15.1,6.6,3.218,3.218,0,0,1,17.2,5.929a3.311,3.311,0,0,1,2.186.7A2.21,2.21,0,0,1,20.23,8.4H18.867a1.223,1.223,0,0,0-.472-.959,1.77,1.77,0,0,0-1.19-.4,1.852,1.852,0,0,0-1.157.322,1.014,1.014,0,0,0-.417.842.822.822,0,0,0,.388.74,4.776,4.776,0,0,0,1.4.476,7.308,7.308,0,0,1,1.644.542,2.4,2.4,0,0,1,.934.758,1.864,1.864,0,0,1,.3,1.08,2.028,2.028,0,0,1-.85,1.7,3.564,3.564,0,0,1-2.2.641,3.991,3.991,0,0,1-1.685-.337,2.74,2.74,0,0,1-1.146-.941A2.268,2.268,0,0,1,14,11.561h1.355a1.4,1.4,0,0,0,.546,1.08,2.117,2.117,0,0,0,1.344.4,2.185,2.185,0,0,0,1.234-.311A.956.956,0,0,0,18.948,11.9Zm9.814-1.772a4.745,4.745,0,0,1-.828,2.915,2.653,2.653,0,0,1-2.241,1.106,2.906,2.906,0,0,1-2.271-.916v3.816H22.068V6.075h1.238l.066.879a2.791,2.791,0,0,1,2.3-1.025,2.7,2.7,0,0,1,2.26,1.077,4.8,4.8,0,0,1,.831,3Zm-1.355-.154a3.5,3.5,0,0,0-.571-2.117,1.84,1.84,0,0,0-1.567-.776A1.992,1.992,0,0,0,23.423,8.17v3.787a2,2,0,0,0,1.86,1.084,1.832,1.832,0,0,0,1.549-.773A3.822,3.822,0,0,0,27.407,9.972Zm6.365,4.175a3.463,3.463,0,0,1-2.622-1.058,3.928,3.928,0,0,1-1.011-2.831v-.249A4.756,4.756,0,0,1,30.59,7.9a3.514,3.514,0,0,1,1.26-1.45A3.167,3.167,0,0,1,33.6,5.929a2.968,2.968,0,0,1,2.4,1.018,4.408,4.408,0,0,1,.857,2.915v.564H31.494a2.817,2.817,0,0,0,.685,1.893,2.153,2.153,0,0,0,1.666.721,2.36,2.36,0,0,0,1.216-.293,3.055,3.055,0,0,0,.872-.776l.828.645A3.328,3.328,0,0,1,33.772,14.146Zm-.168-7.1a1.807,1.807,0,0,0-1.377.6,2.9,2.9,0,0,0-.688,1.674h3.97v-.1a2.581,2.581,0,0,0-.557-1.6A1.7,1.7,0,0,0,33.6,7.042Zm8.005,6a1.952,1.952,0,0,0,1.267-.439,1.546,1.546,0,0,0,.6-1.1h1.282a2.457,2.457,0,0,1-.469,1.3,3.087,3.087,0,0,1-1.154.981,3.329,3.329,0,0,1-1.527.366,3.265,3.265,0,0,1-2.574-1.08,4.3,4.3,0,0,1-.956-2.955V9.884A4.771,4.771,0,0,1,38.5,7.826a3.236,3.236,0,0,1,1.219-1.4,3.464,3.464,0,0,1,1.879-.5,3.178,3.178,0,0,1,2.216.8A2.853,2.853,0,0,1,44.759,8.8H43.477a1.867,1.867,0,0,0-.582-1.263A1.811,1.811,0,0,0,41.6,7.042a1.9,1.9,0,0,0-1.6.743,3.491,3.491,0,0,0-.568,2.15v.256A3.422,3.422,0,0,0,40,12.3,1.906,1.906,0,0,0,41.609,13.041ZM47.754,14H46.4V6.075h1.355ZM46.289,3.973a.809.809,0,0,1,.2-.557.756.756,0,0,1,.6-.227.768.768,0,0,1,.6.227.8.8,0,0,1,.205.557.774.774,0,0,1-.205.549.782.782,0,0,1-.6.22.77.77,0,0,1-.6-.22A.782.782,0,0,1,46.289,3.973ZM50.376,14V7.123H49.124V6.075h1.252V5.4a2.753,2.753,0,0,1,.758-2.065,2.94,2.94,0,0,1,2.142-.74,6.451,6.451,0,0,1,2.073.447l-.227,1.143a4.7,4.7,0,0,0-1.743-.366,1.705,1.705,0,0,0-1.256.392,1.615,1.615,0,0,0-.385,1.176v.688h1.619V7.123H51.739V14Zm5.647,0H54.661V6.075h1.362Zm5.383-.959a1.952,1.952,0,0,0,1.267-.439,1.546,1.546,0,0,0,.6-1.1h1.282a2.457,2.457,0,0,1-.469,1.3,3.087,3.087,0,0,1-1.154.981,3.329,3.329,0,0,1-1.527.366,3.265,3.265,0,0,1-2.574-1.08,4.3,4.3,0,0,1-.956-2.955V9.884A4.771,4.771,0,0,1,58.3,7.826a3.236,3.236,0,0,1,1.219-1.4,3.464,3.464,0,0,1,1.879-.5,3.178,3.178,0,0,1,2.216.8A2.853,2.853,0,0,1,64.556,8.8H63.274a1.867,1.867,0,0,0-.582-1.263A1.811,1.811,0,0,0,61.4,7.042a1.9,1.9,0,0,0-1.6.743,3.491,3.491,0,0,0-.568,2.15v.256A3.422,3.422,0,0,0,59.8,12.3,1.906,1.906,0,0,0,61.406,13.041ZM70.972,14a2.846,2.846,0,0,1-.19-.835,3.023,3.023,0,0,1-2.256.981,2.8,2.8,0,0,1-1.923-.663,2.145,2.145,0,0,1-.751-1.681,2.24,2.24,0,0,1,.941-1.923A4.437,4.437,0,0,1,69.441,9.2H70.76V8.573a1.522,1.522,0,0,0-.425-1.132,1.707,1.707,0,0,0-1.252-.421,1.976,1.976,0,0,0-1.216.366,1.079,1.079,0,0,0-.491.886H66.013a1.87,1.87,0,0,1,.421-1.146,2.874,2.874,0,0,1,1.143-.875,3.844,3.844,0,0,1,1.586-.322,3.133,3.133,0,0,1,2.146.685A2.47,2.47,0,0,1,72.115,8.5v3.647a4.459,4.459,0,0,0,.278,1.736V14Zm-2.249-1.033a2.381,2.381,0,0,0,1.208-.33,1.994,1.994,0,0,0,.828-.857V10.155H69.7q-2.49,0-2.49,1.458a1.234,1.234,0,0,0,.425,1A1.633,1.633,0,0,0,68.723,12.967Zm8.694.073a1.952,1.952,0,0,0,1.267-.439,1.546,1.546,0,0,0,.6-1.1h1.282a2.457,2.457,0,0,1-.469,1.3,3.087,3.087,0,0,1-1.154.981,3.329,3.329,0,0,1-1.527.366,3.265,3.265,0,0,1-2.574-1.08,4.3,4.3,0,0,1-.956-2.955V9.884a4.771,4.771,0,0,1,.425-2.058,3.236,3.236,0,0,1,1.219-1.4,3.464,3.464,0,0,1,1.879-.5,3.178,3.178,0,0,1,2.216.8A2.853,2.853,0,0,1,80.567,8.8H79.285A1.867,1.867,0,0,0,78.7,7.536a1.811,1.811,0,0,0-1.293-.494,1.9,1.9,0,0,0-1.6.743,3.491,3.491,0,0,0-.568,2.15v.256a3.422,3.422,0,0,0,.564,2.109A1.906,1.906,0,0,0,77.417,13.041ZM83.562,14H82.207V6.075h1.355ZM82.1,3.973a.809.809,0,0,1,.2-.557.756.756,0,0,1,.6-.227.768.768,0,0,1,.6.227.8.8,0,0,1,.205.557.774.774,0,0,1-.205.549.782.782,0,0,1-.6.22.77.77,0,0,1-.6-.22A.782.782,0,0,1,82.1,3.973Zm3.274,5.991a4.681,4.681,0,0,1,.458-2.095A3.415,3.415,0,0,1,87.1,6.434a3.469,3.469,0,0,1,1.864-.505,3.342,3.342,0,0,1,2.618,1.121,4.311,4.311,0,0,1,1,2.981v.1a4.722,4.722,0,0,1-.443,2.076,3.365,3.365,0,0,1-1.267,1.432,3.509,3.509,0,0,1-1.893.513,3.334,3.334,0,0,1-2.611-1.121,4.29,4.29,0,0,1-1-2.966Zm1.362.161a3.39,3.39,0,0,0,.612,2.117,2.072,2.072,0,0,0,3.278-.011,3.707,3.707,0,0,0,.608-2.267,3.384,3.384,0,0,0-.619-2.113,1.968,1.968,0,0,0-1.644-.809,1.946,1.946,0,0,0-1.619.8A3.68,3.68,0,0,0,86.734,10.125Zm8.833-4.05.044,1a2.888,2.888,0,0,1,2.373-1.143q2.512,0,2.534,2.834V14H99.163V8.756a1.824,1.824,0,0,0-.392-1.267,1.57,1.57,0,0,0-1.2-.41,1.956,1.956,0,0,0-1.157.352,2.387,2.387,0,0,0-.776.923V14H94.285V6.075Zm10.283,8.071a3.463,3.463,0,0,1-2.622-1.058,3.928,3.928,0,0,1-1.011-2.831v-.249a4.756,4.756,0,0,1,.45-2.106,3.514,3.514,0,0,1,1.26-1.45,3.167,3.167,0,0,1,1.754-.524,2.968,2.968,0,0,1,2.4,1.018,4.408,4.408,0,0,1,.857,2.915v.564h-5.369a2.817,2.817,0,0,0,.685,1.893,2.153,2.153,0,0,0,1.666.721,2.36,2.36,0,0,0,1.216-.293,3.055,3.055,0,0,0,.872-.776l.828.645A3.328,3.328,0,0,1,105.85,14.146Zm-.168-7.1a1.807,1.807,0,0,0-1.377.6,2.9,2.9,0,0,0-.688,1.674h3.97v-.1a2.581,2.581,0,0,0-.557-1.6A1.7,1.7,0,0,0,105.681,7.042Zm9.441,4.856a1,1,0,0,0-.414-.853,3.983,3.983,0,0,0-1.443-.524,6.822,6.822,0,0,1-1.633-.527,2.324,2.324,0,0,1-.894-.732,1.752,1.752,0,0,1-.289-1.011,2.056,2.056,0,0,1,.824-1.648,3.218,3.218,0,0,1,2.106-.674,3.311,3.311,0,0,1,2.186.7A2.21,2.21,0,0,1,116.4,8.4h-1.362a1.223,1.223,0,0,0-.472-.959,1.77,1.77,0,0,0-1.19-.4,1.852,1.852,0,0,0-1.157.322,1.014,1.014,0,0,0-.417.842.822.822,0,0,0,.388.74,4.776,4.776,0,0,0,1.4.476,7.308,7.308,0,0,1,1.644.542,2.4,2.4,0,0,1,.934.758,1.864,1.864,0,0,1,.3,1.08,2.028,2.028,0,0,1-.85,1.7,3.564,3.564,0,0,1-2.2.641,3.991,3.991,0,0,1-1.685-.337,2.74,2.74,0,0,1-1.146-.941,2.268,2.268,0,0,1-.414-1.307h1.355a1.4,1.4,0,0,0,.546,1.08,2.117,2.117,0,0,0,1.344.4,2.185,2.185,0,0,0,1.234-.311A.956.956,0,0,0,115.122,11.9Z" transform="translate(1136.493 831.943)" fill="#12263f"/>
    <path id="Trazado_796792" data-name="Trazado 796792" d="M11.2,9.825V14H9.789V3.336h3.933a3.952,3.952,0,0,1,2.743.894A3.029,3.029,0,0,1,17.458,6.6a2.989,2.989,0,0,1-.97,2.391,4.128,4.128,0,0,1-2.78.839Zm0-1.15h2.527a2.526,2.526,0,0,0,1.729-.532,1.945,1.945,0,0,0,.6-1.537,2.009,2.009,0,0,0-.6-1.526A2.367,2.367,0,0,0,13.8,4.486H11.2ZM22.87,7.291A4.061,4.061,0,0,0,22.2,7.24a1.786,1.786,0,0,0-1.809,1.135V14H19.04V6.075h1.318l.022.916a2.11,2.11,0,0,1,1.89-1.062,1.384,1.384,0,0,1,.6.1Zm.74,2.673a4.681,4.681,0,0,1,.458-2.095,3.415,3.415,0,0,1,1.274-1.436,3.469,3.469,0,0,1,1.864-.505,3.342,3.342,0,0,1,2.618,1.121,4.311,4.311,0,0,1,1,2.981v.1a4.722,4.722,0,0,1-.443,2.076,3.365,3.365,0,0,1-1.267,1.432,3.509,3.509,0,0,1-1.893.513,3.334,3.334,0,0,1-2.611-1.121,4.29,4.29,0,0,1-1-2.966Zm1.362.161a3.39,3.39,0,0,0,.612,2.117,2.072,2.072,0,0,0,3.278-.011,3.707,3.707,0,0,0,.608-2.267,3.384,3.384,0,0,0-.619-2.113,1.968,1.968,0,0,0-1.644-.809,1.946,1.946,0,0,0-1.619.8A3.68,3.68,0,0,0,24.972,10.125ZM35.7,13.041a1.952,1.952,0,0,0,1.267-.439,1.546,1.546,0,0,0,.6-1.1h1.282a2.457,2.457,0,0,1-.469,1.3,3.087,3.087,0,0,1-1.154.981,3.329,3.329,0,0,1-1.527.366,3.265,3.265,0,0,1-2.574-1.08,4.3,4.3,0,0,1-.956-2.955V9.884A4.771,4.771,0,0,1,32.6,7.826a3.236,3.236,0,0,1,1.219-1.4,3.464,3.464,0,0,1,1.879-.5,3.178,3.178,0,0,1,2.216.8A2.853,2.853,0,0,1,38.852,8.8H37.57a1.867,1.867,0,0,0-.582-1.263,1.811,1.811,0,0,0-1.293-.494,1.9,1.9,0,0,0-1.6.743,3.491,3.491,0,0,0-.568,2.15v.256a3.422,3.422,0,0,0,.564,2.109A1.906,1.906,0,0,0,35.7,13.041Zm7.961,1.106a3.463,3.463,0,0,1-2.622-1.058,3.928,3.928,0,0,1-1.011-2.831v-.249a4.756,4.756,0,0,1,.45-2.106,3.514,3.514,0,0,1,1.26-1.45A3.167,3.167,0,0,1,43.5,5.929a2.968,2.968,0,0,1,2.4,1.018,4.408,4.408,0,0,1,.857,2.915v.564H41.386a2.817,2.817,0,0,0,.685,1.893,2.153,2.153,0,0,0,1.666.721,2.36,2.36,0,0,0,1.216-.293,3.055,3.055,0,0,0,.872-.776l.828.645A3.328,3.328,0,0,1,43.664,14.146Zm-.168-7.1a1.807,1.807,0,0,0-1.377.6,2.9,2.9,0,0,0-.688,1.674H45.4v-.1a2.581,2.581,0,0,0-.557-1.6A1.7,1.7,0,0,0,43.5,7.042Zm4.5,2.93a4.642,4.642,0,0,1,.864-2.933,2.941,2.941,0,0,1,4.468-.157V2.75h1.355V14H53.434l-.066-.85a2.759,2.759,0,0,1-2.263,1,2.707,2.707,0,0,1-2.245-1.128,4.7,4.7,0,0,1-.868-2.944Zm1.355.154a3.515,3.515,0,0,0,.557,2.109A1.8,1.8,0,0,0,51.442,13a1.977,1.977,0,0,0,1.882-1.157V8.2a1.992,1.992,0,0,0-1.868-1.121,1.808,1.808,0,0,0-1.553.769A3.87,3.87,0,0,0,49.347,10.125ZM58.253,14H56.9V6.075h1.355ZM56.789,3.973a.809.809,0,0,1,.2-.557.756.756,0,0,1,.6-.227.768.768,0,0,1,.6.227.8.8,0,0,1,.205.557.774.774,0,0,1-.205.549.782.782,0,0,1-.6.22.77.77,0,0,1-.6-.22A.782.782,0,0,1,56.789,3.973Zm4.907,2.1.037.879a2.927,2.927,0,0,1,2.351-1.025A2.266,2.266,0,0,1,66.347,7.2a3,3,0,0,1,1.029-.923,3.039,3.039,0,0,1,1.5-.352q2.607,0,2.651,2.761V14H70.17V8.771A1.82,1.82,0,0,0,69.782,7.5a1.71,1.71,0,0,0-1.3-.421,1.8,1.8,0,0,0-1.252.45,1.827,1.827,0,0,0-.579,1.212V14H65.285V8.807a1.512,1.512,0,0,0-1.692-1.729,1.813,1.813,0,0,0-1.824,1.135V14H60.414V6.075ZM75.041,14H73.686V6.075h1.355ZM73.576,3.973a.809.809,0,0,1,.2-.557.756.756,0,0,1,.6-.227.768.768,0,0,1,.6.227.8.8,0,0,1,.205.557.774.774,0,0,1-.205.549.782.782,0,0,1-.6.22.77.77,0,0,1-.6-.22A.782.782,0,0,1,73.576,3.973ZM80.5,14.146a3.463,3.463,0,0,1-2.622-1.058,3.928,3.928,0,0,1-1.011-2.831v-.249a4.756,4.756,0,0,1,.45-2.106,3.514,3.514,0,0,1,1.26-1.45,3.167,3.167,0,0,1,1.754-.524,2.968,2.968,0,0,1,2.4,1.018,4.408,4.408,0,0,1,.857,2.915v.564H78.219a2.817,2.817,0,0,0,.685,1.893,2.153,2.153,0,0,0,1.666.721,2.36,2.36,0,0,0,1.216-.293,3.055,3.055,0,0,0,.872-.776l.828.645A3.328,3.328,0,0,1,80.5,14.146Zm-.168-7.1a1.807,1.807,0,0,0-1.377.6,2.9,2.9,0,0,0-.688,1.674h3.97v-.1a2.581,2.581,0,0,0-.557-1.6A1.7,1.7,0,0,0,80.329,7.042Zm6.108-.967.044,1a2.888,2.888,0,0,1,2.373-1.143q2.512,0,2.534,2.834V14H90.033V8.756a1.824,1.824,0,0,0-.392-1.267,1.57,1.57,0,0,0-1.2-.41,1.956,1.956,0,0,0-1.157.352,2.387,2.387,0,0,0-.776.923V14H85.155V6.075ZM95.27,4.156V6.075H96.75V7.123H95.27v4.921a1.1,1.1,0,0,0,.2.715.832.832,0,0,0,.674.238,3.281,3.281,0,0,0,.645-.088V14a3.951,3.951,0,0,1-1.04.146,1.687,1.687,0,0,1-1.37-.549,2.36,2.36,0,0,1-.461-1.56V7.123H92.472V6.075h1.443V4.156Zm2.556,5.808a4.681,4.681,0,0,1,.458-2.095,3.415,3.415,0,0,1,1.274-1.436,3.469,3.469,0,0,1,1.864-.505,3.342,3.342,0,0,1,2.618,1.121,4.311,4.311,0,0,1,1,2.981v.1A4.722,4.722,0,0,1,104.6,12.2a3.365,3.365,0,0,1-1.267,1.432,3.509,3.509,0,0,1-1.893.513,3.334,3.334,0,0,1-2.611-1.121,4.29,4.29,0,0,1-1-2.966Zm1.362.161a3.39,3.39,0,0,0,.612,2.117,2.072,2.072,0,0,0,3.278-.011,3.707,3.707,0,0,0,.608-2.267,3.384,3.384,0,0,0-.619-2.113,1.968,1.968,0,0,0-1.644-.809,1.946,1.946,0,0,0-1.619.8A3.68,3.68,0,0,0,99.188,10.125ZM111.354,11.9a1,1,0,0,0-.414-.853,3.983,3.983,0,0,0-1.443-.524,6.822,6.822,0,0,1-1.633-.527,2.324,2.324,0,0,1-.894-.732,1.752,1.752,0,0,1-.289-1.011,2.056,2.056,0,0,1,.824-1.648,3.218,3.218,0,0,1,2.106-.674,3.311,3.311,0,0,1,2.186.7,2.21,2.21,0,0,1,.839,1.78h-1.362a1.223,1.223,0,0,0-.472-.959,1.77,1.77,0,0,0-1.19-.4,1.852,1.852,0,0,0-1.157.322,1.014,1.014,0,0,0-.417.842.822.822,0,0,0,.388.74,4.776,4.776,0,0,0,1.4.476,7.308,7.308,0,0,1,1.644.542,2.4,2.4,0,0,1,.934.758,1.864,1.864,0,0,1,.3,1.08,2.028,2.028,0,0,1-.85,1.7,3.564,3.564,0,0,1-2.2.641,3.991,3.991,0,0,1-1.685-.337,2.74,2.74,0,0,1-1.146-.941,2.268,2.268,0,0,1-.414-1.307h1.355a1.4,1.4,0,0,0,.546,1.08,2.117,2.117,0,0,0,1.344.4,2.185,2.185,0,0,0,1.234-.311A.956.956,0,0,0,111.354,11.9Z" transform="translate(954 831.765)" fill="#12263f"/>
    <path id="Trazado_796793" data-name="Trazado 796793" d="M11.2,9.825V14H9.789V3.336h3.933a3.952,3.952,0,0,1,2.743.894A3.029,3.029,0,0,1,17.458,6.6a2.989,2.989,0,0,1-.97,2.391,4.128,4.128,0,0,1-2.78.839Zm0-1.15h2.527a2.526,2.526,0,0,0,1.729-.532,1.945,1.945,0,0,0,.6-1.537,2.009,2.009,0,0,0-.6-1.526A2.367,2.367,0,0,0,13.8,4.486H11.2ZM22.87,7.291A4.061,4.061,0,0,0,22.2,7.24a1.786,1.786,0,0,0-1.809,1.135V14H19.04V6.075h1.318l.022.916a2.11,2.11,0,0,1,1.89-1.062,1.384,1.384,0,0,1,.6.1Zm.74,2.673a4.681,4.681,0,0,1,.458-2.095,3.415,3.415,0,0,1,1.274-1.436,3.469,3.469,0,0,1,1.864-.505,3.342,3.342,0,0,1,2.618,1.121,4.311,4.311,0,0,1,1,2.981v.1a4.722,4.722,0,0,1-.443,2.076,3.365,3.365,0,0,1-1.267,1.432,3.509,3.509,0,0,1-1.893.513,3.334,3.334,0,0,1-2.611-1.121,4.29,4.29,0,0,1-1-2.966Zm1.362.161a3.39,3.39,0,0,0,.612,2.117,2.072,2.072,0,0,0,3.278-.011,3.707,3.707,0,0,0,.608-2.267,3.384,3.384,0,0,0-.619-2.113,1.968,1.968,0,0,0-1.644-.809,1.946,1.946,0,0,0-1.619.8A3.68,3.68,0,0,0,24.972,10.125ZM35.7,13.041a1.952,1.952,0,0,0,1.267-.439,1.546,1.546,0,0,0,.6-1.1h1.282a2.457,2.457,0,0,1-.469,1.3,3.087,3.087,0,0,1-1.154.981,3.329,3.329,0,0,1-1.527.366,3.265,3.265,0,0,1-2.574-1.08,4.3,4.3,0,0,1-.956-2.955V9.884A4.771,4.771,0,0,1,32.6,7.826a3.236,3.236,0,0,1,1.219-1.4,3.464,3.464,0,0,1,1.879-.5,3.178,3.178,0,0,1,2.216.8A2.853,2.853,0,0,1,38.852,8.8H37.57a1.867,1.867,0,0,0-.582-1.263,1.811,1.811,0,0,0-1.293-.494,1.9,1.9,0,0,0-1.6.743,3.491,3.491,0,0,0-.568,2.15v.256a3.422,3.422,0,0,0,.564,2.109A1.906,1.906,0,0,0,35.7,13.041Zm7.961,1.106a3.463,3.463,0,0,1-2.622-1.058,3.928,3.928,0,0,1-1.011-2.831v-.249a4.756,4.756,0,0,1,.45-2.106,3.514,3.514,0,0,1,1.26-1.45A3.167,3.167,0,0,1,43.5,5.929a2.968,2.968,0,0,1,2.4,1.018,4.408,4.408,0,0,1,.857,2.915v.564H41.386a2.817,2.817,0,0,0,.685,1.893,2.153,2.153,0,0,0,1.666.721,2.36,2.36,0,0,0,1.216-.293,3.055,3.055,0,0,0,.872-.776l.828.645A3.328,3.328,0,0,1,43.664,14.146Zm-.168-7.1a1.807,1.807,0,0,0-1.377.6,2.9,2.9,0,0,0-.688,1.674H45.4v-.1a2.581,2.581,0,0,0-.557-1.6A1.7,1.7,0,0,0,43.5,7.042Zm4.5,2.93a4.642,4.642,0,0,1,.864-2.933,2.941,2.941,0,0,1,4.468-.157V2.75h1.355V14H53.434l-.066-.85a2.759,2.759,0,0,1-2.263,1,2.707,2.707,0,0,1-2.245-1.128,4.7,4.7,0,0,1-.868-2.944Zm1.355.154a3.515,3.515,0,0,0,.557,2.109A1.8,1.8,0,0,0,51.442,13a1.977,1.977,0,0,0,1.882-1.157V8.2a1.992,1.992,0,0,0-1.868-1.121,1.808,1.808,0,0,0-1.553.769A3.87,3.87,0,0,0,49.347,10.125ZM58.253,14H56.9V6.075h1.355ZM56.789,3.973a.809.809,0,0,1,.2-.557.756.756,0,0,1,.6-.227.768.768,0,0,1,.6.227.8.8,0,0,1,.205.557.774.774,0,0,1-.205.549.782.782,0,0,1-.6.22.77.77,0,0,1-.6-.22A.782.782,0,0,1,56.789,3.973Zm4.907,2.1.037.879a2.927,2.927,0,0,1,2.351-1.025A2.266,2.266,0,0,1,66.347,7.2a3,3,0,0,1,1.029-.923,3.039,3.039,0,0,1,1.5-.352q2.607,0,2.651,2.761V14H70.17V8.771A1.82,1.82,0,0,0,69.782,7.5a1.71,1.71,0,0,0-1.3-.421,1.8,1.8,0,0,0-1.252.45,1.827,1.827,0,0,0-.579,1.212V14H65.285V8.807a1.512,1.512,0,0,0-1.692-1.729,1.813,1.813,0,0,0-1.824,1.135V14H60.414V6.075ZM75.041,14H73.686V6.075h1.355ZM73.576,3.973a.809.809,0,0,1,.2-.557.756.756,0,0,1,.6-.227.768.768,0,0,1,.6.227.8.8,0,0,1,.205.557.774.774,0,0,1-.205.549.782.782,0,0,1-.6.22.77.77,0,0,1-.6-.22A.782.782,0,0,1,73.576,3.973ZM80.5,14.146a3.463,3.463,0,0,1-2.622-1.058,3.928,3.928,0,0,1-1.011-2.831v-.249a4.756,4.756,0,0,1,.45-2.106,3.514,3.514,0,0,1,1.26-1.45,3.167,3.167,0,0,1,1.754-.524,2.968,2.968,0,0,1,2.4,1.018,4.408,4.408,0,0,1,.857,2.915v.564H78.219a2.817,2.817,0,0,0,.685,1.893,2.153,2.153,0,0,0,1.666.721,2.36,2.36,0,0,0,1.216-.293,3.055,3.055,0,0,0,.872-.776l.828.645A3.328,3.328,0,0,1,80.5,14.146Zm-.168-7.1a1.807,1.807,0,0,0-1.377.6,2.9,2.9,0,0,0-.688,1.674h3.97v-.1a2.581,2.581,0,0,0-.557-1.6A1.7,1.7,0,0,0,80.329,7.042Zm6.108-.967.044,1a2.888,2.888,0,0,1,2.373-1.143q2.512,0,2.534,2.834V14H90.033V8.756a1.824,1.824,0,0,0-.392-1.267,1.57,1.57,0,0,0-1.2-.41,1.956,1.956,0,0,0-1.157.352,2.387,2.387,0,0,0-.776.923V14H85.155V6.075ZM95.27,4.156V6.075H96.75V7.123H95.27v4.921a1.1,1.1,0,0,0,.2.715.832.832,0,0,0,.674.238,3.281,3.281,0,0,0,.645-.088V14a3.951,3.951,0,0,1-1.04.146,1.687,1.687,0,0,1-1.37-.549,2.36,2.36,0,0,1-.461-1.56V7.123H92.472V6.075h1.443V4.156Zm2.556,5.808a4.681,4.681,0,0,1,.458-2.095,3.415,3.415,0,0,1,1.274-1.436,3.469,3.469,0,0,1,1.864-.505,3.342,3.342,0,0,1,2.618,1.121,4.311,4.311,0,0,1,1,2.981v.1A4.722,4.722,0,0,1,104.6,12.2a3.365,3.365,0,0,1-1.267,1.432,3.509,3.509,0,0,1-1.893.513,3.334,3.334,0,0,1-2.611-1.121,4.29,4.29,0,0,1-1-2.966Zm1.362.161a3.39,3.39,0,0,0,.612,2.117,2.072,2.072,0,0,0,3.278-.011,3.707,3.707,0,0,0,.608-2.267,3.384,3.384,0,0,0-.619-2.113,1.968,1.968,0,0,0-1.644-.809,1.946,1.946,0,0,0-1.619.8A3.68,3.68,0,0,0,99.188,10.125ZM111.354,11.9a1,1,0,0,0-.414-.853,3.983,3.983,0,0,0-1.443-.524,6.822,6.822,0,0,1-1.633-.527,2.324,2.324,0,0,1-.894-.732,1.752,1.752,0,0,1-.289-1.011,2.056,2.056,0,0,1,.824-1.648,3.218,3.218,0,0,1,2.106-.674,3.311,3.311,0,0,1,2.186.7,2.21,2.21,0,0,1,.839,1.78h-1.362a1.223,1.223,0,0,0-.472-.959,1.77,1.77,0,0,0-1.19-.4,1.852,1.852,0,0,0-1.157.322,1.014,1.014,0,0,0-.417.842.822.822,0,0,0,.388.74,4.776,4.776,0,0,0,1.4.476,7.308,7.308,0,0,1,1.644.542,2.4,2.4,0,0,1,.934.758,1.864,1.864,0,0,1,.3,1.08,2.028,2.028,0,0,1-.85,1.7,3.564,3.564,0,0,1-2.2.641,3.991,3.991,0,0,1-1.685-.337,2.74,2.74,0,0,1-1.146-.941,2.268,2.268,0,0,1-.414-1.307h1.355a1.4,1.4,0,0,0,.546,1.08,2.117,2.117,0,0,0,1.344.4,2.185,2.185,0,0,0,1.234-.311A.956.956,0,0,0,111.354,11.9Z" transform="translate(1291.493 831.943)" fill="#12263f"/>
    <path id="Trazado_796794" data-name="Trazado 796794" d="M22.925,10.616a3.923,3.923,0,0,1-1.249,2.611,4.093,4.093,0,0,1-2.794.919,3.758,3.758,0,0,1-3.029-1.355,5.451,5.451,0,0,1-1.139-3.625V8.141a6.076,6.076,0,0,1,.531-2.615A3.966,3.966,0,0,1,16.75,3.794a4.191,4.191,0,0,1,2.256-.6,3.853,3.853,0,0,1,2.725.948,3.971,3.971,0,0,1,1.194,2.626H21.511a3.064,3.064,0,0,0-.795-1.851,2.4,2.4,0,0,0-1.71-.573,2.516,2.516,0,0,0-2.113,1,4.577,4.577,0,0,0-.765,2.837V9.207a4.7,4.7,0,0,0,.725,2.764A2.343,2.343,0,0,0,18.882,13a2.706,2.706,0,0,0,1.8-.531,2.947,2.947,0,0,0,.831-1.849Zm1.348-.652A4.681,4.681,0,0,1,24.73,7.87,3.415,3.415,0,0,1,26,6.434a3.469,3.469,0,0,1,1.864-.505,3.342,3.342,0,0,1,2.618,1.121,4.311,4.311,0,0,1,1,2.981v.1a4.722,4.722,0,0,1-.443,2.076,3.365,3.365,0,0,1-1.267,1.432,3.509,3.509,0,0,1-1.893.513,3.334,3.334,0,0,1-2.611-1.121,4.29,4.29,0,0,1-1-2.966Zm1.362.161a3.39,3.39,0,0,0,.612,2.117,2.072,2.072,0,0,0,3.278-.011,3.707,3.707,0,0,0,.608-2.267,3.384,3.384,0,0,0-.619-2.113,1.968,1.968,0,0,0-1.644-.809,1.946,1.946,0,0,0-1.619.8A3.68,3.68,0,0,0,25.635,10.125ZM37.017,7.291a4.061,4.061,0,0,0-.667-.051,1.786,1.786,0,0,0-1.809,1.135V14H33.186V6.075H34.5l.022.916a2.11,2.11,0,0,1,1.89-1.062,1.384,1.384,0,0,1,.6.1Zm5.076,0a4.061,4.061,0,0,0-.667-.051,1.786,1.786,0,0,0-1.809,1.135V14H38.262V6.075H39.58l.022.916a2.11,2.11,0,0,1,1.89-1.062,1.384,1.384,0,0,1,.6.1Zm4.395,6.855a3.463,3.463,0,0,1-2.622-1.058,3.928,3.928,0,0,1-1.011-2.831v-.249A4.756,4.756,0,0,1,43.3,7.9a3.514,3.514,0,0,1,1.26-1.45,3.167,3.167,0,0,1,1.754-.524,2.968,2.968,0,0,1,2.4,1.018,4.408,4.408,0,0,1,.857,2.915v.564H44.209a2.817,2.817,0,0,0,.685,1.893,2.153,2.153,0,0,0,1.666.721,2.36,2.36,0,0,0,1.216-.293,3.055,3.055,0,0,0,.872-.776l.828.645A3.328,3.328,0,0,1,46.487,14.146Zm-.168-7.1a1.807,1.807,0,0,0-1.377.6,2.9,2.9,0,0,0-.688,1.674h3.97v-.1a2.581,2.581,0,0,0-.557-1.6A1.7,1.7,0,0,0,46.318,7.042Zm8.005,6a1.952,1.952,0,0,0,1.267-.439,1.546,1.546,0,0,0,.6-1.1h1.282A2.457,2.457,0,0,1,57,12.8a3.087,3.087,0,0,1-1.154.981,3.329,3.329,0,0,1-1.527.366,3.265,3.265,0,0,1-2.574-1.08,4.3,4.3,0,0,1-.956-2.955V9.884a4.771,4.771,0,0,1,.425-2.058,3.236,3.236,0,0,1,1.219-1.4,3.464,3.464,0,0,1,1.879-.5,3.178,3.178,0,0,1,2.216.8A2.853,2.853,0,0,1,57.473,8.8H56.191a1.867,1.867,0,0,0-.582-1.263,1.811,1.811,0,0,0-1.293-.494,1.9,1.9,0,0,0-1.6.743,3.491,3.491,0,0,0-.568,2.15v.256a3.422,3.422,0,0,0,.564,2.109A1.906,1.906,0,0,0,54.324,13.041Zm6.511-8.884V6.075h1.479V7.123H60.835v4.921a1.1,1.1,0,0,0,.2.715.832.832,0,0,0,.674.238,3.281,3.281,0,0,0,.645-.088V14a3.951,3.951,0,0,1-1.04.146,1.687,1.687,0,0,1-1.37-.549,2.36,2.36,0,0,1-.461-1.56V7.123H58.037V6.075H59.48V4.156ZM65.369,14H64.014V6.075h1.355ZM63.9,3.973a.809.809,0,0,1,.2-.557.756.756,0,0,1,.6-.227.768.768,0,0,1,.6.227.8.8,0,0,1,.205.557.774.774,0,0,1-.205.549.782.782,0,0,1-.6.22.77.77,0,0,1-.6-.22A.782.782,0,0,1,63.9,3.973Zm6.248,8.188,1.963-6.086H73.5L70.657,14H69.624L66.753,6.075h1.384Zm4.182-2.2a4.681,4.681,0,0,1,.458-2.095,3.415,3.415,0,0,1,1.274-1.436,3.469,3.469,0,0,1,1.864-.505,3.342,3.342,0,0,1,2.618,1.121,4.311,4.311,0,0,1,1,2.981v.1A4.722,4.722,0,0,1,81.1,12.2a3.365,3.365,0,0,1-1.267,1.432,3.509,3.509,0,0,1-1.893.513,3.334,3.334,0,0,1-2.611-1.121,4.29,4.29,0,0,1-1-2.966Zm1.362.161a3.39,3.39,0,0,0,.612,2.117,2.072,2.072,0,0,0,3.278-.011,3.707,3.707,0,0,0,.608-2.267,3.384,3.384,0,0,0-.619-2.113,1.968,1.968,0,0,0-1.644-.809,1.946,1.946,0,0,0-1.619.8A3.68,3.68,0,0,0,75.7,10.125ZM87.861,11.9a1,1,0,0,0-.414-.853A3.983,3.983,0,0,0,86,10.521a6.822,6.822,0,0,1-1.633-.527,2.324,2.324,0,0,1-.894-.732,1.752,1.752,0,0,1-.289-1.011A2.056,2.056,0,0,1,84.012,6.6a3.218,3.218,0,0,1,2.106-.674,3.311,3.311,0,0,1,2.186.7,2.21,2.21,0,0,1,.839,1.78H87.781a1.223,1.223,0,0,0-.472-.959,1.77,1.77,0,0,0-1.19-.4,1.852,1.852,0,0,0-1.157.322,1.014,1.014,0,0,0-.417.842.822.822,0,0,0,.388.74,4.776,4.776,0,0,0,1.4.476,7.308,7.308,0,0,1,1.644.542,2.4,2.4,0,0,1,.934.758,1.864,1.864,0,0,1,.3,1.08,2.028,2.028,0,0,1-.85,1.7,3.564,3.564,0,0,1-2.2.641,3.991,3.991,0,0,1-1.685-.337,2.74,2.74,0,0,1-1.146-.941,2.268,2.268,0,0,1-.414-1.307h1.355a1.4,1.4,0,0,0,.546,1.08,2.117,2.117,0,0,0,1.344.4,2.185,2.185,0,0,0,1.234-.311A.956.956,0,0,0,87.861,11.9Z" transform="translate(504.494 732.805)" fill="#12263f"/>
    <path id="Trazado_796795" data-name="Trazado 796795" d="M24.324,12.85h5.054V14H22.91V3.336h1.414ZM32.241,14H30.886V6.075h1.355ZM30.776,3.973a.809.809,0,0,1,.2-.557.756.756,0,0,1,.6-.227.768.768,0,0,1,.6.227.8.8,0,0,1,.205.557.774.774,0,0,1-.205.549.782.782,0,0,1-.6.22.77.77,0,0,1-.6-.22A.782.782,0,0,1,30.776,3.973Zm4.907,2.1.037.879a2.927,2.927,0,0,1,2.351-1.025A2.266,2.266,0,0,1,40.334,7.2a3,3,0,0,1,1.029-.923,3.039,3.039,0,0,1,1.5-.352q2.607,0,2.651,2.761V14H44.158V8.771A1.82,1.82,0,0,0,43.769,7.5a1.71,1.71,0,0,0-1.3-.421,1.8,1.8,0,0,0-1.252.45,1.827,1.827,0,0,0-.579,1.212V14H39.272V8.807a1.512,1.512,0,0,0-1.692-1.729,1.813,1.813,0,0,0-1.824,1.135V14H34.4V6.075Zm18.567,4.05a4.745,4.745,0,0,1-.828,2.915,2.653,2.653,0,0,1-2.241,1.106,2.906,2.906,0,0,1-2.271-.916v3.816H47.556V6.075h1.238l.066.879a2.791,2.791,0,0,1,2.3-1.025,2.7,2.7,0,0,1,2.26,1.077,4.8,4.8,0,0,1,.831,3ZM52.9,9.972a3.5,3.5,0,0,0-.571-2.117,1.84,1.84,0,0,0-1.567-.776A1.992,1.992,0,0,0,48.911,8.17v3.787a2,2,0,0,0,1.86,1.084,1.832,1.832,0,0,0,1.549-.773A3.822,3.822,0,0,0,52.9,9.972ZM57.444,14H56.089V6.075h1.355ZM55.979,3.973a.809.809,0,0,1,.2-.557.756.756,0,0,1,.6-.227.768.768,0,0,1,.6.227.8.8,0,0,1,.205.557.774.774,0,0,1-.205.549.782.782,0,0,1-.6.22.77.77,0,0,1-.6-.22A.782.782,0,0,1,55.979,3.973ZM62.9,14.146a3.463,3.463,0,0,1-2.622-1.058,3.928,3.928,0,0,1-1.011-2.831v-.249a4.756,4.756,0,0,1,.45-2.106,3.514,3.514,0,0,1,1.26-1.45,3.167,3.167,0,0,1,1.754-.524,2.968,2.968,0,0,1,2.4,1.018,4.408,4.408,0,0,1,.857,2.915v.564H60.623a2.817,2.817,0,0,0,.685,1.893,2.153,2.153,0,0,0,1.666.721,2.36,2.36,0,0,0,1.216-.293,3.055,3.055,0,0,0,.872-.776l.828.645A3.328,3.328,0,0,1,62.9,14.146Zm-.168-7.1a1.807,1.807,0,0,0-1.377.6,2.9,2.9,0,0,0-.688,1.674h3.97v-.1a2.581,2.581,0,0,0-.557-1.6A1.7,1.7,0,0,0,62.732,7.042Zm6.1,5.852h4.636V14H67.178V13L71.55,7.2H67.244V6.075h6.006v.959ZM79.885,14a2.846,2.846,0,0,1-.19-.835,3.023,3.023,0,0,1-2.256.981,2.8,2.8,0,0,1-1.923-.663,2.145,2.145,0,0,1-.751-1.681,2.24,2.24,0,0,1,.941-1.923A4.437,4.437,0,0,1,78.354,9.2h1.318V8.573a1.522,1.522,0,0,0-.425-1.132A1.707,1.707,0,0,0,78,7.02a1.976,1.976,0,0,0-1.216.366,1.079,1.079,0,0,0-.491.886H74.927a1.87,1.87,0,0,1,.421-1.146,2.874,2.874,0,0,1,1.143-.875,3.844,3.844,0,0,1,1.586-.322,3.133,3.133,0,0,1,2.146.685A2.47,2.47,0,0,1,81.028,8.5v3.647a4.459,4.459,0,0,0,.278,1.736V14Zm-2.249-1.033a2.381,2.381,0,0,0,1.208-.33,1.994,1.994,0,0,0,.828-.857V10.155H78.611q-2.49,0-2.49,1.458a1.234,1.234,0,0,0,.425,1A1.633,1.633,0,0,0,77.637,12.967Z" transform="translate(1189.494 732.805)" fill="#12263f"/>
  </g>
</svg>
