<svg id="Grupo_1040808" data-name="Grupo 1040808" xmlns="http://www.w3.org/2000/svg" xmlns:xlink="http://www.w3.org/1999/xlink" width="99.903" height="64.606" viewBox="0 0 99.903 64.606">
  <defs>
    <clipPath id="clip-path">
      <rect id="Rectángulo_370947" data-name="Rectángulo 370947" width="99.903" height="64.606" fill="none"/>
    </clipPath>
    <clipPath id="clip-path-3">
      <rect id="Rectángulo_370932" data-name="Rectángulo 370932" width="96.553" height="55.743" fill="none"/>
    </clipPath>
    <linearGradient id="linear-gradient" x1="0.5" x2="0.5" y2="1" gradientUnits="objectBoundingBox">
      <stop offset="0" stop-color="#dedede"/>
      <stop offset="0.517" stop-color="#fff"/>
      <stop offset="1" stop-color="#dedede"/>
    </linearGradient>
    <clipPath id="clip-path-5">
      <rect id="Rectángulo_370934" data-name="Rectángulo 370934" width="2.231" height="1.288" fill="none"/>
    </clipPath>
    <clipPath id="clip-path-6">
      <rect id="Rectángulo_370935" data-name="Rectángulo 370935" width="2.232" height="1.288" fill="none"/>
    </clipPath>
    <clipPath id="clip-path-7">
      <rect id="Rectángulo_370936" data-name="Rectángulo 370936" width="2.221" height="1.29" fill="none"/>
    </clipPath>
    <clipPath id="clip-path-8">
      <rect id="Rectángulo_370937" data-name="Rectángulo 370937" width="2.228" height="1.289" fill="none"/>
    </clipPath>
    <clipPath id="clip-path-9">
      <rect id="Rectángulo_370938" data-name="Rectángulo 370938" width="2.231" height="1.29" fill="none"/>
    </clipPath>
    <clipPath id="clip-path-10">
      <rect id="Rectángulo_370939" data-name="Rectángulo 370939" width="2.233" height="1.289" fill="none"/>
    </clipPath>
    <clipPath id="clip-path-11">
      <rect id="Rectángulo_370940" data-name="Rectángulo 370940" width="2.236" height="1.291" fill="none"/>
    </clipPath>
    <clipPath id="clip-path-12">
      <rect id="Rectángulo_370941" data-name="Rectángulo 370941" width="2.237" height="1.289" fill="none"/>
    </clipPath>
    <clipPath id="clip-path-14">
      <rect id="Rectángulo_370943" data-name="Rectángulo 370943" width="2.229" height="1.296" fill="none"/>
    </clipPath>
    <clipPath id="clip-path-15">
      <rect id="Rectángulo_370944" data-name="Rectángulo 370944" width="2.229" height="1.291" fill="none"/>
    </clipPath>
    <clipPath id="clip-path-16">
      <rect id="Rectángulo_370945" data-name="Rectángulo 370945" width="2.235" height="1.289" fill="none"/>
    </clipPath>
  </defs>
  <g id="Grupo_1040803" data-name="Grupo 1040803" clip-path="url(#clip-path)">
    <g id="Grupo_1040764" data-name="Grupo 1040764" transform="translate(0 0)">
      <g id="Grupo_1040763" data-name="Grupo 1040763" clip-path="url(#clip-path)">
        <g id="Grupo_1040762" data-name="Grupo 1040762" transform="translate(0 4.442)" opacity="0.3">
          <g id="Grupo_1040761" data-name="Grupo 1040761">
            <g id="Grupo_1040760" data-name="Grupo 1040760" clip-path="url(#clip-path-3)">
              <path id="Trazado_791591" data-name="Trazado 791591" d="M96.553,44.462,30.941,6.575,0,24.435,65.614,62.318Z" transform="translate(0 -6.575)"/>
            </g>
          </g>
        </g>
      </g>
    </g>
    <path id="Trazado_791592" data-name="Trazado 791592" d="M0,27.914,66.105,66.087l31.17-18v-1.27L0,26.638Z" transform="translate(0 -8.645)" fill="#27938c"/>
    <path id="Trazado_791593" data-name="Trazado 791593" d="M31.172,0,0,17.993,66.105,56.16l31.17-17.989Z" transform="translate(0 0)" fill="#4adbd1"/>
    <path id="Trazado_791594" data-name="Trazado 791594" d="M123.152,62.042l-3.59-2.065-4.193,2.417,3.583,2.071Z" transform="translate(-37.442 -19.465)" fill="#0a8074"/>
    <path id="Trazado_791595" data-name="Trazado 791595" d="M86.91,48.813l-15.076-8.7L54.184,50.295,69.266,59Z" transform="translate(-17.585 -13.017)" fill="#24d2c1"/>
    <path id="Trazado_791596" data-name="Trazado 791596" d="M36.388,20.481,21.317,11.773,3.669,21.958l15.089,8.7Z" transform="translate(-1.191 -3.821)" fill="#24d2c1"/>
    <path id="Trazado_791597" data-name="Trazado 791597" d="M110.739,68.858l-3.075-1.773.018.734L110.75,69.6Z" transform="translate(-34.942 -21.772)" fill="#535359"/>
    <path id="Trazado_791598" data-name="Trazado 791598" d="M115.806,66.64l-3.454,1.342-.135.732.01.742,3.594-2.075Z" transform="translate(-36.419 -21.627)" fill="#373f51"/>
    <path id="Trazado_791599" data-name="Trazado 791599" d="M114.328,65.785l-3.069-1.778-3.6,2.078,3.075,1.773Z" transform="translate(-34.941 -20.773)" fill="#12263f"/>
    <path id="Trazado_791600" data-name="Trazado 791600" d="M113.222,67.39l-.59-.336,1.545-.891.588.339Z" transform="translate(-36.554 -21.472)" fill="url(#linear-gradient)"/>
    <path id="Trazado_791601" data-name="Trazado 791601" d="M110.523,55.358l-4.875-2.786.02.737,4.87,2.789Z" transform="translate(-34.287 -17.062)" fill="#535359"/>
    <path id="Trazado_791602" data-name="Trazado 791602" d="M116.461,53.626,113,54.965l-.134.736.015.739,3.6-2.069Z" transform="translate(-36.63 -17.404)" fill="#373f51"/>
    <path id="Trazado_791603" data-name="Trazado 791603" d="M114.118,52.289l-4.869-2.783-3.6,2.071,4.875,2.786Z" transform="translate(-34.287 -16.067)" fill="#12263f"/>
    <path id="Trazado_791604" data-name="Trazado 791604" d="M113.876,54.381l-.591-.34,1.548-.9.587.35Z" transform="translate(-36.766 -17.248)" fill="url(#linear-gradient)"/>
    <path id="Trazado_791605" data-name="Trazado 791605" d="M53.682,20.522l-3.077-1.774.012.734,3.073,1.781Z" transform="translate(-16.423 -6.085)" fill="#484f60"/>
    <path id="Trazado_791606" data-name="Trazado 791606" d="M58.749,18.3,55.293,19.64l-.131.736.007.741,3.593-2.074Z" transform="translate(-17.902 -5.939)" fill="#373f51"/>
    <path id="Trazado_791607" data-name="Trazado 791607" d="M57.27,17.447,54.2,15.671l-3.6,2.078,3.078,1.774Z" transform="translate(-16.423 -5.086)" fill="#12263f"/>
    <path id="Trazado_791608" data-name="Trazado 791608" d="M56.168,19.055l-.589-.342,1.543-.891.592.34Z" transform="translate(-18.038 -5.784)" fill="url(#linear-gradient)"/>
    <path id="Trazado_791609" data-name="Trazado 791609" d="M126.079,59.259l-5.03-2.906.02,1.215,5.023,2.9Z" transform="translate(-39.285 -18.289)" fill="#535359"/>
    <path id="Trazado_791610" data-name="Trazado 791610" d="M126.09,60.222l-5.03-2.905.013.564,5.023,2.9Z" transform="translate(-39.289 -18.602)" fill="#bcbec0"/>
    <path id="Trazado_791611" data-name="Trazado 791611" d="M134.377,55.618l-5.666,2.2-.215,1.2.014,1.213,5.887-3.4Z" transform="translate(-41.702 -18.05)" fill="#373f51"/>
    <path id="Trazado_791612" data-name="Trazado 791612" d="M134.391,56.589l-5.885,3.4.006.563,5.887-3.4Z" transform="translate(-41.706 -18.366)" fill="#939598"/>
    <path id="Trazado_791613" data-name="Trazado 791613" d="M131.96,54.223l-5.03-2.9-5.881,3.4,5.03,2.906Z" transform="translate(-39.285 -16.656)" fill="#12263f"/>
    <path id="Trazado_791614" data-name="Trazado 791614" d="M127.521,57.482l-1.65-.95,4.31-2.482,1.648.951Z" transform="translate(-40.85 -17.542)" fill="url(#linear-gradient)"/>
    <path id="Trazado_791615" data-name="Trazado 791615" d="M75.858,28.761,63.819,21.8l.012,1.2,12.048,6.958Z" transform="translate(-20.712 -7.076)" fill="#535359"/>
    <path id="Trazado_791616" data-name="Trazado 791616" d="M75.868,29.715,63.827,22.761l.006.557,12.048,6.959Z" transform="translate(-20.715 -7.387)" fill="#bcbec0"/>
    <path id="Trazado_791617" data-name="Trazado 791617" d="M87.527,27.07l-5.665,2.193-.22,1.208.022,1.2,5.882-3.392Z" transform="translate(-26.496 -8.785)" fill="#373f51"/>
    <path id="Trazado_791618" data-name="Trazado 791618" d="M87.543,28.026l-5.889,3.4.014.562,5.883-3.392Z" transform="translate(-26.5 -9.096)" fill="#939598"/>
    <path id="Trazado_791619" data-name="Trazado 791619" d="M81.742,23.726,69.7,16.766l-5.88,3.4,12.039,6.959Z" transform="translate(-20.712 -5.441)" fill="#12263f"/>
    <path id="Trazado_791620" data-name="Trazado 791620" d="M80.669,28.93l-1.66-.954,4.316-2.485,1.655.952Z" transform="translate(-25.642 -8.273)" fill="url(#linear-gradient)"/>
    <path id="Trazado_791621" data-name="Trazado 791621" d="M85.606,71.178l-5.024-2.9.028,1.21,5.026,2.907Z" transform="translate(-26.152 -22.159)" fill="#484f60"/>
    <path id="Trazado_791622" data-name="Trazado 791622" d="M93.913,67.535l-5.666,2.2-.228,1.2.03,1.216,5.878-3.4Z" transform="translate(-28.566 -21.918)" fill="#373f51"/>
    <path id="Trazado_791623" data-name="Trazado 791623" d="M91.5,66.143l-5.038-2.9-5.881,3.4,5.024,2.9Z" transform="translate(-26.152 -20.526)" fill="#12263f"/>
    <path id="Trazado_791624" data-name="Trazado 791624" d="M87.22,66.754,85.567,65.8l2.468-1.423,1.658.948Z" transform="translate(-27.77 -20.894)" fill="url(#linear-gradient)"/>
    <path id="Trazado_791625" data-name="Trazado 791625" d="M99.794,63.962l-7.03-4.055L92.8,61.6l7.017,4.061Z" transform="translate(-30.106 -19.442)" fill="#484f60"/>
    <path id="Trazado_791626" data-name="Trazado 791626" d="M111.388,58.881l-7.912,3.073-.3,1.675.022,1.7,8.216-4.746Z" transform="translate(-33.483 -19.109)" fill="#373f51"/>
    <path id="Trazado_791627" data-name="Trazado 791627" d="M108.01,56.935l-7.029-4.05-8.217,4.742,7.029,4.056Z" transform="translate(-30.106 -17.163)" fill="#12263f"/>
    <path id="Trazado_791628" data-name="Trazado 791628" d="M51.293,36.754,44.262,32.7l.032,1.7,7.025,4.059Z" transform="translate(-14.365 -10.612)" fill="#484f60"/>
    <path id="Trazado_791629" data-name="Trazado 791629" d="M62.893,31.683l-7.916,3.065-.306,1.676.028,1.7,8.216-4.744Z" transform="translate(-17.743 -10.282)" fill="#373f51"/>
    <path id="Trazado_791630" data-name="Trazado 791630" d="M59.515,29.734l-7.041-4.056-8.212,4.743,7.031,4.055Z" transform="translate(-14.365 -8.333)" fill="#12263f"/>
    <path id="Trazado_791631" data-name="Trazado 791631" d="M94.328,42.165l-4.9-2.827.016,1.18,4.9,2.832Z" transform="translate(-29.024 -12.767)" fill="#484f60"/>
    <path id="Trazado_791632" data-name="Trazado 791632" d="M102.416,38.619l-5.523,2.143-.212,1.171.02,1.185,5.733-3.308Z" transform="translate(-31.377 -12.533)" fill="#373f51"/>
    <path id="Trazado_791633" data-name="Trazado 791633" d="M100.063,37.262l-4.9-2.823-5.729,3.309,4.9,2.827Z" transform="translate(-29.024 -11.177)" fill="#12263f"/>
    <path id="Trazado_791634" data-name="Trazado 791634" d="M46.974,50.365l-5.029-2.9.018,1.21,5.031,2.9Z" transform="translate(-13.613 -15.404)" fill="#484f60"/>
    <path id="Trazado_791635" data-name="Trazado 791635" d="M55.277,46.733l-5.666,2.192-.221,1.2.02,1.21,5.885-3.394Z" transform="translate(-16.029 -15.167)" fill="#373f51"/>
    <path id="Trazado_791636" data-name="Trazado 791636" d="M52.861,45.339l-5.029-2.9-5.887,3.4,5.029,2.9Z" transform="translate(-13.613 -13.772)" fill="#12263f"/>
    <path id="Trazado_791637" data-name="Trazado 791637" d="M48.578,45.944l-1.648-.963L49.4,43.56l1.651.962Z" transform="translate(-15.231 -14.137)" fill="url(#linear-gradient)"/>
    <path id="Trazado_791638" data-name="Trazado 791638" d="M95.834,75.382l-3.078-1.77.016.743,3.071,1.771Z" transform="translate(-30.103 -23.89)" fill="#484f60"/>
    <path id="Trazado_791639" data-name="Trazado 791639" d="M103.132,71.257l-4.883,2.17-.936,1.191.009.744L103.152,72Z" transform="translate(-31.582 -23.126)" fill="#373f51"/>
    <path id="Trazado_791640" data-name="Trazado 791640" d="M101.653,70.4,98.58,68.629l-5.824,3.366,3.078,1.77Z" transform="translate(-30.103 -22.273)" fill="#12263f"/>
    <path id="Trazado_791641" data-name="Trazado 791641" d="M40.6,7.936,37.523,6.16l.016.742,3.071,1.774Z" transform="translate(-12.178 -1.999)" fill="#484f60"/>
    <path id="Trazado_791642" data-name="Trazado 791642" d="M47.9,3.811,43,5.976l-.93,1.2.013.739L47.91,4.552Z" transform="translate(-13.655 -1.237)" fill="#373f51"/>
    <path id="Trazado_791643" data-name="Trazado 791643" d="M46.421,2.958,43.35,1.183,37.524,4.544,40.6,6.321Z" transform="translate(-12.178 -0.384)" fill="#12263f"/>
    <path id="Trazado_791644" data-name="Trazado 791644" d="M119.893,50.27l4.721-2.717-.031,1.133-4.708,2.724Z" transform="translate(-38.904 -15.433)" fill="#373f51"/>
    <path id="Trazado_791645" data-name="Trazado 791645" d="M106.646,43.938l7.5,3.329,1.443,1.83-.018,1.139-8.951-5.162Z" transform="translate(-34.604 -14.26)" fill="#484f60"/>
    <path id="Trazado_791646" data-name="Trazado 791646" d="M106.657,42.63l4.718-2.721,8.949,5.163L115.6,47.789Z" transform="translate(-34.615 -12.952)" fill="#12263f"/>
    <path id="Trazado_791647" data-name="Trazado 791647" d="M47.706,13.533l-5.042-2.909.028,1.215,5.025,2.905Z" transform="translate(-13.846 -3.448)" fill="#484f60"/>
    <path id="Trazado_791648" data-name="Trazado 791648" d="M56.008,9.9,50.343,12.09,50.128,13.3l.011,1.212,5.888-3.4Z" transform="translate(-16.269 -3.212)" fill="#373f51"/>
    <path id="Trazado_791649" data-name="Trazado 791649" d="M53.586,8.5l-5.035-2.9L42.665,9,47.706,11.9Z" transform="translate(-13.846 -1.819)" fill="#12263f"/>
    <path id="Trazado_791650" data-name="Trazado 791650" d="M49.313,9.105l-1.647-.948,2.463-1.423,1.654.95Z" transform="translate(-15.47 -2.186)" fill="url(#linear-gradient)"/>
    <path id="Trazado_791651" data-name="Trazado 791651" d="M36.3,45.066,33.228,43.3l.013.731,3.07,1.781Z" transform="translate(-10.784 -14.052)" fill="#484f60"/>
    <path id="Trazado_791652" data-name="Trazado 791652" d="M43.6,40.939l-4.9,2.166L37.778,44.3l.009.744L43.61,41.68Z" transform="translate(-12.26 -13.287)" fill="#373f51"/>
    <path id="Trazado_791653" data-name="Trazado 791653" d="M42.127,40.083,39.05,38.3l-5.822,3.375L36.3,43.444Z" transform="translate(-10.784 -12.43)" fill="#12263f"/>
    <path id="Trazado_791654" data-name="Trazado 791654" d="M30.371,41.588,27.3,39.813l.011.746,3.073,1.768Z" transform="translate(-8.859 -12.921)" fill="#484f60"/>
    <path id="Trazado_791655" data-name="Trazado 791655" d="M37.666,37.462l-4.884,2.168-.934,1.194.011.74,5.826-3.358Z" transform="translate(-10.336 -12.158)" fill="#373f51"/>
    <path id="Trazado_791656" data-name="Trazado 791656" d="M36.19,36.61l-3.071-1.775L27.3,38.2l3.073,1.774Z" transform="translate(-8.859 -11.305)" fill="#12263f"/>
    <path id="Trazado_791657" data-name="Trazado 791657" d="M107.877,72.972l-1.438-.83L101.9,74.759l1.444.831Z" transform="translate(-33.071 -23.413)" fill="#27938c"/>
    <path id="Trazado_791658" data-name="Trazado 791658" d="M71.233,57.711,59.7,51.051l.05,2.783,11.526,6.651Z" transform="translate(-19.376 -16.568)" fill="#484f60"/>
    <path id="Trazado_791659" data-name="Trazado 791659" d="M71.267,59.921,59.74,53.263l.026,1.289L71.291,61.2Z" transform="translate(-19.388 -17.286)" fill="#bcbec0"/>
    <path id="Trazado_791660" data-name="Trazado 791660" d="M90.263,49.386,77.278,54.421l-.5,2.75.046,2.773L90.3,52.153Z" transform="translate(-24.916 -16.028)" fill="#373f51"/>
    <path id="Trazado_791661" data-name="Trazado 791661" d="M90.3,51.575l-13.493,7.8.024,1.282,13.476-7.791Z" transform="translate(-24.926 -16.738)" fill="#939598"/>
    <path id="Trazado_791662" data-name="Trazado 791662" d="M84.723,46.186,73.187,39.527,59.7,47.311l11.53,6.661Z" transform="translate(-19.376 -12.828)" fill="#12263f"/>
    <path id="Trazado_791663" data-name="Trazado 791663" d="M72.212,52.265,68.42,50.083l9.879-5.7,3.8,2.178Z" transform="translate(-22.205 -14.403)" fill="url(#linear-gradient)"/>
    <path id="Trazado_791664" data-name="Trazado 791664" d="M20.279,29.958,8.75,23.3,8.8,26.078l11.524,6.663Z" transform="translate(-2.84 -7.563)" fill="#484f60"/>
    <path id="Trazado_791665" data-name="Trazado 791665" d="M20.319,32.163,8.786,25.5l.026,1.289,11.525,6.663Z" transform="translate(-2.852 -8.277)" fill="#bcbec0"/>
    <path id="Trazado_791666" data-name="Trazado 791666" d="M39.31,21.637l-12.986,5.03-.507,2.751.047,2.783,13.484-7.792Z" transform="translate(-8.379 -7.022)" fill="#373f51"/>
    <path id="Trazado_791667" data-name="Trazado 791667" d="M39.345,23.829,25.86,31.62l.018,1.292L39.362,25.12Z" transform="translate(-8.393 -7.733)" fill="#939598"/>
    <path id="Trazado_791668" data-name="Trazado 791668" d="M33.771,18.436,22.243,11.774,8.75,19.56l11.528,6.657Z" transform="translate(-2.84 -3.821)" fill="#12263f"/>
    <g id="Grupo_1040802" data-name="Grupo 1040802" transform="translate(0 0)">
      <g id="Grupo_1040801" data-name="Grupo 1040801" clip-path="url(#clip-path)">
        <g id="Grupo_1040767" data-name="Grupo 1040767" transform="translate(48.987 24.665)" opacity="0.3">
          <g id="Grupo_1040766" data-name="Grupo 1040766">
            <g id="Grupo_1040765" data-name="Grupo 1040765" clip-path="url(#clip-path-5)">
              <path id="Trazado_791669" data-name="Trazado 791669" d="M74.431,37.614a1.734,1.734,0,0,1-1.577,0,.481.481,0,0,1,0-.913,1.773,1.773,0,0,1,1.577,0,.484.484,0,0,1,0,.913" transform="translate(-72.524 -36.516)"/>
            </g>
          </g>
        </g>
        <path id="Trazado_791670" data-name="Trazado 791670" d="M72.857,34.219v2.14a.459.459,0,0,0,.267.368,1.411,1.411,0,0,0,1.27,0,.454.454,0,0,0,.263-.368v-2.14Z" transform="translate(-23.645 -11.105)" fill="#f4a338"/>
        <path id="Trazado_791671" data-name="Trazado 791671" d="M74.4,34.331a1.4,1.4,0,0,1-1.27,0,.385.385,0,0,1,0-.729,1.394,1.394,0,0,1,1.27,0c.356.2.356.531,0,.729" transform="translate(-23.648 -10.855)" fill="#e6b046"/>
        <g id="Grupo_1040770" data-name="Grupo 1040770" transform="translate(46.873 25.803)" opacity="0.3">
          <g id="Grupo_1040769" data-name="Grupo 1040769">
            <g id="Grupo_1040768" data-name="Grupo 1040768" clip-path="url(#clip-path-6)">
              <path id="Trazado_791672" data-name="Trazado 791672" d="M71.3,39.3a1.736,1.736,0,0,1-1.581,0,.482.482,0,0,1,0-.913,1.792,1.792,0,0,1,1.581,0,.484.484,0,0,1,0,.913" transform="translate(-69.394 -38.201)"/>
            </g>
          </g>
        </g>
        <path id="Trazado_791673" data-name="Trazado 791673" d="M69.732,35.907v2.134a.442.442,0,0,0,.265.372,1.4,1.4,0,0,0,1.266,0,.437.437,0,0,0,.266-.372V35.907Z" transform="translate(-22.631 -11.653)" fill="#f4a338"/>
        <path id="Trazado_791674" data-name="Trazado 791674" d="M71.266,36.018a1.387,1.387,0,0,1-1.266,0c-.35-.2-.35-.521,0-.72a1.371,1.371,0,0,1,1.266,0c.356.2.353.525,0,.72" transform="translate(-22.633 -11.405)" fill="#e6b046"/>
        <g id="Grupo_1040773" data-name="Grupo 1040773" transform="translate(44.644 27.143)" opacity="0.3">
          <g id="Grupo_1040772" data-name="Grupo 1040772">
            <g id="Grupo_1040771" data-name="Grupo 1040771" clip-path="url(#clip-path-7)">
              <path id="Trazado_791675" data-name="Trazado 791675" d="M67.994,41.283a1.717,1.717,0,0,1-1.574,0,.481.481,0,0,1,0-.91,1.729,1.729,0,0,1,1.574,0,.482.482,0,0,1,0,.91" transform="translate(-66.094 -40.184)"/>
            </g>
          </g>
        </g>
        <path id="Trazado_791676" data-name="Trazado 791676" d="M66.42,37.894v2.141a.438.438,0,0,0,.272.361,1.4,1.4,0,0,0,1.266,0,.438.438,0,0,0,.263-.361V37.894Z" transform="translate(-21.556 -12.298)" fill="#f4a338"/>
        <path id="Trazado_791677" data-name="Trazado 791677" d="M67.962,38.007a1.371,1.371,0,0,1-1.266,0c-.354-.2-.354-.528,0-.724a1.4,1.4,0,0,1,1.266,0,.381.381,0,0,1,0,.724" transform="translate(-21.559 -12.05)" fill="#e6b046"/>
        <g id="Grupo_1040776" data-name="Grupo 1040776" transform="translate(42.527 28.281)" opacity="0.3">
          <g id="Grupo_1040775" data-name="Grupo 1040775">
            <g id="Grupo_1040774" data-name="Grupo 1040774" clip-path="url(#clip-path-8)">
              <path id="Trazado_791678" data-name="Trazado 791678" d="M64.864,42.966a1.725,1.725,0,0,1-1.578,0,.477.477,0,0,1,0-.9,1.7,1.7,0,0,1,1.578,0c.434.253.434.659,0,.9" transform="translate(-62.961 -41.868)"/>
            </g>
          </g>
        </g>
        <path id="Trazado_791679" data-name="Trazado 791679" d="M63.3,39.581v2.132a.431.431,0,0,0,.263.367,1.411,1.411,0,0,0,1.274,0,.445.445,0,0,0,.26-.367V39.581Z" transform="translate(-20.544 -12.845)" fill="#f4a338"/>
        <path id="Trazado_791680" data-name="Trazado 791680" d="M64.836,39.7a1.426,1.426,0,0,1-1.274,0c-.357-.205-.357-.531,0-.735a1.4,1.4,0,0,1,1.274,0,.39.39,0,0,1,0,.735" transform="translate(-20.542 -12.595)" fill="#e6b046"/>
        <g id="Grupo_1040779" data-name="Grupo 1040779" transform="translate(24.661 6.434)" opacity="0.3">
          <g id="Grupo_1040778" data-name="Grupo 1040778">
            <g id="Grupo_1040777" data-name="Grupo 1040777" clip-path="url(#clip-path-9)">
              <path id="Trazado_791681" data-name="Trazado 791681" d="M38.415,10.624a1.744,1.744,0,0,1-1.583,0,.484.484,0,0,1,0-.913,1.765,1.765,0,0,1,1.583,0c.434.257.434.666,0,.913" transform="translate(-36.51 -9.525)"/>
            </g>
          </g>
        </g>
        <path id="Trazado_791682" data-name="Trazado 791682" d="M36.846,7.238V9.377a.443.443,0,0,0,.267.362,1.405,1.405,0,0,0,1.267,0,.438.438,0,0,0,.263-.362V7.238Z" transform="translate(-11.958 -2.349)" fill="#f4a338"/>
        <path id="Trazado_791683" data-name="Trazado 791683" d="M38.382,7.351a1.36,1.36,0,0,1-1.267,0c-.351-.2-.351-.526,0-.73a1.418,1.418,0,0,1,1.267,0c.353.2.353.532,0,.73" transform="translate(-11.96 -2.1)" fill="#e6b046"/>
        <g id="Grupo_1040782" data-name="Grupo 1040782" transform="translate(22.546 7.578)" opacity="0.3">
          <g id="Grupo_1040781" data-name="Grupo 1040781">
            <g id="Grupo_1040780" data-name="Grupo 1040780" clip-path="url(#clip-path-10)">
              <path id="Trazado_791684" data-name="Trazado 791684" d="M35.282,12.318a1.736,1.736,0,0,1-1.577,0,.482.482,0,0,1,0-.913,1.761,1.761,0,0,1,1.577,0,.481.481,0,0,1,0,.913" transform="translate(-33.379 -11.219)"/>
            </g>
          </g>
        </g>
        <path id="Trazado_791685" data-name="Trazado 791685" d="M33.726,8.926v2.145a.434.434,0,0,0,.261.354,1.405,1.405,0,0,0,1.271,0,.438.438,0,0,0,.257-.354V8.926Z" transform="translate(-10.945 -2.897)" fill="#f4a338"/>
        <path id="Trazado_791686" data-name="Trazado 791686" d="M35.255,9.043a1.422,1.422,0,0,1-1.271,0c-.355-.2-.355-.532,0-.733a1.405,1.405,0,0,1,1.271,0,.389.389,0,0,1,0,.733" transform="translate(-10.943 -2.647)" fill="#e6b046"/>
        <g id="Grupo_1040785" data-name="Grupo 1040785" transform="translate(69.262 31.876)" opacity="0.3">
          <g id="Grupo_1040784" data-name="Grupo 1040784">
            <g id="Grupo_1040783" data-name="Grupo 1040783" clip-path="url(#clip-path-11)">
              <path id="Trazado_791687" data-name="Trazado 791687" d="M104.449,48.291a1.731,1.731,0,0,1-1.581,0,.478.478,0,0,1,0-.908,1.718,1.718,0,0,1,1.581,0,.478.478,0,0,1,0,.908" transform="translate(-102.541 -47.191)"/>
            </g>
          </g>
        </g>
        <path id="Trazado_791688" data-name="Trazado 791688" d="M102.891,44.905v2.134a.465.465,0,0,0,.261.371,1.441,1.441,0,0,0,1.27,0,.462.462,0,0,0,.263-.371V44.905Z" transform="translate(-33.392 -14.573)" fill="#f4a338"/>
        <path id="Trazado_791689" data-name="Trazado 791689" d="M104.422,45.016a1.376,1.376,0,0,1-1.269,0,.386.386,0,0,1,0-.73,1.422,1.422,0,0,1,1.269,0c.356.205.352.53,0,.73" transform="translate(-33.393 -14.324)" fill="#e6b046"/>
        <g id="Grupo_1040788" data-name="Grupo 1040788" transform="translate(67.15 33.015)" opacity="0.3">
          <g id="Grupo_1040787" data-name="Grupo 1040787">
            <g id="Grupo_1040786" data-name="Grupo 1040786" clip-path="url(#clip-path-12)">
              <path id="Trazado_791690" data-name="Trazado 791690" d="M101.318,49.98a1.755,1.755,0,0,1-1.574,0c-.438-.251-.438-.658,0-.915a1.739,1.739,0,0,1,1.574,0c.445.257.445.665,0,.915" transform="translate(-99.414 -48.877)"/>
            </g>
          </g>
        </g>
        <path id="Trazado_791691" data-name="Trazado 791691" d="M99.751,46.585v2.136a.457.457,0,0,0,.269.369,1.4,1.4,0,0,0,1.269,0,.444.444,0,0,0,.257-.369V46.585Z" transform="translate(-32.373 -15.118)" fill="#f4a338"/>
        <path id="Trazado_791692" data-name="Trazado 791692" d="M101.291,46.7a1.383,1.383,0,0,1-1.269,0,.386.386,0,0,1,0-.733,1.408,1.408,0,0,1,1.269,0,.386.386,0,0,1,0,.733" transform="translate(-32.376 -14.87)" fill="#e6b046"/>
        <g id="Grupo_1040791" data-name="Grupo 1040791" transform="translate(64.138 20.164)" opacity="0.3">
          <g id="Grupo_1040790" data-name="Grupo 1040790">
            <g id="Grupo_1040789" data-name="Grupo 1040789" clip-path="url(#clip-path-9)">
              <path id="Trazado_791693" data-name="Trazado 791693" d="M96.859,30.956a1.754,1.754,0,0,1-1.574,0,.481.481,0,0,1,0-.915,1.725,1.725,0,0,1,1.574,0,.483.483,0,0,1,0,.915" transform="translate(-94.955 -29.852)"/>
            </g>
          </g>
        </g>
        <path id="Trazado_791694" data-name="Trazado 791694" d="M95.293,27.565V29.7a.459.459,0,0,0,.262.363,1.415,1.415,0,0,0,1.276,0,.442.442,0,0,0,.259-.363V27.565Z" transform="translate(-30.927 -8.946)" fill="#f4a338"/>
        <path id="Trazado_791695" data-name="Trazado 791695" d="M96.834,27.682a1.407,1.407,0,0,1-1.276,0,.392.392,0,0,1,0-.736,1.445,1.445,0,0,1,1.276,0,.391.391,0,0,1,0,.736" transform="translate(-30.929 -8.697)" fill="#e6b046"/>
        <g id="Grupo_1040794" data-name="Grupo 1040794" transform="translate(62.027 21.303)" opacity="0.3">
          <g id="Grupo_1040793" data-name="Grupo 1040793">
            <g id="Grupo_1040792" data-name="Grupo 1040792" clip-path="url(#clip-path-14)">
              <path id="Trazado_791696" data-name="Trazado 791696" d="M93.727,32.647a1.73,1.73,0,0,1-1.566,0c-.44-.259-.44-.666,0-.915a1.689,1.689,0,0,1,1.566,0c.443.249.443.66,0,.915" transform="translate(-91.83 -31.539)"/>
            </g>
          </g>
        </g>
        <path id="Trazado_791697" data-name="Trazado 791697" d="M92.157,29.252v2.137a.453.453,0,0,0,.274.365,1.421,1.421,0,0,0,1.269,0,.448.448,0,0,0,.259-.365V29.252Z" transform="translate(-29.909 -9.493)" fill="#f4a338"/>
        <path id="Trazado_791698" data-name="Trazado 791698" d="M93.7,29.37a1.412,1.412,0,0,1-1.269,0,.385.385,0,0,1,0-.734,1.4,1.4,0,0,1,1.269,0,.388.388,0,0,1,0,.734" transform="translate(-29.912 -9.244)" fill="#e6b046"/>
        <g id="Grupo_1040797" data-name="Grupo 1040797" transform="translate(45.26 8.686)" opacity="0.3">
          <g id="Grupo_1040796" data-name="Grupo 1040796">
            <g id="Grupo_1040795" data-name="Grupo 1040795" clip-path="url(#clip-path-15)">
              <path id="Trazado_791699" data-name="Trazado 791699" d="M68.907,13.958a1.714,1.714,0,0,1-1.572,0,.481.481,0,0,1,0-.913,1.743,1.743,0,0,1,1.572,0,.482.482,0,0,1,0,.913" transform="translate(-67.006 -12.859)"/>
            </g>
          </g>
        </g>
        <path id="Trazado_791700" data-name="Trazado 791700" d="M67.343,10.563V12.7a.46.46,0,0,0,.263.368,1.412,1.412,0,0,0,1.271,0,.447.447,0,0,0,.261-.368V10.563Z" transform="translate(-21.856 -3.428)" fill="#f4a338"/>
        <path id="Trazado_791701" data-name="Trazado 791701" d="M68.877,10.682a1.424,1.424,0,0,1-1.27,0,.39.39,0,0,1,0-.736,1.419,1.419,0,0,1,1.27,0,.388.388,0,0,1,0,.736" transform="translate(-21.856 -3.179)" fill="#e6b046"/>
        <g id="Grupo_1040800" data-name="Grupo 1040800" transform="translate(43.144 9.825)" opacity="0.3">
          <g id="Grupo_1040799" data-name="Grupo 1040799">
            <g id="Grupo_1040798" data-name="Grupo 1040798" clip-path="url(#clip-path-16)">
              <path id="Trazado_791702" data-name="Trazado 791702" d="M65.781,15.643a1.726,1.726,0,0,1-1.577,0c-.442-.249-.442-.657,0-.913a1.773,1.773,0,0,1,1.577,0,.482.482,0,0,1,0,.913" transform="translate(-63.873 -14.545)"/>
            </g>
          </g>
        </g>
        <path id="Trazado_791703" data-name="Trazado 791703" d="M64.218,12.248v2.143a.458.458,0,0,0,.259.365,1.4,1.4,0,0,0,1.273,0,.453.453,0,0,0,.263-.365V12.248Z" transform="translate(-20.841 -3.975)" fill="#f4a338"/>
        <path id="Trazado_791704" data-name="Trazado 791704" d="M65.748,12.368a1.379,1.379,0,0,1-1.273,0,.385.385,0,0,1,0-.729,1.412,1.412,0,0,1,1.273,0,.383.383,0,0,1,0,.729" transform="translate(-20.84 -3.728)" fill="#e6b046"/>
        <path id="Trazado_791705" data-name="Trazado 791705" d="M83.646,78.554a6.189,6.189,0,0,1,2.8-4.846l39.7-22.918.908.535L86.443,80.169a2.485,2.485,0,0,1-1.177.372l-.076.257-.938-.606a2.113,2.113,0,0,1-.605-1.638" transform="translate(-27.147 -16.483)" fill="#939598"/>
        <path id="Trazado_791706" data-name="Trazado 791706" d="M87.79,74.5l39.695-22.919v6.461l-39.7,22.92c-1.543.895-2.8.167-2.8-1.618a6.183,6.183,0,0,1,2.8-4.844" transform="translate(-27.581 -16.74)" fill="#bcbec0"/>
        <path id="Trazado_791707" data-name="Trazado 791707" d="M118.377,71.33l-.006,3.543-.628-.376,0-3.545Z" transform="translate(-38.211 -23.027)" fill="#373f51"/>
        <path id="Trazado_791708" data-name="Trazado 791708" d="M128.659,62.513l-4.321,3.159-5.961,2.8-.638-.378,10.285-5.952Z" transform="translate(-38.211 -20.167)" fill="#484f60"/>
        <path id="Trazado_791709" data-name="Trazado 791709" d="M128.963,62.692l0,3.559-10.29,5.941.006-3.543Z" transform="translate(-38.515 -20.346)" fill="#12263f"/>
        <path id="Trazado_791710" data-name="Trazado 791710" d="M128.436,64.915v1.7l-8.246,4.772V69.694Z" transform="translate(-39.007 -21.067)" fill="#484f60"/>
        <path id="Trazado_791711" data-name="Trazado 791711" d="M103.83,79.715l-.007,3.543-.625-.376-.007-3.548Z" transform="translate(-33.49 -25.747)" fill="#373f51"/>
        <path id="Trazado_791712" data-name="Trazado 791712" d="M110.729,73.8l-4.322,3.157-2.578.84-.639-.38,6.9-3.987Z" transform="translate(-33.49 -23.832)" fill="#484f60"/>
        <path id="Trazado_791713" data-name="Trazado 791713" d="M111.033,73.98l0,3.558-6.909,3.983.007-3.543Z" transform="translate(-33.793 -24.009)" fill="#12263f"/>
        <path id="Trazado_791714" data-name="Trazado 791714" d="M110.5,76.2v1.7l-4.861,2.813,0-1.7Z" transform="translate(-34.286 -24.73)" fill="#484f60"/>
      </g>
    </g>
  </g>
</svg>
