<svg id="Grupo_1041001" data-name="Grupo 1041001" xmlns="http://www.w3.org/2000/svg" xmlns:xlink="http://www.w3.org/1999/xlink" width="93.979" height="47.933" viewBox="0 0 93.979 47.933">
  <defs>
    <clipPath id="clip-path">
      <rect id="Rectángulo_370968" data-name="Rectángulo 370968" width="93.979" height="47.933" fill="none"/>
    </clipPath>
    <clipPath id="clip-path-2">
      <rect id="Rectángulo_370963" data-name="Rectángulo 370963" width="93.979" height="47.933" transform="translate(0 0)" fill="none"/>
    </clipPath>
    <clipPath id="clip-path-3">
      <rect id="Rectángulo_370962" data-name="Rectángulo 370962" width="3.597" height="3.793" transform="translate(66.945 5.153)" fill="none"/>
    </clipPath>
    <clipPath id="clip-path-4">
      <path id="Trazado_792183" data-name="Trazado 792183" d="M6.422,35.442.777,40.35.768,43.329,6.414,38.42c1.345-1.169,6.643.307,9.5,1.954,1.1.638,1.844,1.3,1.842,1.847l.009-2.979c0-.545-.737-1.209-1.843-1.847a18.908,18.908,0,0,0-7.841-2.373,2.573,2.573,0,0,0-1.654.42" fill="none"/>
    </clipPath>
    <linearGradient id="linear-gradient" x1="-0.045" y1="1.554" x2="0.014" y2="1.554" gradientUnits="objectBoundingBox">
      <stop offset="0" stop-color="#e9e6e6"/>
      <stop offset="1" stop-color="#bdb6c6"/>
    </linearGradient>
    <clipPath id="clip-path-6">
      <path id="Trazado_792192" data-name="Trazado 792192" d="M40.135,29.453l-4.164,3.574-.007,2.644L40.127,32.1c.987-.846,4.805.227,6.886,1.429.822.475,1.374.969,1.373,1.373l.007-2.643c0-.4-.55-.9-1.372-1.374a13.724,13.724,0,0,0-5.691-1.731,1.872,1.872,0,0,0-1.2.3" fill="none"/>
    </clipPath>
    <linearGradient id="linear-gradient-2" x1="-2.893" y1="2.881" x2="-2.813" y2="2.881" xlink:href="#linear-gradient"/>
  </defs>
  <g id="Grupo_1040875" data-name="Grupo 1040875" clip-path="url(#clip-path)">
    <g id="Grupo_1040866" data-name="Grupo 1040866">
      <g id="Grupo_1040865" data-name="Grupo 1040865" clip-path="url(#clip-path-2)">
        <g id="Grupo_1040864" data-name="Grupo 1040864" opacity="0.5" style="mix-blend-mode: multiply;isolation: isolate">
          <g id="Grupo_1040863" data-name="Grupo 1040863">
            <g id="Grupo_1040862" data-name="Grupo 1040862" clip-path="url(#clip-path-3)">
              <path id="Trazado_792180" data-name="Trazado 792180" d="M68.74,5.153a4.418,4.418,0,0,1,.656.305c1.51.872,1.533,2.286.044,3.168a4.227,4.227,0,0,1-.693.32,4.437,4.437,0,0,1-.654-.3c-1.511-.872-1.533-2.286-.044-3.169a4.244,4.244,0,0,1,.691-.32" fill="#43639b"/>
            </g>
          </g>
        </g>
        <path id="Trazado_792181" data-name="Trazado 792181" d="M62.764,4.06l-.008,2.979a1.916,1.916,0,0,1,1.1-1.567,6.057,6.057,0,0,1,5.5-.031,1.971,1.971,0,0,1,1.176,1.62l.008-2.978a1.944,1.944,0,0,0-1.147-1.6,6.068,6.068,0,0,0-5.528.015,1.918,1.918,0,0,0-1.1,1.566" fill="#bdb6c6"/>
        <path id="Trazado_792182" data-name="Trazado 792182" d="M72.2,6.191,26.949,32.063c-2.017,1.195-3.149,2.8-3.154,4.461L23.787,39.5c0-1.666,1.137-3.267,3.154-4.462L72.195,9.169A2.211,2.211,0,0,0,73.5,7.325l.009-2.978A2.214,2.214,0,0,1,72.2,6.191" fill="#bdb6c6"/>
      </g>
    </g>
    <g id="Grupo_1040868" data-name="Grupo 1040868">
      <g id="Grupo_1040867" data-name="Grupo 1040867" clip-path="url(#clip-path-4)">
        <rect id="Rectángulo_370964" data-name="Rectángulo 370964" width="16.993" height="8.307" transform="translate(0.768 35.022)" fill="url(#linear-gradient)"/>
      </g>
    </g>
    <g id="Grupo_1040870" data-name="Grupo 1040870">
      <g id="Grupo_1040869" data-name="Grupo 1040869" clip-path="url(#clip-path-2)">
        <path id="Trazado_792184" data-name="Trazado 792184" d="M8.656,38.026a19.857,19.857,0,0,1,7.253,2.348c1.106.639,1.844,1.3,1.842,1.847l.009-2.978c0-.545-.737-1.209-1.842-1.847a19.827,19.827,0,0,0-7.262-2.349Z" fill="#e9e6e6"/>
        <path id="Trazado_792185" data-name="Trazado 792185" d="M0,42.1a3.232,3.232,0,0,0,.234,1.26l.008-2.978a3.237,3.237,0,0,1-.234-1.261Z" fill="#e9e6e6"/>
        <path id="Trazado_792186" data-name="Trazado 792186" d="M22.189,40.59a19.927,19.927,0,0,1-9.979,4.361.5.5,0,0,1-.3-.055.181.181,0,0,1-.106-.146L11.8,47.729a.179.179,0,0,0,.105.146.522.522,0,0,0,.3.055,19.935,19.935,0,0,0,9.979-4.361,4.689,4.689,0,0,0,1.635-3.38l.008-2.979a4.684,4.684,0,0,1-1.635,3.38" fill="#bdb6c6"/>
        <path id="Trazado_792187" data-name="Trazado 792187" d="M3,33.482a14.2,14.2,0,0,1,8.352-2.889,14.86,14.86,0,0,0,6.641-1.819L62.724.827c2.452-1.454,6.022-.811,8.374.547S74.574,4.785,72.2,6.192L26.949,32.063c-2.152,1.276-3.3,3.013-3.139,4.8a4.569,4.569,0,0,1-1.621,3.73,19.935,19.935,0,0,1-9.979,4.361.511.511,0,0,1-.3-.055c-.11-.064-.148-.168-.048-.256l5.649-4.91c.69-.6-.129-1.49-1.594-2.335-2.852-1.647-8.15-3.123-9.495-1.954L.776,40.351a.524.524,0,0,1-.534.031c-.863-2.068.8-5.2,2.756-6.9M69.366,2.463a6.057,6.057,0,0,0-5.5.031c-1.489.884-1.467,2.3.073,3.186a6.054,6.054,0,0,0,5.5-.033c1.49-.881,1.466-2.3-.073-3.184" fill="#f8f5f4"/>
        <path id="Trazado_792188" data-name="Trazado 792188" d="M11.8,47.729a.18.18,0,0,0,.105.146.516.516,0,0,0,.3.055l.008-2.978a.513.513,0,0,1-.3-.056.181.181,0,0,1-.106-.146Z" fill="#e9e6e6"/>
        <path id="Trazado_792189" data-name="Trazado 792189" d="M.234,43.36a.522.522,0,0,0,.534-.031l.009-2.978a.524.524,0,0,1-.535.03Z" fill="#ccc6d1"/>
        <path id="Trazado_792190" data-name="Trazado 792190" d="M84.109,4.4a.356.356,0,0,1,.141-.275L87.419,1.4a.079.079,0,0,0,.033-.061l-.007,2.644a.089.089,0,0,1-.033.061L84.243,6.764a.355.355,0,0,0-.141.275Z" fill="#bdb6c6"/>
        <path id="Trazado_792191" data-name="Trazado 792191" d="M92.283,7.626a7.719,7.719,0,0,1-4.258,1.562,11.2,11.2,0,0,0-4.592,1.3L55.167,27.037c-1.457.854-2.346,2-2.35,3.192l-.007,2.643c0-1.2.892-2.338,2.349-3.191L83.425,13.127a11.225,11.225,0,0,1,4.592-1.3,7.714,7.714,0,0,0,4.259-1.562,4.743,4.743,0,0,0,1.695-3.153l.008-2.644a4.747,4.747,0,0,1-1.7,3.154" fill="#bdb6c6"/>
      </g>
    </g>
    <g id="Grupo_1040872" data-name="Grupo 1040872">
      <g id="Grupo_1040871" data-name="Grupo 1040871" clip-path="url(#clip-path-6)">
        <rect id="Rectángulo_370966" data-name="Rectángulo 370966" width="12.43" height="6.52" transform="translate(35.964 29.151)" fill="url(#linear-gradient-2)"/>
      </g>
    </g>
    <g id="Grupo_1040874" data-name="Grupo 1040874">
      <g id="Grupo_1040873" data-name="Grupo 1040873" clip-path="url(#clip-path-2)">
        <path id="Trazado_792193" data-name="Trazado 792193" d="M42.314,31.881a14.967,14.967,0,0,1,4.7,1.646c.822.474,1.373.969,1.372,1.373l.008-2.643c0-.405-.55-.9-1.372-1.374a14.982,14.982,0,0,0-4.707-1.647Z" fill="#e9e6e6"/>
        <path id="Trazado_792194" data-name="Trazado 792194" d="M35.411,34.8a2.333,2.333,0,0,0,.162.892l.008-2.643a2.337,2.337,0,0,1-.163-.892Z" fill="#e9e6e6"/>
        <path id="Trazado_792195" data-name="Trazado 792195" d="M44,36.273a.133.133,0,0,0,.077.107.369.369,0,0,0,.214.04,14.681,14.681,0,0,0,7.333-3.163,3.434,3.434,0,0,0,1.222-2.493l-.007,2.644A3.437,3.437,0,0,1,51.613,35.9a14.68,14.68,0,0,1-7.333,3.162.358.358,0,0,1-.213-.04.127.127,0,0,1-.077-.107Z" fill="#bdb6c6"/>
        <path id="Trazado_792196" data-name="Trazado 792196" d="M35.581,33.05c-.618-1.513.626-3.8,2.068-5.038a10.435,10.435,0,0,1,6.127-2.089,10.926,10.926,0,0,0,4.87-1.313L78.818,6.938a4.348,4.348,0,0,0,2.029-2.12,2.972,2.972,0,0,1,.806-1.184,11.174,11.174,0,0,1,5.572-2.405.29.29,0,0,1,.169.031c.061.035.082.093.025.141l-3.168,2.72c-.393.337.074.842.9,1.32,1.583.914,4.488,1.731,5.237,1.088l3.169-2.72a.288.288,0,0,1,.3-.015c.468,1.153-.476,2.89-1.573,3.832a7.708,7.708,0,0,1-4.258,1.561,11.225,11.225,0,0,0-4.592,1.3L55.167,27.037c-1.556.912-2.465,2.154-2.338,3.437a3.335,3.335,0,0,1-1.208,2.784,14.672,14.672,0,0,1-7.333,3.162.37.37,0,0,1-.214-.039c-.081-.047-.107-.125-.033-.189l4.167-3.574c.515-.442-.1-1.106-1.187-1.735-2.082-1.2-5.9-2.275-6.886-1.43l-4.164,3.575a.386.386,0,0,1-.39.022" fill="#f8f5f4"/>
        <path id="Trazado_792197" data-name="Trazado 792197" d="M81.134,8.318l.9.523c.516.3.571.751.121,1.009L52.974,26.673a1.944,1.944,0,0,1-1.748-.074l-.9-.523c-.516-.3-.57-.751-.121-1.009L79.386,8.243a1.944,1.944,0,0,1,1.748.075" fill="#f8f5f4"/>
        <path id="Trazado_792198" data-name="Trazado 792198" d="M49.986,25.741,79.094,8.96a1.941,1.941,0,0,1,1.748.075l.9.523a.868.868,0,0,1,.339.334l.075-.043c.448-.257.4-.709-.122-1.008l-.9-.523a1.939,1.939,0,0,0-1.747-.075L50.2,25.067a.461.461,0,0,0-.217.674" fill="#e9e6e6"/>
        <path id="Trazado_792199" data-name="Trazado 792199" d="M43.99,38.917a.133.133,0,0,0,.077.107.369.369,0,0,0,.214.04l.007-2.643a.374.374,0,0,1-.213-.04A.133.133,0,0,1,44,36.274Z" fill="#e9e6e6"/>
        <path id="Trazado_792200" data-name="Trazado 792200" d="M35.574,35.693a.386.386,0,0,0,.39-.022l.008-2.644a.388.388,0,0,1-.391.023Z" fill="#ccc6d1"/>
      </g>
    </g>
  </g>
</svg>
